<svg xmlns="http://www.w3.org/2000/svg" viewBox="0 0 65.19 34.56"><defs><style>.cls-1{fill:#fff;}.cls-2{fill:#f10a21;}.cls-3{fill:#011e81;}</style></defs><g id="Camada_2" data-name="Camada 2"><g id="Camada_1-2" data-name="Camada 1"><rect class="cls-1" width="65.18" height="34.56"/><rect class="cls-2" x="28.75" width="7.69" height="34.56"/><rect class="cls-2" x="29.15" y="-15.35" width="6.89" height="65.17" transform="translate(15.36 49.84) rotate(-90)"/><polygon class="cls-3" points="39.14 9.72 39.14 0 57.5 0 39.14 9.72"/><path class="cls-2" d="M65,0h.12L43.63,11.46H39.14v-.38L60.31,0Z"/><polygon class="cls-3" points="51.01 11.46 65.18 11.46 65.18 3.98 51.01 11.46"/><polygon class="cls-3" points="26.05 24.84 26.05 34.56 7.7 34.56 26.05 24.84"/><path class="cls-2" d="M.23,34.56H.11L21.57,23.1h4.48v.38L4.88,34.56Z"/><polygon class="cls-3" points="14.19 23.11 0.01 23.11 0.01 30.58 14.19 23.11"/><polygon class="cls-3" points="39.14 24.84 39.14 34.56 57.5 34.56 39.14 24.84"/><path class="cls-2" d="M65.19,32,48.62,23.1H44.14v.38l21,11Z"/><polygon class="cls-3" points="51.01 23.11 65.19 23.11 65.19 30.58 51.01 23.11"/><polygon class="cls-3" points="26.1 9.72 26.1 0 7.74 0 26.1 9.72"/><path class="cls-2" d="M0,2.7l16.56,8.84h4.49v-.38L0,.15Z"/><polygon class="cls-3" points="14.18 11.54 0 11.54 0 4.06 14.18 11.54"/></g></g></svg>