<svg xmlns="http://www.w3.org/2000/svg" viewBox="0 0 65.18 34.39"><defs><style>.cls-1{fill:#009b2d;}.cls-2{fill:#ffdf00;}.cls-3{fill:#002279;}.cls-4{fill:#fff;}</style></defs><g id="Camada_2" data-name="Camada 2"><g id="Camada_1-2" data-name="Camada 1"><rect class="cls-1" width="65.18" height="34.39"/><polygon class="cls-2" points="12.58 17.37 32.67 4.39 52.85 17.34 32.71 30.43 12.58 17.37"/><ellipse class="cls-3" cx="32.73" cy="17.33" rx="8.51" ry="8.61"/><path class="cls-4" d="M31.94,13.94a19.55,19.55,0,0,1,9.21,4.69A8.61,8.61,0,0,1,40.83,20a19.2,19.2,0,0,0-8.41-4.55,20.66,20.66,0,0,0-7.92-.28A11.15,11.15,0,0,1,25,13.84,22.64,22.64,0,0,1,31.94,13.94Z"/><polygon class="cls-4" points="25.78 15.43 25.86 15.68 26.12 15.68 25.91 15.84 25.99 16.1 25.78 15.94 25.56 16.1 25.64 15.84 25.43 15.68 25.69 15.68 25.78 15.43"/><polygon class="cls-4" points="29.47 17.38 29.54 17.61 29.77 17.61 29.59 17.74 29.66 17.96 29.47 17.83 29.29 17.96 29.36 17.74 29.17 17.61 29.4 17.61 29.47 17.38"/><polygon class="cls-4" points="27.37 18.68 27.41 18.81 27.55 18.81 27.44 18.9 27.48 19.03 27.37 18.95 27.26 19.03 27.3 18.9 27.19 18.81 27.33 18.81 27.37 18.68"/><polygon class="cls-4" points="26.53 19.03 26.62 19.31 26.91 19.31 26.68 19.49 26.77 19.77 26.53 19.6 26.29 19.77 26.38 19.49 26.14 19.31 26.44 19.31 26.53 19.03"/><polygon class="cls-4" points="25.47 19.9 25.54 20.11 25.76 20.11 25.58 20.24 25.65 20.45 25.47 20.32 25.3 20.45 25.36 20.24 25.19 20.11 25.41 20.11 25.47 19.9"/><polygon class="cls-4" points="28.3 19.98 28.37 20.19 28.59 20.19 28.41 20.32 28.48 20.53 28.3 20.4 28.12 20.53 28.19 20.32 28.02 20.19 28.23 20.19 28.3 19.98"/><polygon class="cls-4" points="28.04 20.85 28.11 21.06 28.33 21.06 28.15 21.19 28.22 21.4 28.04 21.27 27.87 21.4 27.93 21.19 27.76 21.06 27.98 21.06 28.04 20.85"/><polygon class="cls-4" points="29.3 21.59 29.38 21.82 29.62 21.82 29.42 21.97 29.5 22.2 29.3 22.06 29.1 22.2 29.18 21.97 28.98 21.82 29.23 21.82 29.3 21.59"/><polygon class="cls-4" points="32.7 20.89 32.78 21.13 33.02 21.13 32.83 21.27 32.9 21.51 32.7 21.36 32.51 21.51 32.58 21.27 32.39 21.13 32.63 21.13 32.7 20.89"/><polygon class="cls-4" points="33.7 19.2 33.77 19.42 34 19.42 33.82 19.55 33.89 19.77 33.7 19.63 33.52 19.77 33.59 19.55 33.41 19.42 33.63 19.42 33.7 19.2"/><polygon class="cls-4" points="32.7 18.41 32.77 18.63 33 18.63 32.82 18.77 32.89 18.98 32.7 18.85 32.52 18.98 32.59 18.77 32.41 18.63 32.63 18.63 32.7 18.41"/><polygon class="cls-4" points="31.84 19.2 31.91 19.4 32.11 19.4 31.95 19.52 32.01 19.71 31.84 19.59 31.68 19.71 31.75 19.52 31.58 19.4 31.78 19.4 31.84 19.2"/><polygon class="cls-4" points="32.27 19.89 32.32 20.04 32.47 20.04 32.35 20.13 32.39 20.27 32.27 20.18 32.15 20.27 32.2 20.13 32.08 20.04 32.23 20.04 32.27 19.89"/><polygon class="cls-4" points="35.03 16.73 35.07 16.87 35.22 16.87 35.1 16.96 35.15 17.1 35.03 17.01 34.91 17.1 34.95 16.96 34.83 16.87 34.98 16.87 35.03 16.73"/><polygon class="cls-4" points="35.35 14.28 35.44 14.54 35.71 14.54 35.49 14.71 35.58 14.97 35.35 14.81 35.13 14.97 35.22 14.71 34.99 14.54 35.27 14.54 35.35 14.28"/><polygon class="cls-4" points="38.67 20 38.75 20.27 39.03 20.27 38.8 20.43 38.89 20.69 38.67 20.53 38.45 20.69 38.53 20.43 38.31 20.27 38.58 20.27 38.67 20"/><polygon class="cls-4" points="38.49 21.49 38.56 21.71 38.79 21.71 38.6 21.85 38.67 22.07 38.49 21.93 38.3 22.07 38.37 21.85 38.19 21.71 38.42 21.71 38.49 21.49"/><polygon class="cls-4" points="39.02 20.83 39.09 21.05 39.32 21.05 39.13 21.19 39.2 21.41 39.02 21.27 38.83 21.41 38.9 21.19 38.72 21.05 38.95 21.05 39.02 20.83"/><polygon class="cls-4" points="39.85 20.18 39.9 20.35 40.08 20.35 39.94 20.45 39.99 20.62 39.85 20.52 39.7 20.62 39.76 20.45 39.62 20.35 39.79 20.35 39.85 20.18"/><polygon class="cls-4" points="37.81 22.01 37.87 22.18 38.04 22.18 37.9 22.29 37.95 22.45 37.81 22.35 37.67 22.45 37.73 22.29 37.58 22.18 37.76 22.18 37.81 22.01"/><polygon class="cls-4" points="36.97 22.65 37.03 22.84 37.23 22.84 37.07 22.96 37.13 23.16 36.97 23.04 36.81 23.16 36.87 22.96 36.71 22.84 36.91 22.84 36.97 22.65"/><polygon class="cls-4" points="36.91 21.85 36.97 22.01 37.13 22.01 37 22.11 37.05 22.27 36.91 22.18 36.78 22.27 36.83 22.11 36.7 22.01 36.86 22.01 36.91 21.85"/><polygon class="cls-4" points="35.99 22.16 36.05 22.32 36.21 22.32 36.08 22.42 36.13 22.58 35.99 22.48 35.86 22.58 35.91 22.42 35.77 22.32 35.94 22.32 35.99 22.16"/><polygon class="cls-4" points="34.59 21.93 34.64 22.09 34.81 22.09 34.67 22.19 34.72 22.35 34.59 22.25 34.45 22.35 34.51 22.19 34.37 22.09 34.54 22.09 34.59 21.93"/><polygon class="cls-4" points="36.97 23.59 37.02 23.76 37.19 23.76 37.05 23.86 37.1 24.02 36.97 23.92 36.83 24.02 36.88 23.86 36.75 23.76 36.91 23.76 36.97 23.59"/><polygon class="cls-4" points="35.27 22.88 35.33 23.07 35.53 23.07 35.37 23.19 35.43 23.39 35.27 23.27 35.11 23.39 35.17 23.19 35 23.07 35.21 23.07 35.27 22.88"/><polygon class="cls-4" points="32.73 23.96 32.76 24.05 32.85 24.05 32.78 24.11 32.81 24.2 32.73 24.14 32.65 24.2 32.68 24.11 32.61 24.05 32.7 24.05 32.73 23.96"/><path class="cls-1" d="M25.71,14.34a.35.35,0,0,1-.3.43.4.4,0,0,1-.45-.31.34.34,0,0,1,.3-.43A.38.38,0,0,1,25.71,14.34Zm-.64.1a.31.31,0,0,0,.33.25.24.24,0,0,0,.19-.33.29.29,0,0,0-.32-.26A.26.26,0,0,0,25.07,14.44Z"/><path class="cls-1" d="M26.15,13.94a1.05,1.05,0,0,1,.21,0,.38.38,0,0,1,.25,0,.17.17,0,0,1,.08.13.18.18,0,0,1-.13.19h0a.18.18,0,0,1,.14.13.84.84,0,0,0,.09.19h-.11l-.08-.17a.15.15,0,0,0-.18-.12h-.1l.05.31h-.1Zm.16.32h.11c.11,0,.18-.07.16-.15s-.09-.13-.21-.12l-.1,0Z"/><path class="cls-1" d="M27.19,13.87l.23,0a.51.51,0,0,1,.35.08.36.36,0,0,1,.13.26.35.35,0,0,1-.1.28.6.6,0,0,1-.35.11h-.19C27.24,14.34,27.22,14.1,27.19,13.87Zm.17.63h.11c.22,0,.33-.12.32-.31s-.13-.28-.36-.27h-.12Z"/><path class="cls-1" d="M28.83,14.24h-.32v.26h.35v.08h-.45c0-.24,0-.48,0-.72h.45v.08H28.5v.22l.32,0Z"/><path class="cls-1" d="M30.05,14.36c0-.1,0-.22,0-.31h0a2.78,2.78,0,0,1-.12.26c-.06.11-.11.22-.16.33h-.08l-.12-.36L29.49,14h0c0,.08,0,.2,0,.31l0,.31h-.1c0-.24.05-.48.08-.71h.14l.12.36c0,.09,0,.17.07.25h0l.1-.24L30,14l.14,0c0,.24,0,.48,0,.72H30C30,14.57,30,14.46,30.05,14.36Z"/><path class="cls-1" d="M31.72,14.6l-.31-.06,0,.25.34.07,0,.08-.44-.09c0-.23.07-.47.11-.71l.44.09v.08l-.34-.07,0,.22.31.06Z"/><path class="cls-1" d="M32.94,14.5l.2.05a.36.36,0,0,1,.21.12.21.21,0,0,1,0,.16.24.24,0,0,1-.11.13A.44.44,0,0,1,33,15l-.08,0-.07.27-.1,0Zm0,.37.08,0c.13,0,.22,0,.24-.1s0-.15-.15-.18a.22.22,0,0,0-.1,0Z"/><path class="cls-1" d="M33.92,14.8a.53.53,0,0,1,.2,0,.35.35,0,0,1,.21.13.16.16,0,0,1,0,.15.19.19,0,0,1-.21.12h0a.19.19,0,0,1,.07.18.82.82,0,0,0,0,.21l-.1,0a.62.62,0,0,1,0-.18.14.14,0,0,0-.11-.18l-.1,0-.09.29-.1,0Zm0,.34.11,0a.16.16,0,0,0,.22-.06c0-.09,0-.16-.14-.19l-.1,0Z"/><path class="cls-1" d="M35.43,15.72a.37.37,0,0,1-.5.21.35.35,0,0,1-.2-.47.37.37,0,0,1,.5-.21A.33.33,0,0,1,35.43,15.72Zm-.59-.22a.26.26,0,0,0,.13.36.29.29,0,0,0,.36-.17.28.28,0,0,0-.13-.37A.26.26,0,0,0,34.84,15.5Z"/><path class="cls-1" d="M36.3,16.49a.75.75,0,0,1-.24-.07.43.43,0,0,1-.23-.21.33.33,0,0,1,0-.29.4.4,0,0,1,.57-.14.43.43,0,0,1,.17.12l-.06.06a.31.31,0,0,0-.15-.11.3.3,0,0,0-.43.11.28.28,0,0,0,.16.39.36.36,0,0,0,.13,0l.1-.19-.15-.07,0-.07.25.12Z"/><path class="cls-1" d="M37.09,16.14l.19.09c.1.06.16.11.18.17a.16.16,0,0,1,0,.15.21.21,0,0,1-.23.08h0a.15.15,0,0,1,0,.18c0,.1,0,.17,0,.2L37.1,17a1.63,1.63,0,0,1,0-.18.14.14,0,0,0-.07-.19L37,16.54l-.16.27-.09,0Zm-.07.34.1.05a.17.17,0,0,0,.23,0c0-.08,0-.15-.1-.2l-.1-.05Z"/><path class="cls-1" d="M38.15,17.2,37.88,17l-.14.21.29.19,0,.06-.39-.24c.14-.2.27-.4.4-.6l.38.24,0,.07-.29-.19-.13.19.27.17Z"/><path class="cls-1" d="M38.46,17.66a.33.33,0,0,0,.12.15.17.17,0,0,0,.22,0c0-.06,0-.11,0-.2s-.12-.21-.06-.29a.24.24,0,0,1,.34,0,.51.51,0,0,1,.13.13l-.07.05a.29.29,0,0,0-.11-.12c-.09-.07-.16-.05-.19,0s0,.11.05.21.1.2,0,.28-.21.11-.36,0a.39.39,0,0,1-.14-.15Z"/><path class="cls-1" d="M39.23,18.22a.33.33,0,0,0,.12.15.15.15,0,0,0,.22,0c0-.05,0-.1,0-.2s-.11-.21,0-.29.21-.08.34,0a.29.29,0,0,1,.12.14l-.07,0a.32.32,0,0,0-.1-.13c-.09-.07-.17-.05-.2,0s0,.11,0,.2.1.22,0,.29-.21.1-.36,0a.38.38,0,0,1-.13-.16Z"/><path class="cls-1" d="M40.7,19.11a.4.4,0,0,1-.56,0,.33.33,0,0,1,0-.5.39.39,0,0,1,.56,0A.33.33,0,0,1,40.7,19.11Zm-.49-.42a.25.25,0,0,0,0,.38.3.3,0,0,0,.41,0,.25.25,0,0,0,0-.39A.29.29,0,0,0,40.21,18.69Z"/></g></g></svg>