<svg width="50" height="50" viewBox="0 0 50 50" fill="none" xmlns="http://www.w3.org/2000/svg">
<g clip-path="url(#clip0_148_28743)">
<path d="M11.5137 9.35498H5.55554V40.5647H11.5137V9.35498Z" fill="#B1711B"/>
<path d="M10.628 17.7421H6.4412C6.28017 17.7421 6.11914 17.5808 6.11914 17.4195V12.1776C6.11914 12.0163 6.28017 11.855 6.4412 11.855H10.628C10.789 11.855 10.9501 12.0163 10.9501 12.1776V17.4195C10.9501 17.5808 10.789 17.7421 10.628 17.7421Z" fill="#C3C3C3"/>
<path d="M17.7134 13.7905C10.8696 16.0486 7.24638 16.6131 0 16.6131C0 15.1615 0 14.4357 0 12.984C6.76329 12.984 10.1449 12.4195 16.5862 10.3228C17.0692 11.7744 17.3108 12.4195 17.7134 13.7905Z" fill="#B4B4B4"/>
<path d="M17.7134 13.7904C10.8696 16.0485 7.24638 16.613 0 16.613C0 16.2098 0 16.0485 0 15.6453C7.08535 15.6453 10.628 15.0807 17.3913 12.9033C17.5523 13.2259 17.6329 13.3872 17.7134 13.7904Z" fill="#989898"/>
<path d="M16.8277 11.0483C10.306 13.1451 6.92432 13.7096 0 13.7096C0 14.4354 0 14.8387 0 15.6451C7.08535 15.6451 10.628 15.0806 17.3913 12.9032C17.2303 12.1774 17.0692 11.7741 16.8277 11.0483Z" fill="#C3C3C3"/>
<path d="M10.628 38.0648H6.4412C6.28017 38.0648 6.11914 37.9035 6.11914 37.7422V32.5002C6.19966 32.4196 6.28017 32.2583 6.4412 32.2583H10.628C10.789 32.2583 10.9501 32.4196 10.9501 32.5809V37.8228C10.9501 37.9841 10.789 38.0648 10.628 38.0648Z" fill="#C3C3C3"/>
<path d="M16.9082 33.3872H0V36.9356H16.9082V33.3872Z" fill="#B4B4B4"/>
<path d="M16.9082 35.9678H0V36.9355H16.9082V35.9678Z" fill="#989898"/>
<path d="M16.9082 34.1128H0V35.9676H16.9082V34.1128Z" fill="#C3C3C3"/>
<path d="M45.0081 9.35498H39.0499V40.5647H45.0081V9.35498Z" fill="#B1711B"/>
<path d="M44.525 17.9842L40.4187 18.5487C40.2577 18.5487 40.0966 18.4681 40.0966 18.3068L39.372 13.1455C39.372 12.9842 39.4525 12.8229 39.6136 12.8229L43.7198 12.1777C43.8809 12.1777 44.0419 12.2584 44.0419 12.4197L44.7665 17.581C44.7665 17.7422 44.686 17.9035 44.525 17.9842Z" fill="#C3C3C3"/>
<path d="M44.1224 38.0648H39.9356C39.7746 38.0648 39.6135 37.9035 39.6135 37.7422V32.5003C39.6135 32.339 39.7746 32.1777 39.9356 32.1777H44.1224C44.2834 32.1777 44.4444 32.339 44.4444 32.5003V37.7422C44.3639 37.9842 44.2834 38.0648 44.1224 38.0648Z" fill="#C3C3C3"/>
<path d="M51.0001 33.3872H33.6554V36.9356H51.0001V33.3872Z" fill="#B4B4B4"/>
<path d="M51.0001 35.9678H33.6554V36.9355H51.0001V35.9678Z" fill="#989898"/>
<path d="M51.0001 34.1128H33.6554V35.9676H51.0001V34.1128Z" fill="#C3C3C3"/>
<path d="M51 16.6128C44.0182 16.6935 40.4421 17.258 33.8009 19.3548C33.29 17.9838 33.1198 17.3386 32.6089 16.0483C39.6758 13.7903 43.4222 13.1451 50.9149 13.0645C51 14.4354 51 15.1612 51 16.6128Z" fill="#B4B4B4"/>
<path d="M51 16.6128C44.0182 16.6934 40.4421 17.2579 33.8009 19.3547C33.6306 19.0321 33.6306 18.7902 33.4603 18.4676C40.1867 16.2902 43.8479 15.7257 50.9149 15.645C51 16.0482 51 16.2095 51 16.6128Z" fill="#989898"/>
<path d="M51.0002 13.79C43.5927 13.8707 39.9315 14.4352 32.9497 16.6933C33.2051 17.4191 33.2903 17.7417 33.5457 18.4675C40.2721 16.29 43.9333 15.7255 51.0002 15.6449C51.0002 14.9191 51.0002 14.5158 51.0002 13.79Z" fill="#C3C3C3"/>
<path d="M24.7121 9.07441L18.8386 10.0752L24.064 40.8417L29.9375 39.8409L24.7121 9.07441Z" fill="#B1711B"/>
<path d="M25.2013 17.5002L21.095 18.226C20.934 18.226 20.7729 18.1454 20.7729 17.9841L19.8873 12.8228C19.8873 12.6615 19.9678 12.5002 20.1288 12.5002L24.2351 11.7744C24.3961 11.7744 24.5572 11.8551 24.5572 12.0163L25.4428 17.1776C25.5233 17.2583 25.3623 17.4196 25.2013 17.5002Z" fill="#9E6518"/>
<path d="M28.6634 37.5808L24.5572 38.3066C24.3961 38.3066 24.2351 38.2259 24.2351 38.0647L23.3494 32.9034C23.3494 32.7421 23.4299 32.5808 23.591 32.5808L27.6973 31.855C27.8583 31.855 28.0193 31.9356 28.0193 32.0969L28.905 37.2582C28.905 37.4195 28.8245 37.5001 28.6634 37.5808Z" fill="#C3C3C3"/>
<path d="M33.7359 33.3872H16.9082V36.9356H33.7359V33.3872Z" fill="#B4B4B4"/>
<path d="M33.7359 35.9678H16.9082V36.9355H33.7359V35.9678Z" fill="#989898"/>
<path d="M33.7359 34.1128H16.9082V35.9676H33.7359V34.1128Z" fill="#C3C3C3"/>
<path d="M33.5749 5.64533C27.7778 9.91953 24.5572 11.6131 17.7134 13.8711C17.2303 12.5002 17.0693 11.855 16.5862 10.484C22.9469 8.38727 26.0065 6.77437 31.401 2.82275C32.2867 3.87114 32.7698 4.43566 33.5749 5.64533Z" fill="#B4B4B4"/>
<path d="M33.5749 5.64532C27.7778 9.91951 24.5572 11.6131 17.7134 13.8711C17.5524 13.4679 17.5524 13.3066 17.3914 12.984C24.1546 10.6453 27.3753 9.03242 33.0113 4.83887C33.2529 5.16145 33.3334 5.32274 33.5749 5.64532Z" fill="#989898"/>
<path d="M31.8841 3.30664C26.409 7.3389 23.3494 8.9518 16.8277 11.1292C17.0692 11.855 17.1498 12.1776 17.3913 12.9034C24.1546 10.6454 27.3752 9.03245 33.0113 4.8389C32.5282 4.19374 32.3671 3.9518 31.8841 3.30664Z" fill="#C3C3C3"/>
</g>
<defs>
<clipPath id="clip0_148_28743">
<rect width="50" height="50" fill="white"/>
</clipPath>
</defs>
</svg>
