<svg xmlns="http://www.w3.org/2000/svg" xmlns:xlink="http://www.w3.org/1999/xlink" viewBox="0 0 1120.2 412.29"><defs><style>.cls-1{fill:#c3c3c3;}.cls-2{fill:#b1711b;}.cls-3{fill:#b4b4b4;}.cls-4{fill:#989898;}.cls-5{clip-path:url(#clip-path);}.cls-6{clip-path:url(#clip-path-2);}</style><clipPath id="clip-path"><path class="cls-1" d="M1120.14,382.61c-136.6-1.83-257.25-23.69-368.88-66.84-98.74-38.18-178.86-88-256.35-136.14C354.6,92.42,222.07,10,0,9.23l0-4.43c223.28.82,356.33,83.51,497.19,171.07,156.8,97.46,319,198.24,623,202.31Z"/></clipPath><clipPath id="clip-path-2"><path class="cls-1" d="M1120.14,407.87c-136.6-1.82-257.25-23.69-368.88-66.84-98.74-38.18-178.86-88-256.35-136.14C354.6,117.68,222.07,35.3,0,34.49l0-4.43c223.28.82,356.33,83.52,497.19,171.07,156.8,97.46,319,198.24,623,202.31Z"/></clipPath></defs><g id="Camada_2" data-name="Camada 2"><g id="Trilhos"><rect class="cls-2" x="1106.08" y="373.54" width="7.44" height="38.75"/><rect class="cls-1" x="1106.84" y="377.16" width="5.91" height="7.22" rx="0.38"/><rect class="cls-1" x="1106.84" y="402.44" width="5.91" height="7.22" rx="0.38"/><rect class="cls-2" x="364.23" y="119.4" width="38.75" height="7.44" transform="translate(87.61 396.43) rotate(-60.51)"/><rect class="cls-1" x="386.07" y="109.93" width="5.91" height="7.22" rx="0.38" transform="translate(106.28 -176.79) rotate(29.49)"/><rect class="cls-1" x="375.26" y="129.05" width="5.91" height="7.22" rx="0.38" transform="translate(114.29 -168.99) rotate(29.49)"/><rect class="cls-2" x="985.35" y="382.34" width="38.75" height="7.44" transform="translate(572.97 1372.01) rotate(-87.37)"/><rect class="cls-1" x="1002.34" y="369.83" width="5.91" height="7.22" rx="0.38" transform="translate(18.19 -45.73) rotate(2.63)"/><rect class="cls-1" x="1001.18" y="395.08" width="5.91" height="7.22" rx="0.38" transform="translate(19.35 -45.65) rotate(2.63)"/><rect class="cls-2" x="6.65" y="0.42" width="7.44" height="38.75"/><rect class="cls-1" x="7.41" y="3.54" width="5.91" height="7.22" rx="0.38"/><rect class="cls-3" y="4.93" width="20.74" height="4.44"/><rect class="cls-4" y="8.17" width="20.74" height="1.2"/><rect class="cls-1" y="5.82" width="20.74" height="2.35"/><rect class="cls-1" x="7.41" y="28.82" width="5.91" height="7.22" rx="0.38"/><rect class="cls-3" y="30.21" width="20.74" height="4.44"/><rect class="cls-4" y="33.44" width="20.74" height="1.2"/><rect class="cls-1" y="31.1" width="20.74" height="2.35"/><rect class="cls-2" x="27.4" y="0.42" width="7.44" height="38.75"/><rect class="cls-2" x="48.14" y="0.42" width="7.44" height="38.75"/><rect class="cls-2" x="68.88" y="0.42" width="7.44" height="38.75"/><rect class="cls-1" x="69.64" y="3.54" width="5.91" height="7.22" rx="0.38"/><rect class="cls-3" x="62.23" y="4.93" width="20.74" height="4.44"/><rect class="cls-4" x="62.23" y="8.17" width="20.74" height="1.2"/><rect class="cls-1" x="62.23" y="5.82" width="20.74" height="2.35"/><rect class="cls-1" x="69.64" y="28.82" width="5.91" height="7.22" rx="0.38"/><rect class="cls-3" x="62.23" y="30.21" width="20.74" height="4.44"/><rect class="cls-4" x="62.23" y="33.44" width="20.74" height="1.2"/><rect class="cls-1" x="62.23" y="31.1" width="20.74" height="2.35"/><rect class="cls-2" x="89.62" y="0.42" width="7.44" height="38.75"/><rect class="cls-1" x="90.39" y="3.54" width="5.91" height="7.22" rx="0.38"/><rect class="cls-3" x="82.97" y="4.93" width="20.74" height="4.44"/><rect class="cls-4" x="82.97" y="8.17" width="20.74" height="1.2"/><rect class="cls-1" x="82.97" y="5.82" width="20.74" height="2.35"/><rect class="cls-1" x="90.39" y="28.82" width="5.91" height="7.22" rx="0.38"/><rect class="cls-3" x="82.97" y="30.21" width="20.74" height="4.44"/><rect class="cls-4" x="82.97" y="33.44" width="20.74" height="1.2"/><rect class="cls-1" x="82.97" y="31.1" width="20.74" height="2.35"/><rect class="cls-2" x="110.37" y="0.42" width="7.44" height="38.75"/><rect class="cls-1" x="111.13" y="3.54" width="5.91" height="7.22" rx="0.38"/><rect class="cls-3" x="103.71" y="4.93" width="20.74" height="4.44"/><rect class="cls-4" x="103.71" y="8.17" width="20.74" height="1.2"/><rect class="cls-1" x="103.71" y="5.82" width="20.74" height="2.35"/><rect class="cls-1" x="111.13" y="28.82" width="5.91" height="7.22" rx="0.38"/><rect class="cls-3" x="103.71" y="30.21" width="20.74" height="4.44"/><rect class="cls-4" x="103.71" y="33.44" width="20.74" height="1.2"/><rect class="cls-1" x="103.71" y="31.1" width="20.74" height="2.35"/><rect class="cls-2" x="131.02" y="0.42" width="7.44" height="38.75"/><rect class="cls-1" x="131.79" y="3.54" width="5.91" height="7.22" rx="0.38"/><rect class="cls-3" x="124.37" y="4.93" width="20.74" height="4.44"/><rect class="cls-4" x="124.37" y="8.17" width="20.74" height="1.2"/><rect class="cls-1" x="124.37" y="5.82" width="20.74" height="2.35"/><rect class="cls-1" x="131.79" y="28.82" width="5.91" height="7.22" rx="0.38"/><rect class="cls-3" x="124.37" y="30.21" width="20.74" height="4.44"/><rect class="cls-4" x="124.37" y="33.44" width="20.74" height="1.2"/><rect class="cls-1" x="124.37" y="31.1" width="20.74" height="2.35"/><rect class="cls-2" x="151.77" y="0.42" width="7.44" height="38.75"/><rect class="cls-1" x="152.53" y="3.54" width="5.91" height="7.22" rx="0.38"/><rect class="cls-3" x="145.11" y="4.93" width="20.74" height="4.44"/><rect class="cls-4" x="145.11" y="8.17" width="20.74" height="1.2"/><rect class="cls-1" x="145.11" y="5.82" width="20.74" height="2.35"/><rect class="cls-1" x="152.53" y="28.82" width="5.91" height="7.22" rx="0.38"/><rect class="cls-3" x="145.11" y="30.21" width="20.74" height="4.44"/><rect class="cls-4" x="145.11" y="33.44" width="20.74" height="1.2"/><rect class="cls-1" x="145.11" y="31.1" width="20.74" height="2.35"/><rect class="cls-2" x="172.51" y="0.42" width="7.44" height="38.75"/><rect class="cls-1" x="173.27" y="3.54" width="5.91" height="7.22" rx="0.38"/><rect class="cls-3" x="165.86" y="4.93" width="20.74" height="4.44"/><rect class="cls-4" x="165.86" y="8.17" width="20.74" height="1.2"/><rect class="cls-1" x="165.86" y="5.82" width="20.74" height="2.35"/><rect class="cls-1" x="173.27" y="28.82" width="5.91" height="7.22" rx="0.38"/><rect class="cls-3" x="165.86" y="30.21" width="20.74" height="4.44"/><rect class="cls-4" x="165.86" y="33.44" width="20.74" height="1.2"/><rect class="cls-1" x="165.86" y="31.1" width="20.74" height="2.35"/><rect class="cls-2" x="193.17" y="0.42" width="7.44" height="38.75"/><rect class="cls-1" x="193.93" y="3.54" width="5.91" height="7.22" rx="0.38"/><rect class="cls-3" x="186.51" y="4.93" width="20.74" height="4.44"/><rect class="cls-4" x="186.51" y="8.17" width="20.74" height="1.2"/><rect class="cls-1" x="186.51" y="5.82" width="20.74" height="2.35"/><rect class="cls-1" x="193.93" y="28.82" width="5.91" height="7.22" rx="0.38"/><rect class="cls-3" x="186.51" y="30.21" width="20.74" height="4.44"/><rect class="cls-4" x="186.51" y="33.44" width="20.74" height="1.2"/><rect class="cls-1" x="186.51" y="31.1" width="20.74" height="2.35"/><rect class="cls-2" x="213.91" y="0.42" width="7.44" height="38.75"/><rect class="cls-1" x="214.67" y="3.54" width="5.91" height="7.22" rx="0.38"/><rect class="cls-3" x="207.26" y="4.93" width="20.74" height="4.44"/><rect class="cls-4" x="207.26" y="8.17" width="20.74" height="1.2"/><rect class="cls-1" x="207.26" y="5.82" width="20.74" height="2.35"/><rect class="cls-1" x="214.67" y="28.82" width="5.91" height="7.22" rx="0.38"/><rect class="cls-3" x="207.26" y="30.21" width="20.74" height="4.44"/><rect class="cls-4" x="207.26" y="33.44" width="20.74" height="1.2"/><rect class="cls-1" x="207.26" y="31.1" width="20.74" height="2.35"/><rect class="cls-2" x="234.65" y="0.42" width="7.44" height="38.75"/><rect class="cls-1" x="235.41" y="3.54" width="5.91" height="7.22" rx="0.38"/><rect class="cls-3" x="228" y="4.93" width="20.74" height="4.44"/><rect class="cls-4" x="228" y="8.17" width="20.74" height="1.2"/><rect class="cls-1" x="228" y="5.82" width="20.74" height="2.35"/><rect class="cls-1" x="235.41" y="28.82" width="5.91" height="7.22" rx="0.38"/><rect class="cls-3" x="228" y="30.21" width="20.74" height="4.44"/><rect class="cls-4" x="228" y="33.44" width="20.74" height="1.2"/><rect class="cls-1" x="228" y="31.1" width="20.74" height="2.35"/><rect class="cls-2" x="255.45" y="0.42" width="7.44" height="38.75"/><rect class="cls-1" x="256.21" y="3.54" width="5.91" height="7.22" rx="0.38"/><rect class="cls-3" x="248.8" y="4.93" width="20.74" height="4.44"/><rect class="cls-4" x="248.8" y="8.17" width="20.74" height="1.2"/><rect class="cls-1" x="248.8" y="5.82" width="20.74" height="2.35"/><rect class="cls-1" x="256.21" y="28.82" width="5.91" height="7.22" rx="0.38"/><rect class="cls-3" x="248.8" y="30.21" width="20.74" height="4.44"/><rect class="cls-4" x="248.8" y="33.44" width="20.74" height="1.2"/><rect class="cls-1" x="248.8" y="31.1" width="20.74" height="2.35"/><rect class="cls-2" x="276.19" y="0.42" width="7.44" height="38.75"/><rect class="cls-1" x="276.95" y="3.54" width="5.91" height="7.22" rx="0.38"/><rect class="cls-3" x="269.54" y="4.93" width="20.74" height="4.44"/><rect class="cls-4" x="269.54" y="8.17" width="20.74" height="1.2"/><rect class="cls-1" x="269.54" y="5.82" width="20.74" height="2.35"/><rect class="cls-1" x="276.95" y="28.82" width="5.91" height="7.22" rx="0.38"/><rect class="cls-3" x="269.54" y="30.21" width="20.74" height="4.44"/><rect class="cls-4" x="269.54" y="33.44" width="20.74" height="1.2"/><rect class="cls-1" x="269.54" y="31.1" width="20.74" height="2.35"/><rect class="cls-2" x="296.93" y="0.42" width="7.44" height="38.75"/><rect class="cls-1" x="297.7" y="3.54" width="5.91" height="7.22" rx="0.38"/><rect class="cls-3" x="290.28" y="4.93" width="20.74" height="4.44"/><rect class="cls-4" x="290.28" y="8.17" width="20.74" height="1.2"/><rect class="cls-1" x="290.28" y="5.82" width="20.74" height="2.35"/><rect class="cls-1" x="297.7" y="28.82" width="5.91" height="7.22" rx="0.38"/><rect class="cls-3" x="290.28" y="30.21" width="20.74" height="4.44"/><rect class="cls-4" x="290.28" y="33.44" width="20.74" height="1.2"/><rect class="cls-1" x="290.28" y="31.1" width="20.74" height="2.35"/><rect class="cls-2" x="6.65" width="7.44" height="38.75"/><rect class="cls-1" x="7.41" y="3.4" width="5.91" height="7.22" rx="0.38"/><rect class="cls-1" x="7.41" y="28.67" width="5.91" height="7.22" rx="0.38"/><rect class="cls-2" x="27.45" y="1.12" width="7.44" height="38.75"/><rect class="cls-1" x="28.21" y="4.24" width="5.91" height="7.22" rx="0.38"/><rect class="cls-1" x="28.21" y="29.17" width="5.91" height="7.22" rx="0.38"/><rect class="cls-2" x="48.16" y="1.64" width="7.44" height="38.75"/><rect class="cls-1" x="48.95" y="5.01" width="5.91" height="7.22" rx="0.38"/><rect class="cls-1" x="48.95" y="30.29" width="5.91" height="7.22" rx="0.38"/><rect class="cls-2" x="1085.33" y="372.6" width="7.44" height="38.75"/><rect class="cls-1" x="1086.1" y="375.73" width="5.91" height="7.22" rx="0.38"/><rect class="cls-1" x="1086.1" y="401.01" width="5.91" height="7.22" rx="0.38"/><rect class="cls-2" x="238.56" y="61.14" width="38.75" height="7.44" transform="translate(150.62 308.21) rotate(-80.32)"/><rect class="cls-1" x="257.1" y="48.79" width="5.91" height="7.22" rx="0.38" transform="translate(12.52 -42.99) rotate(9.68)"/><rect class="cls-1" x="252.85" y="73.71" width="5.91" height="7.22" rx="0.38" transform="matrix(0.99, 0.17, -0.17, 0.99, 16.64, -41.92)"/><rect class="cls-2" x="260.54" y="69.81" width="38.75" height="7.44" transform="translate(108.4 306.63) rotate(-68.37)"/><rect class="cls-1" x="281.51" y="58.43" width="5.91" height="7.22" rx="0.38" transform="translate(42.89 -100.47) rotate(21.63)"/><rect class="cls-1" x="272.94" y="80.03" width="5.91" height="7.22" rx="0.38" transform="translate(50.25 -95.8) rotate(21.63)"/><rect class="cls-2" x="281.45" y="78.54" width="38.75" height="7.44" transform="translate(111.81 330.32) rotate(-67.99)"/><rect class="cls-1" x="302.38" y="67.47" width="5.91" height="7.22" rx="0.38" transform="translate(48.9 -109.26) rotate(22.01)"/><rect class="cls-1" x="293.7" y="88.95" width="5.91" height="7.22" rx="0.38" transform="translate(56.32 -104.44) rotate(22.01)"/><rect class="cls-2" x="302.19" y="88.15" width="38.75" height="7.44" transform="translate(108.82 349.91) rotate(-66.44)"/><rect class="cls-1" x="323.43" y="77.22" width="5.91" height="7.22" rx="0.38" transform="translate(59.51 -123.72) rotate(23.56)"/><rect class="cls-1" x="314.22" y="98.81" width="5.91" height="7.22" rx="0.38" transform="translate(67.37 -118.24) rotate(23.56)"/><rect class="cls-2" x="322.54" y="97.96" width="38.75" height="7.44" transform="translate(102.6 366.19) rotate(-64.42)"/><rect class="cls-1" x="343.64" y="88.28" width="5.91" height="7.22" rx="0.38" transform="translate(73.63 -140.63) rotate(25.58)"/><rect class="cls-1" x="333.78" y="108.88" width="5.91" height="7.22" rx="0.38" transform="translate(81.56 -134.35) rotate(25.58)"/><rect class="cls-2" x="343.47" y="108.34" width="38.75" height="7.44" transform="translate(107.65 393.29) rotate(-64.94)"/><rect class="cls-1" x="364.74" y="98.06" width="5.91" height="7.22" rx="0.38" transform="translate(77.67 -146.17) rotate(25.06)"/><rect class="cls-1" x="355.31" y="118.24" width="5.91" height="7.22" rx="0.38" transform="translate(85.33 -140.27) rotate(25.06)"/><rect class="cls-2" x="384.87" y="130.9" width="38.75" height="7.44" transform="translate(93.44 426.06) rotate(-61.58)"/><rect class="cls-1" x="406.29" y="121.77" width="5.91" height="7.22" rx="0.38" transform="translate(109.01 -179.68) rotate(28.42)"/><rect class="cls-1" x="395.71" y="141.32" width="5.91" height="7.22" rx="0.38" transform="translate(117.04 -172.29) rotate(28.42)"/><rect class="cls-2" x="407.04" y="143.17" width="38.75" height="7.44" transform="translate(91.44 448.88) rotate(-61.04)"/><rect class="cls-1" x="428.33" y="134.48" width="5.91" height="7.22" rx="0.38" transform="translate(120.77 -191.54) rotate(28.96)"/><rect class="cls-1" x="417.71" y="153.66" width="5.91" height="7.22" rx="0.38" transform="translate(128.73 -184.01) rotate(28.96)"/><rect class="cls-2" x="426.85" y="155.21" width="38.75" height="7.44" transform="translate(89.14 470.16) rotate(-60.68)"/><rect class="cls-1" x="448.35" y="146.28" width="5.91" height="7.22" rx="0.38" transform="translate(131.22 -201.81) rotate(29.32)"/><rect class="cls-1" x="437.85" y="164.97" width="5.91" height="7.22" rx="0.38" transform="translate(139.03 -194.27) rotate(29.32)"/><rect class="cls-2" x="447.7" y="168.55" width="38.75" height="7.44" transform="translate(87.83 494.77) rotate(-60.62)"/><rect class="cls-1" x="469.49" y="159.11" width="5.91" height="7.22" rx="0.38" transform="translate(140.58 -210.84) rotate(29.38)"/><rect class="cls-1" x="458.74" y="178.2" width="5.91" height="7.22" rx="0.38" transform="translate(148.56 -203.11) rotate(29.38)"/><rect class="cls-2" x="467.89" y="181.28" width="38.75" height="7.44" transform="translate(85.74 517.3) rotate(-60.4)"/><rect class="cls-1" x="489.75" y="171.8" width="5.91" height="7.22" rx="0.38" transform="translate(150.93 -220.47) rotate(29.6)"/><rect class="cls-1" x="478.76" y="191.15" width="5.91" height="7.22" rx="0.38" transform="translate(159.06 -212.51) rotate(29.6)"/><rect class="cls-2" x="488.58" y="194.38" width="38.75" height="7.44" transform="translate(95.03 554.12) rotate(-62.07)"/><rect class="cls-1" x="510.09" y="185.01" width="5.91" height="7.22" rx="0.38" transform="translate(148.09 -218.32) rotate(27.93)"/><rect class="cls-1" x="500" y="204.04" width="5.91" height="7.22" rx="0.38" transform="translate(155.83 -211.38) rotate(27.93)"/><rect class="cls-2" x="509.91" y="206.75" width="38.75" height="7.44" transform="translate(87.06 569.47) rotate(-60.76)"/><rect class="cls-1" x="531.52" y="197.59" width="5.91" height="7.22" rx="0.38" transform="translate(166.41 -235.46) rotate(29.24)"/><rect class="cls-1" x="520.88" y="216.58" width="5.91" height="7.22" rx="0.38" transform="translate(174.34 -227.85) rotate(29.24)"/><rect class="cls-2" x="529.95" y="218.86" width="38.75" height="7.44" transform="translate(88.7 595.58) rotate(-61.06)"/><rect class="cls-1" x="551.01" y="210.58" width="5.91" height="7.22" rx="0.38" transform="translate(172.85 -241.33) rotate(28.94)"/><rect class="cls-1" x="540.38" y="229.8" width="5.91" height="7.22" rx="0.38" transform="translate(180.82 -233.79) rotate(28.94)"/><rect class="cls-2" x="551.11" y="231.51" width="38.75" height="7.44" transform="translate(95.18 628.76) rotate(-62.03)"/><rect class="cls-1" x="572.41" y="222.42" width="5.91" height="7.22" rx="0.38" transform="translate(173.2 -243.44) rotate(27.97)"/><rect class="cls-1" x="562.11" y="241.82" width="5.91" height="7.22" rx="0.38" transform="translate(181.09 -236.34) rotate(27.97)"/><rect class="cls-2" x="571.85" y="244.29" width="38.75" height="7.44" transform="translate(110.74 672.48) rotate(-64.22)"/><rect class="cls-1" x="593.14" y="234.31" width="5.91" height="7.22" rx="0.38" transform="translate(162.84 -235.61) rotate(25.78)"/><rect class="cls-1" x="583.57" y="254.12" width="5.91" height="7.22" rx="0.38" transform="translate(170.51 -229.47) rotate(25.78)"/><rect class="cls-2" x="592.86" y="256.33" width="38.75" height="7.44" transform="translate(106.41 692.02) rotate(-63.51)"/><rect class="cls-1" x="614.24" y="246.48" width="5.91" height="7.22" rx="0.38" transform="translate(176.34 -249.03) rotate(26.49)"/><rect class="cls-1" x="604.3" y="266.43" width="5.91" height="7.22" rx="0.38" transform="translate(184.2 -242.51) rotate(26.49)"/><rect class="cls-2" x="613.3" y="267.44" width="38.75" height="7.44" transform="translate(123.3 734.12) rotate(-65.47)"/><rect class="cls-1" x="634.46" y="257.34" width="5.91" height="7.22" rx="0.38" transform="translate(165.9 -241.11) rotate(24.53)"/><rect class="cls-1" x="625.1" y="277.84" width="5.91" height="7.22" rx="0.38" transform="translate(173.56 -235.38) rotate(24.53)"/><rect class="cls-2" x="634.36" y="278.38" width="38.75" height="7.44" transform="translate(142.97 778.15) rotate(-67.5)"/><rect class="cls-1" x="655.16" y="267.9" width="5.91" height="7.22" rx="0.38" transform="translate(153.96 -231.14) rotate(22.5)"/><rect class="cls-1" x="646.6" y="288.57" width="5.91" height="7.22" rx="0.38" transform="translate(161.22 -226.3) rotate(22.5)"/><rect class="cls-2" x="654.82" y="288.46" width="38.75" height="7.44" transform="translate(127.28 782.88) rotate(-65.33)"/><rect class="cls-1" x="675.81" y="278.62" width="5.91" height="7.22" rx="0.38" transform="translate(179.76 -257.55) rotate(24.67)"/><rect class="cls-1" x="666.3" y="299.33" width="5.91" height="7.22" rx="0.38" transform="translate(187.53 -251.69) rotate(24.67)"/><rect class="cls-2" x="675.56" y="298.7" width="38.75" height="7.44" transform="translate(151.47 830.66) rotate(-67.7)"/><rect class="cls-1" x="696.24" y="288.42" width="5.91" height="7.22" rx="0.38" transform="translate(163.08 -243.45) rotate(22.3)"/><rect class="cls-1" x="687.66" y="309.36" width="5.91" height="7.22" rx="0.38" transform="translate(170.38 -238.62) rotate(22.3)"/><rect class="cls-2" x="696.31" y="307.83" width="38.75" height="7.44" transform="translate(146.21 845.38) rotate(-66.67)"/><rect class="cls-1" x="717.4" y="297.1" width="5.91" height="7.22" rx="0.38" transform="translate(177.94 -260.65) rotate(23.33)"/><rect class="cls-1" x="708.21" y="318.41" width="5.91" height="7.22" rx="0.38" transform="translate(185.63 -255.27) rotate(23.33)"/><rect class="cls-2" x="717.16" y="316.92" width="38.75" height="7.44" transform="translate(169.68 889.82) rotate(-68.64)"/><rect class="cls-1" x="737.91" y="305.94" width="5.91" height="7.22" rx="0.38" transform="translate(163.61 -248.55) rotate(21.36)"/><rect class="cls-1" x="729.36" y="327.8" width="5.91" height="7.22" rx="0.38" transform="translate(170.98 -243.94) rotate(21.36)"/><rect class="cls-2" x="737.79" y="324.94" width="38.75" height="7.44" transform="translate(173.85 912.66) rotate(-68.5)"/><rect class="cls-1" x="758.65" y="313.77" width="5.91" height="7.22" rx="0.38" transform="translate(169.34 -257.07) rotate(21.5)"/><rect class="cls-1" x="749.83" y="336.16" width="5.91" height="7.22" rx="0.38" transform="translate(176.93 -252.28) rotate(21.5)"/><rect class="cls-2" x="758.54" y="332.65" width="38.75" height="7.44" transform="translate(208.38 964.01) rotate(-71.16)"/><rect class="cls-1" x="778.82" y="321.42" width="5.91" height="7.22" rx="0.38" transform="translate(146.82 -235.01) rotate(18.84)"/><rect class="cls-1" x="771.23" y="343.67" width="5.91" height="7.22" rx="0.38" transform="translate(153.6 -231.37) rotate(18.84)"/><rect class="cls-2" x="779.32" y="339.2" width="38.75" height="7.44" transform="translate(230.22 1000.44) rotate(-72.39)"/><rect class="cls-1" x="799.34" y="327.97" width="5.91" height="7.22" rx="0.38" transform="translate(137.91 -227.18) rotate(17.61)"/><rect class="cls-1" x="792.06" y="350.89" width="5.91" height="7.22" rx="0.38" transform="translate(144.5 -223.9) rotate(17.61)"/><rect class="cls-2" x="800.02" y="345.8" width="38.75" height="7.44" transform="translate(254.48 1038.32) rotate(-73.74)"/><rect class="cls-1" x="819.78" y="334.45" width="5.91" height="7.22" rx="0.38" transform="translate(127.53 -216.79) rotate(16.26)"/><rect class="cls-1" x="813.03" y="357.61" width="5.91" height="7.22" rx="0.38" transform="translate(133.74 -213.97) rotate(16.26)"/><rect class="cls-2" x="820.76" y="352.03" width="38.75" height="7.44" transform="translate(292.71 1085.61) rotate(-76.08)"/><rect class="cls-1" x="840.1" y="340.38" width="5.91" height="7.22" rx="0.38" transform="translate(107.53 -192.73) rotate(13.92)"/><rect class="cls-1" x="834.29" y="363.81" width="5.91" height="7.22" rx="0.38" transform="translate(113 -190.65) rotate(13.92)"/><rect class="cls-2" x="841.51" y="357.5" width="38.75" height="7.44" transform="translate(320.57 1122.58) rotate(-77.4)"/><rect class="cls-1" x="860.72" y="345.13" width="5.91" height="7.22" rx="0.38" transform="translate(96.87 -180) rotate(12.6)"/><rect class="cls-1" x="855.32" y="369.27" width="5.91" height="7.22" rx="0.38" transform="translate(102.01 -178.24) rotate(12.6)"/><rect class="cls-2" x="862.25" y="362.54" width="38.75" height="7.44" transform="translate(347.51 1157.54) rotate(-78.54)"/><rect class="cls-1" x="881.18" y="350.26" width="5.91" height="7.22" rx="0.38" transform="translate(87.93 -168.6) rotate(11.46)"/><rect class="cls-1" x="876.26" y="374.54" width="5.91" height="7.22" rx="0.38" transform="translate(92.66 -167.14) rotate(11.46)"/><rect class="cls-2" x="882.99" y="366.48" width="38.75" height="7.44" transform="translate(391.41 1201.01) rotate(-80.71)"/><rect class="cls-1" x="901.45" y="354.12" width="5.91" height="7.22" rx="0.38" transform="translate(69.58 -141.25) rotate(9.29)"/><rect class="cls-1" x="897.37" y="379.06" width="5.91" height="7.22" rx="0.38" transform="translate(73.55 -140.27) rotate(9.29)"/><rect class="cls-2" x="903.77" y="370.79" width="38.75" height="7.44" transform="translate(426.99 1238.38) rotate(-82.21)"/><rect class="cls-1" x="921.9" y="358.38" width="5.91" height="7.22" rx="0.38" transform="translate(57.59 -121.99) rotate(7.79)"/><rect class="cls-1" x="918.47" y="383.42" width="5.91" height="7.22" rx="0.38" transform="translate(60.95 -121.3) rotate(7.79)"/><rect class="cls-2" x="924.48" y="374.43" width="38.75" height="7.44" transform="translate(482.11 1284.05) rotate(-84.83)"/><rect class="cls-1" x="942.04" y="361.96" width="5.91" height="7.22" rx="0.38" transform="translate(36.82 -83.74) rotate(5.17)"/><rect class="cls-1" x="939.76" y="387.13" width="5.91" height="7.22" rx="0.38" transform="translate(39.08 -83.43) rotate(5.17)"/><rect class="cls-2" x="945.22" y="377.56" width="38.75" height="7.44" transform="translate(514.92 1315.95) rotate(-85.88)"/><rect class="cls-1" x="962.55" y="365.06" width="5.91" height="7.22" rx="0.38" transform="translate(29.02 -68.5) rotate(4.12)"/><rect class="cls-1" x="960.73" y="390.27" width="5.91" height="7.22" rx="0.38" transform="translate(30.83 -68.3) rotate(4.12)"/><rect class="cls-2" x="965.96" y="380.1" width="38.75" height="7.44" transform="translate(535.59 1340.87) rotate(-86.11)"/><rect class="cls-1" x="983.24" y="367.6" width="5.91" height="7.22" rx="0.38" transform="translate(27.44 -66.01) rotate(3.89)"/><rect class="cls-1" x="981.52" y="392.82" width="5.91" height="7.22" rx="0.38" transform="translate(29.14 -65.84) rotate(3.89)"/><rect class="cls-2" x="1004.6" y="383.99" width="38.95" height="8.09" transform="translate(609.84 1401.8) rotate(-88.53)"/><rect class="cls-1" x="1021.45" y="371.42" width="5.91" height="7.22" rx="0.38" transform="translate(9.98 -26.21) rotate(1.47)"/><rect class="cls-1" x="1020.8" y="396.68" width="5.91" height="7.22" rx="0.38" transform="translate(10.63 -26.19) rotate(1.47)"/><rect class="cls-2" x="1042.6" y="370.32" width="8.09" height="38.95"/><rect class="cls-1" x="1043.69" y="373.55" width="5.91" height="7.22" rx="0.38"/><rect class="cls-1" x="1043.69" y="398.83" width="5.91" height="7.22" rx="0.38"/><rect class="cls-2" x="1064.59" y="371.41" width="7.44" height="38.75"/><rect class="cls-1" x="1065.35" y="374.54" width="5.91" height="7.22" rx="0.38"/><rect class="cls-1" x="1065.35" y="399.82" width="5.91" height="7.22" rx="0.38"/><rect class="cls-2" x="234.65" y="39.13" width="7.44" height="38.75"/><rect class="cls-1" x="235.41" y="42.25" width="5.91" height="7.22" rx="0.38"/><rect class="cls-1" x="235.41" y="67.53" width="5.91" height="7.22" rx="0.38"/><rect class="cls-2" x="214.13" y="39.13" width="7.44" height="32.01"/><rect class="cls-1" x="214.89" y="36.04" width="5.91" height="7.22" rx="0.38"/><rect class="cls-1" x="214.89" y="59.84" width="5.91" height="7.22" rx="0.38"/><rect class="cls-2" x="193.21" y="39.13" width="7.44" height="26.32"/><rect class="cls-1" x="193.97" y="54.25" width="5.91" height="7.22" rx="0.38"/><rect class="cls-2" x="172.51" y="39.13" width="7.44" height="20.72"/><rect class="cls-1" x="173.27" y="22.92" width="5.91" height="7.22" rx="0.38"/><rect class="cls-1" x="173.27" y="48.68" width="5.91" height="7.22" rx="0.38"/><rect class="cls-2" x="151.77" y="39.13" width="7.44" height="16.77"/><rect class="cls-1" x="152.53" y="44.61" width="5.91" height="7.22" rx="0.38"/><rect class="cls-2" x="131.02" y="39.13" width="7.44" height="12.71"/><rect class="cls-1" x="131.79" y="41" width="5.91" height="7.22" rx="0.38"/><rect class="cls-2" x="110.37" y="39.13" width="7.44" height="9.55"/><rect class="cls-1" x="111.13" y="37.53" width="5.91" height="7.22" rx="0.38"/><rect class="cls-2" x="89.62" y="39.13" width="7.44" height="5.96"/><rect class="cls-1" x="90.39" y="34.65" width="5.91" height="7.22" rx="0.38"/><rect class="cls-2" x="68.88" y="37.17" width="7.44" height="5.81"/><rect class="cls-1" x="69.64" y="31.95" width="5.91" height="7.22" rx="0.38"/><rect class="cls-1" x="48.9" y="3.54" width="5.91" height="7.22" rx="0.38"/><rect class="cls-3" x="41.49" y="4.93" width="20.74" height="4.44"/><rect class="cls-4" x="41.49" y="8.17" width="20.74" height="1.2"/><rect class="cls-1" x="41.49" y="5.82" width="20.74" height="2.35"/><rect class="cls-1" x="48.9" y="28.82" width="5.91" height="7.22" rx="0.38"/><rect class="cls-3" x="41.49" y="30.21" width="20.74" height="4.44"/><rect class="cls-4" x="41.49" y="33.44" width="20.74" height="1.2"/><rect class="cls-1" x="41.49" y="31.1" width="20.74" height="2.35"/><rect class="cls-1" x="28.21" y="3.54" width="5.91" height="7.22" rx="0.38"/><rect class="cls-3" x="20.79" y="4.93" width="20.74" height="4.44"/><rect class="cls-4" x="20.79" y="8.17" width="20.74" height="1.2"/><rect class="cls-1" x="20.79" y="5.82" width="20.74" height="2.35"/><rect class="cls-1" x="28.21" y="28.82" width="5.91" height="7.22" rx="0.38"/><rect class="cls-3" x="20.79" y="30.21" width="20.74" height="4.44"/><rect class="cls-4" x="20.79" y="33.44" width="20.74" height="1.2"/><rect class="cls-1" x="20.79" y="31.1" width="20.74" height="2.35"/><path class="cls-1" d="M1120.14,382.61c-136.6-1.83-257.25-23.69-368.88-66.84-98.74-38.18-178.86-88-256.35-136.14C354.6,92.42,222.07,10,0,9.23l0-4.43c223.28.82,356.33,83.51,497.19,171.07,156.8,97.46,319,198.24,623,202.31Z"/><g class="cls-5"><path class="cls-4" d="M1120.14,385.85C983.54,384,862.89,362.16,751.26,319c-98.74-38.18-178.86-88-256.35-136.14C354.6,95.66,222.07,13.28,0,12.47L.06,8c223.28.82,356.33,83.52,497.19,171.07,156.8,97.46,319,198.24,623,202.32Z"/><path class="cls-3" d="M1120.14,379.06c-136.6-1.83-257.25-23.7-368.88-66.85-98.74-38.17-178.86-88-256.35-136.13C354.6,88.86,222.07,6.48,0,5.67l0-4.43c223.28.82,356.33,83.52,497.19,171.07,156.8,97.47,319,198.25,623,202.32Z"/></g><path class="cls-1" d="M1120.14,407.87c-136.6-1.82-257.25-23.69-368.88-66.84-98.74-38.18-178.86-88-256.35-136.14C354.6,117.68,222.07,35.3,0,34.49l0-4.43c223.28.82,356.33,83.52,497.19,171.07,156.8,97.46,319,198.24,623,202.31Z"/><g class="cls-6"><path class="cls-4" d="M1120.14,411.12c-136.6-1.83-257.25-23.7-368.88-66.85-98.74-38.17-178.86-88-256.35-136.14C354.6,120.92,222.07,38.54,0,37.73l0-4.43c223.28.82,356.33,83.52,497.19,171.07,156.8,97.46,319,198.25,623,202.32Z"/><path class="cls-3" d="M1120.14,404.32c-136.6-1.83-257.25-23.7-368.88-66.85-98.74-38.17-178.86-88-256.35-136.13C354.6,114.12,222.07,31.74,0,30.94l0-4.43c223.28.81,356.33,83.51,497.19,171.06,156.8,97.47,319,198.25,623,202.32Z"/></g></g></g></svg>