<svg xmlns="http://www.w3.org/2000/svg" xmlns:xlink="http://www.w3.org/1999/xlink" viewBox="0 0 1120.15 412.29"><defs><style>.cls-1{fill:#c3c3c3;}.cls-2{fill:#b1711b;}.cls-3{clip-path:url(#clip-path);}.cls-4{fill:#989898;}.cls-5{fill:#b4b4b4;}.cls-6{clip-path:url(#clip-path-2);}</style><clipPath id="clip-path"><path class="cls-1" d="M1120.1,382.61c-136.6-1.83-257.26-23.69-368.88-66.84-98.75-38.18-178.87-88-256.35-136.14C354.56,92.42,222,10,0,9.23L0,4.8c223.28.82,356.33,83.51,497.19,171.07C654,273.33,816.15,374.11,1120.15,378.18Z"/></clipPath><clipPath id="clip-path-2"><path class="cls-1" d="M1120.1,407.87C983.5,406.05,862.84,384.18,751.22,341c-98.75-38.18-178.87-88-256.35-136.14C354.56,117.68,222,35.3,0,34.49l0-4.43c223.28.82,356.33,83.52,497.19,171.07C654,298.59,816.15,399.37,1120.15,403.44Z"/></clipPath></defs><g id="Camada_2" data-name="Camada 2"><g id="Trilhos"><rect class="cls-2" x="53.18" y="19.23" width="38.75" height="7.44" transform="translate(46.9 94.59) rotate(-87.84)"/><rect class="cls-1" x="70.08" y="6.71" width="5.91" height="7.22" rx="0.38" transform="translate(0.44 -2.74) rotate(2.16)"/><rect class="cls-1" x="69.12" y="31.97" width="5.91" height="7.22" rx="0.38" transform="translate(1.39 -2.69) rotate(2.16)"/><rect class="cls-2" x="73.98" y="21.06" width="38.75" height="7.44" transform="translate(59.56 115.26) rotate(-84.39)"/><rect class="cls-1" x="91.58" y="9.13" width="5.91" height="7.22" rx="0.38" transform="translate(1.7 -9.19) rotate(5.61)"/><rect class="cls-1" x="89.1" y="34.29" width="5.91" height="7.22" rx="0.38" transform="translate(4.15 -8.82) rotate(5.61)"/><rect class="cls-2" x="364.19" y="119.4" width="38.75" height="7.44" transform="translate(87.59 396.39) rotate(-60.51)"/><rect class="cls-1" x="386.03" y="109.93" width="5.91" height="7.22" rx="0.38" transform="translate(106.28 -176.77) rotate(29.49)"/><rect class="cls-1" x="375.21" y="129.05" width="5.91" height="7.22" rx="0.38" transform="translate(114.29 -168.97) rotate(29.49)"/><rect class="cls-2" x="985.3" y="382.34" width="38.75" height="7.44" transform="translate(572.93 1371.97) rotate(-87.37)"/><rect class="cls-1" x="1002.3" y="369.83" width="5.91" height="7.22" rx="0.38" transform="translate(18.19 -45.72) rotate(2.63)"/><rect class="cls-1" x="1001.14" y="395.08" width="5.91" height="7.22" rx="0.38" transform="translate(19.35 -45.64) rotate(2.63)"/><rect class="cls-2" x="6.61" width="7.44" height="38.75"/><rect class="cls-1" x="7.37" y="3.4" width="5.91" height="7.22" rx="0.38"/><rect class="cls-1" x="7.37" y="28.67" width="5.91" height="7.22" rx="0.38"/><rect class="cls-2" x="27.4" y="1.12" width="7.44" height="38.75"/><rect class="cls-1" x="28.16" y="4.24" width="5.91" height="7.22" rx="0.38"/><rect class="cls-1" x="28.16" y="29.17" width="5.91" height="7.22" rx="0.38"/><rect class="cls-2" x="48.12" y="1.64" width="7.44" height="38.75"/><rect class="cls-1" x="48.91" y="5.01" width="5.91" height="7.22" rx="0.38"/><rect class="cls-1" x="48.91" y="30.29" width="5.91" height="7.22" rx="0.38"/><rect class="cls-2" x="1085.29" y="372.6" width="7.44" height="38.75"/><rect class="cls-1" x="1086.05" y="375.73" width="5.91" height="7.22" rx="0.38"/><rect class="cls-1" x="1086.05" y="401.01" width="5.91" height="7.22" rx="0.38"/><rect class="cls-2" x="94.72" y="23.77" width="38.75" height="7.44" transform="translate(73.68 137.67) rotate(-83.4)"/><rect class="cls-1" x="112.59" y="11.32" width="5.91" height="7.22" rx="0.38" transform="translate(2.48 -13.18) rotate(6.6)"/><rect class="cls-1" x="109.68" y="36.43" width="5.91" height="7.22" rx="0.38" transform="translate(5.35 -12.68) rotate(6.6)"/><rect class="cls-2" x="115.46" y="27.41" width="38.75" height="7.44" transform="translate(85.17 160.29) rotate(-81.96)"/><rect class="cls-1" x="133.65" y="15" width="5.91" height="7.22" rx="0.38" transform="translate(3.94 -18.91) rotate(8.04)"/><rect class="cls-1" x="130.11" y="40.03" width="5.91" height="7.22" rx="0.38" transform="translate(7.41 -18.17) rotate(8.04)"/><rect class="cls-2" x="136.21" y="31.08" width="38.75" height="7.44" transform="translate(93.91 181.81) rotate(-79.85)"/><rect class="cls-1" x="154.75" y="19.3" width="5.91" height="7.22" rx="0.38" transform="translate(6.51 -27.43) rotate(10.15)"/><rect class="cls-1" x="150.3" y="44.18" width="5.91" height="7.22" rx="0.38" transform="translate(10.82 -26.26) rotate(10.15)"/><rect class="cls-2" x="156.95" y="35.8" width="38.75" height="7.44" transform="translate(101.11 203.81) rotate(-78.04)"/><rect class="cls-1" x="175.97" y="23.85" width="5.91" height="7.22" rx="0.38" transform="translate(9.58 -36.5) rotate(11.96)"/><rect class="cls-1" x="170.73" y="48.57" width="5.91" height="7.22" rx="0.38" transform="translate(14.59 -34.87) rotate(11.96)"/><rect class="cls-2" x="177.51" y="40.89" width="38.75" height="7.44" transform="translate(102.9 223.27) rotate(-75.02)"/><rect class="cls-1" x="197.05" y="29.31" width="5.91" height="7.22" rx="0.38" transform="translate(15.31 -50.59) rotate(14.98)"/><rect class="cls-1" x="190.52" y="53.73" width="5.91" height="7.22" rx="0.38" transform="matrix(0.97, 0.26, -0.26, 0.97, 21.4, -48.07)"/><rect class="cls-2" x="198.63" y="46.51" width="38.75" height="7.44" transform="translate(111.72 247.08) rotate(-74.61)"/><rect class="cls-1" x="218.3" y="34.76" width="5.91" height="7.22" rx="0.38" transform="matrix(0.96, 0.27, -0.27, 0.96, 18.12, -57.34)"/><rect class="cls-1" x="211.6" y="59.13" width="5.91" height="7.22" rx="0.38" transform="translate(24.34 -54.69) rotate(15.39)"/><rect class="cls-2" x="219.2" y="53.25" width="38.75" height="7.44" transform="translate(108.2 264.74) rotate(-71.32)"/><rect class="cls-1" x="239.5" y="41.89" width="5.91" height="7.22" rx="0.38" transform="matrix(0.95, 0.32, -0.32, 0.95, 27.34, -75.25)"/><rect class="cls-1" x="231.4" y="65.83" width="5.91" height="7.22" rx="0.38" transform="translate(34.58 -71.39) rotate(18.68)"/><rect class="cls-2" x="238.52" y="61.14" width="38.75" height="7.44" transform="translate(113.96 288.46) rotate(-71.35)"/><rect class="cls-1" x="258.97" y="49.27" width="5.91" height="7.22" rx="0.38" transform="translate(30.67 -80.99) rotate(18.65)"/><rect class="cls-1" x="250.89" y="73.22" width="5.91" height="7.22" rx="0.38" transform="translate(37.91 -77.15) rotate(18.65)"/><rect class="cls-2" x="260.49" y="69.81" width="38.75" height="7.44" transform="translate(108.37 306.59) rotate(-68.37)"/><rect class="cls-1" x="281.46" y="58.43" width="5.91" height="7.22" rx="0.38" transform="translate(42.89 -100.46) rotate(21.63)"/><rect class="cls-1" x="272.9" y="80.03" width="5.91" height="7.22" rx="0.38" transform="translate(50.24 -95.78) rotate(21.63)"/><rect class="cls-2" x="281.41" y="78.54" width="38.75" height="7.44" transform="translate(111.79 330.28) rotate(-67.99)"/><rect class="cls-1" x="302.34" y="67.47" width="5.91" height="7.22" rx="0.38" transform="translate(48.9 -109.25) rotate(22.01)"/><rect class="cls-1" x="293.66" y="88.95" width="5.91" height="7.22" rx="0.38" transform="translate(56.31 -104.43) rotate(22.01)"/><rect class="cls-2" x="302.15" y="88.15" width="38.75" height="7.44" transform="translate(108.8 349.87) rotate(-66.44)"/><rect class="cls-1" x="323.38" y="77.22" width="5.91" height="7.22" rx="0.38" transform="translate(59.51 -123.7) rotate(23.56)"/><rect class="cls-1" x="314.17" y="98.81" width="5.91" height="7.22" rx="0.38" transform="translate(67.37 -118.22) rotate(23.56)"/><rect class="cls-2" x="322.5" y="97.96" width="38.75" height="7.44" transform="translate(102.57 366.15) rotate(-64.42)"/><rect class="cls-1" x="343.6" y="88.28" width="5.91" height="7.22" rx="0.38" transform="translate(73.63 -140.61) rotate(25.58)"/><rect class="cls-1" x="333.74" y="108.88" width="5.91" height="7.22" rx="0.38" transform="translate(81.55 -134.33) rotate(25.58)"/><rect class="cls-2" x="343.43" y="108.34" width="38.75" height="7.44" transform="translate(107.63 393.25) rotate(-64.94)"/><rect class="cls-1" x="364.7" y="98.06" width="5.91" height="7.22" rx="0.38" transform="translate(77.67 -146.15) rotate(25.06)"/><rect class="cls-1" x="355.27" y="118.24" width="5.91" height="7.22" rx="0.38" transform="translate(85.33 -140.25) rotate(25.06)"/><rect class="cls-2" x="384.83" y="130.9" width="38.75" height="7.44" transform="translate(93.42 426.03) rotate(-61.58)"/><rect class="cls-1" x="406.25" y="121.77" width="5.91" height="7.22" rx="0.38" transform="translate(109 -179.66) rotate(28.42)"/><rect class="cls-1" x="395.67" y="141.32" width="5.91" height="7.22" rx="0.38" transform="translate(117.03 -172.27) rotate(28.42)"/><rect class="cls-2" x="407" y="143.17" width="38.75" height="7.44" transform="translate(91.42 448.84) rotate(-61.04)"/><rect class="cls-1" x="428.28" y="134.48" width="5.91" height="7.22" rx="0.38" transform="translate(120.77 -191.52) rotate(28.96)"/><rect class="cls-1" x="417.67" y="153.66" width="5.91" height="7.22" rx="0.38" transform="translate(128.73 -183.99) rotate(28.96)"/><rect class="cls-2" x="426.81" y="155.21" width="38.75" height="7.44" transform="translate(89.12 470.12) rotate(-60.68)"/><rect class="cls-1" x="448.31" y="146.28" width="5.91" height="7.22" rx="0.38" transform="translate(131.21 -201.79) rotate(29.32)"/><rect class="cls-1" x="437.81" y="164.97" width="5.91" height="7.22" rx="0.38" transform="translate(139.02 -194.25) rotate(29.32)"/><rect class="cls-2" x="447.66" y="168.55" width="38.75" height="7.44" transform="translate(87.81 494.73) rotate(-60.62)"/><rect class="cls-1" x="469.45" y="159.11" width="5.91" height="7.22" rx="0.38" transform="translate(140.57 -210.82) rotate(29.38)"/><rect class="cls-1" x="458.7" y="178.2" width="5.91" height="7.22" rx="0.38" transform="translate(148.55 -203.09) rotate(29.38)"/><rect class="cls-2" x="467.85" y="181.28" width="38.75" height="7.44" transform="translate(85.72 517.27) rotate(-60.4)"/><rect class="cls-1" x="489.71" y="171.8" width="5.91" height="7.22" rx="0.38" transform="translate(150.92 -220.45) rotate(29.6)"/><rect class="cls-1" x="478.72" y="191.15" width="5.91" height="7.22" rx="0.38" transform="translate(159.05 -212.49) rotate(29.6)"/><rect class="cls-2" x="488.54" y="194.38" width="38.75" height="7.44" transform="translate(95.01 554.08) rotate(-62.07)"/><rect class="cls-1" x="510.05" y="185.01" width="5.91" height="7.22" rx="0.38" transform="translate(148.08 -218.3) rotate(27.93)"/><rect class="cls-1" x="499.96" y="204.04" width="5.91" height="7.22" rx="0.38" transform="translate(155.82 -211.36) rotate(27.93)"/><rect class="cls-2" x="509.87" y="206.75" width="38.75" height="7.44" transform="translate(87.04 569.44) rotate(-60.76)"/><rect class="cls-1" x="531.47" y="197.59" width="5.91" height="7.22" rx="0.38" transform="translate(166.41 -235.44) rotate(29.24)"/><rect class="cls-1" x="520.84" y="216.58" width="5.91" height="7.22" rx="0.38" transform="translate(174.33 -227.83) rotate(29.24)"/><rect class="cls-2" x="529.91" y="218.86" width="38.75" height="7.44" transform="translate(88.68 595.54) rotate(-61.06)"/><rect class="cls-1" x="550.97" y="210.58" width="5.91" height="7.22" rx="0.38" transform="translate(172.84 -241.31) rotate(28.94)"/><rect class="cls-1" x="540.34" y="229.8" width="5.91" height="7.22" rx="0.38" transform="translate(180.81 -233.77) rotate(28.94)"/><rect class="cls-2" x="551.06" y="231.51" width="38.75" height="7.44" transform="translate(95.16 628.73) rotate(-62.03)"/><rect class="cls-1" x="572.37" y="222.42" width="5.91" height="7.22" rx="0.38" transform="translate(173.2 -243.42) rotate(27.97)"/><rect class="cls-1" x="562.07" y="241.82" width="5.91" height="7.22" rx="0.38" transform="translate(181.09 -236.32) rotate(27.97)"/><rect class="cls-2" x="571.81" y="244.29" width="38.75" height="7.44" transform="translate(110.71 672.45) rotate(-64.22)"/><rect class="cls-1" x="593.1" y="234.31" width="5.91" height="7.22" rx="0.38" transform="translate(162.84 -235.59) rotate(25.78)"/><rect class="cls-1" x="583.52" y="254.12" width="5.91" height="7.22" rx="0.38" transform="translate(170.5 -229.45) rotate(25.78)"/><rect class="cls-2" x="592.82" y="256.33" width="38.75" height="7.44" transform="translate(106.39 691.98) rotate(-63.51)"/><rect class="cls-1" x="614.2" y="246.48" width="5.91" height="7.22" rx="0.38" transform="translate(176.34 -249.01) rotate(26.49)"/><rect class="cls-1" x="604.26" y="266.43" width="5.91" height="7.22" rx="0.38" transform="translate(184.19 -242.49) rotate(26.49)"/><rect class="cls-2" x="613.26" y="267.44" width="38.75" height="7.44" transform="translate(123.27 734.09) rotate(-65.47)"/><rect class="cls-1" x="634.41" y="257.34" width="5.91" height="7.22" rx="0.38" transform="translate(165.89 -241.09) rotate(24.53)"/><rect class="cls-1" x="625.06" y="277.84" width="5.91" height="7.22" rx="0.38" transform="translate(173.56 -235.36) rotate(24.53)"/><rect class="cls-2" x="634.32" y="278.38" width="38.75" height="7.44" transform="translate(142.95 778.11) rotate(-67.5)"/><rect class="cls-1" x="655.12" y="267.9" width="5.91" height="7.22" rx="0.38" transform="translate(153.96 -231.13) rotate(22.5)"/><rect class="cls-1" x="646.56" y="288.57" width="5.91" height="7.22" rx="0.38" transform="translate(161.21 -226.28) rotate(22.5)"/><rect class="cls-2" x="654.78" y="288.46" width="38.75" height="7.44" transform="translate(127.25 782.84) rotate(-65.33)"/><rect class="cls-1" x="675.76" y="278.62" width="5.91" height="7.22" rx="0.38" transform="translate(179.75 -257.53) rotate(24.67)"/><rect class="cls-1" x="666.25" y="299.33" width="5.91" height="7.22" rx="0.38" transform="translate(187.53 -251.67) rotate(24.67)"/><rect class="cls-2" x="675.52" y="298.7" width="38.75" height="7.44" transform="translate(151.44 830.62) rotate(-67.7)"/><rect class="cls-1" x="696.2" y="288.42" width="5.91" height="7.22" rx="0.38" transform="translate(163.07 -243.43) rotate(22.3)"/><rect class="cls-1" x="687.61" y="309.36" width="5.91" height="7.22" rx="0.38" transform="translate(170.38 -238.61) rotate(22.3)"/><rect class="cls-2" x="696.26" y="307.83" width="38.75" height="7.44" transform="translate(146.19 845.34) rotate(-66.67)"/><rect class="cls-1" x="717.36" y="297.1" width="5.91" height="7.22" rx="0.38" transform="translate(177.94 -260.64) rotate(23.33)"/><rect class="cls-1" x="708.17" y="318.41" width="5.91" height="7.22" rx="0.38" transform="translate(185.63 -255.26) rotate(23.33)"/><rect class="cls-2" x="717.11" y="316.92" width="38.75" height="7.44" transform="translate(169.66 889.78) rotate(-68.64)"/><rect class="cls-1" x="737.87" y="305.94" width="5.91" height="7.22" rx="0.38" transform="translate(163.61 -248.54) rotate(21.36)"/><rect class="cls-1" x="729.32" y="327.8" width="5.91" height="7.22" rx="0.38" transform="translate(170.98 -243.92) rotate(21.36)"/><rect class="cls-2" x="737.75" y="324.94" width="38.75" height="7.44" transform="translate(173.82 912.62) rotate(-68.5)"/><rect class="cls-1" x="758.61" y="313.77" width="5.91" height="7.22" rx="0.38" transform="matrix(0.93, 0.37, -0.37, 0.93, 169.34, -257.06)"/><rect class="cls-1" x="749.79" y="336.16" width="5.91" height="7.22" rx="0.38" transform="translate(176.93 -252.26) rotate(21.5)"/><rect class="cls-2" x="758.49" y="332.65" width="38.75" height="7.44" transform="translate(208.35 963.97) rotate(-71.16)"/><rect class="cls-1" x="778.78" y="321.42" width="5.91" height="7.22" rx="0.38" transform="translate(146.82 -235) rotate(18.84)"/><rect class="cls-1" x="771.19" y="343.67" width="5.91" height="7.22" rx="0.38" transform="translate(153.59 -231.35) rotate(18.84)"/><rect class="cls-2" x="779.28" y="339.2" width="38.75" height="7.44" transform="translate(230.19 1000.4) rotate(-72.39)"/><rect class="cls-1" x="799.3" y="327.97" width="5.91" height="7.22" rx="0.38" transform="translate(137.9 -227.17) rotate(17.61)"/><rect class="cls-1" x="792.02" y="350.89" width="5.91" height="7.22" rx="0.38" transform="translate(144.5 -223.89) rotate(17.61)"/><rect class="cls-2" x="799.98" y="345.8" width="38.75" height="7.44" transform="translate(254.45 1038.28) rotate(-73.74)"/><rect class="cls-1" x="819.74" y="334.45" width="5.91" height="7.22" rx="0.38" transform="translate(127.52 -216.78) rotate(16.26)"/><rect class="cls-1" x="812.98" y="357.61" width="5.91" height="7.22" rx="0.38" transform="translate(133.74 -213.96) rotate(16.26)"/><rect class="cls-2" x="820.72" y="352.03" width="38.75" height="7.44" transform="translate(292.67 1085.57) rotate(-76.08)"/><rect class="cls-1" x="840.05" y="340.38" width="5.91" height="7.22" rx="0.38" transform="translate(107.53 -192.72) rotate(13.92)"/><rect class="cls-1" x="834.24" y="363.81" width="5.91" height="7.22" rx="0.38" transform="translate(112.99 -190.64) rotate(13.92)"/><rect class="cls-2" x="841.46" y="357.5" width="38.75" height="7.44" transform="translate(320.53 1122.53) rotate(-77.4)"/><rect class="cls-1" x="860.67" y="345.13" width="5.91" height="7.22" rx="0.38" transform="translate(96.87 -179.99) rotate(12.6)"/><rect class="cls-1" x="855.28" y="369.27" width="5.91" height="7.22" rx="0.38" transform="translate(102.01 -178.23) rotate(12.6)"/><rect class="cls-2" x="862.21" y="362.54" width="38.75" height="7.44" transform="translate(347.48 1157.5) rotate(-78.54)"/><rect class="cls-1" x="881.13" y="350.26" width="5.91" height="7.22" rx="0.38" transform="translate(87.93 -168.59) rotate(11.46)"/><rect class="cls-1" x="876.21" y="374.54" width="5.91" height="7.22" rx="0.38" transform="translate(92.66 -167.13) rotate(11.46)"/><rect class="cls-2" x="882.95" y="366.48" width="38.75" height="7.44" transform="translate(391.37 1200.96) rotate(-80.71)"/><rect class="cls-1" x="901.41" y="354.12" width="5.91" height="7.22" rx="0.38" transform="translate(69.58 -141.24) rotate(9.29)"/><rect class="cls-1" x="897.33" y="379.06" width="5.91" height="7.22" rx="0.38" transform="translate(73.55 -140.26) rotate(9.29)"/><rect class="cls-2" x="903.72" y="370.79" width="38.75" height="7.44" transform="translate(426.95 1238.34) rotate(-82.21)"/><rect class="cls-1" x="921.85" y="358.38" width="5.91" height="7.22" rx="0.38" transform="translate(57.59 -121.99) rotate(7.79)"/><rect class="cls-1" x="918.43" y="383.42" width="5.91" height="7.22" rx="0.38" transform="translate(60.95 -121.29) rotate(7.79)"/><rect class="cls-2" x="924.44" y="374.43" width="38.75" height="7.44" transform="translate(482.07 1284.01) rotate(-84.83)"/><rect class="cls-1" x="941.99" y="361.96" width="5.91" height="7.22" rx="0.38" transform="translate(36.82 -83.74) rotate(5.17)"/><rect class="cls-1" x="939.71" y="387.13" width="5.91" height="7.22" rx="0.38" transform="translate(39.08 -83.43) rotate(5.17)"/><rect class="cls-2" x="945.18" y="377.56" width="38.75" height="7.44" transform="translate(514.88 1315.9) rotate(-85.88)"/><rect class="cls-1" x="962.5" y="365.06" width="5.91" height="7.22" rx="0.38" transform="translate(29.02 -68.49) rotate(4.12)"/><rect class="cls-1" x="960.69" y="390.27" width="5.91" height="7.22" rx="0.38" transform="translate(30.83 -68.3) rotate(4.12)"/><rect class="cls-2" x="965.92" y="380.1" width="38.75" height="7.44" transform="translate(535.55 1340.82) rotate(-86.11)"/><rect class="cls-1" x="983.2" y="367.6" width="5.91" height="7.22" rx="0.38" transform="translate(27.44 -66.01) rotate(3.89)"/><rect class="cls-1" x="981.48" y="392.82" width="5.91" height="7.22" rx="0.38" transform="translate(29.14 -65.84) rotate(3.89)"/><rect class="cls-2" x="1004.56" y="383.99" width="38.95" height="8.09" transform="translate(609.8 1401.76) rotate(-88.53)"/><rect class="cls-1" x="1021.41" y="371.42" width="5.91" height="7.22" rx="0.38" transform="translate(9.98 -26.21) rotate(1.47)"/><rect class="cls-1" x="1020.76" y="396.68" width="5.91" height="7.22" rx="0.38" transform="translate(10.63 -26.19) rotate(1.47)"/><rect class="cls-2" x="1042.56" y="370.32" width="8.09" height="38.95"/><rect class="cls-1" x="1043.65" y="373.55" width="5.91" height="7.22" rx="0.38"/><rect class="cls-1" x="1043.65" y="398.83" width="5.91" height="7.22" rx="0.38"/><rect class="cls-2" x="1064.55" y="371.41" width="7.44" height="38.75"/><rect class="cls-1" x="1065.31" y="374.54" width="5.91" height="7.22" rx="0.38"/><rect class="cls-1" x="1065.31" y="399.82" width="5.91" height="7.22" rx="0.38"/><rect class="cls-2" x="1106.03" y="373.54" width="7.44" height="38.75"/><rect class="cls-1" x="1106.8" y="377.16" width="5.91" height="7.22" rx="0.38"/><rect class="cls-1" x="1106.8" y="402.44" width="5.91" height="7.22" rx="0.38"/><path class="cls-1" d="M1120.1,382.61c-136.6-1.83-257.26-23.69-368.88-66.84-98.75-38.18-178.87-88-256.35-136.14C354.56,92.42,222,10,0,9.23L0,4.8c223.28.82,356.33,83.51,497.19,171.07C654,273.33,816.15,374.11,1120.15,378.18Z"/><g class="cls-3"><path class="cls-4" d="M1120.1,385.85C983.5,384,862.84,362.16,751.22,319c-98.75-38.18-178.87-88-256.35-136.14C354.56,95.66,222,13.28,0,12.47L0,8c223.28.82,356.33,83.52,497.19,171.07C654,276.57,816.15,377.35,1120.15,381.43Z"/><path class="cls-5" d="M1120.1,379.06c-136.6-1.83-257.26-23.7-368.88-66.85-98.75-38.17-178.87-88-256.35-136.13C354.56,88.86,222,6.48,0,5.67L0,1.24c223.28.82,356.33,83.52,497.19,171.07C654,269.78,816.15,370.56,1120.15,374.63Z"/></g><path class="cls-1" d="M1120.1,407.87C983.5,406.05,862.84,384.18,751.22,341c-98.75-38.18-178.87-88-256.35-136.14C354.56,117.68,222,35.3,0,34.49l0-4.43c223.28.82,356.33,83.52,497.19,171.07C654,298.59,816.15,399.37,1120.15,403.44Z"/><g class="cls-6"><path class="cls-4" d="M1120.1,411.12c-136.6-1.83-257.26-23.7-368.88-66.85-98.75-38.17-178.87-88-256.35-136.14C354.56,120.92,222,38.54,0,37.73L0,33.3c223.28.82,356.33,83.52,497.19,171.07C654,301.83,816.15,402.62,1120.15,406.69Z"/><path class="cls-5" d="M1120.1,404.32c-136.6-1.83-257.26-23.7-368.88-66.85-98.75-38.17-178.87-88-256.35-136.13C354.56,114.12,222,31.74,0,30.94l0-4.43C223.3,27.32,356.35,110,497.21,197.57,654,295,816.15,395.82,1120.15,399.89Z"/></g></g></g></svg>