<svg xmlns="http://www.w3.org/2000/svg" viewBox="0 0 62.23 38.75"><defs><style>.cls-1{fill:#b2711b;}.cls-2{fill:#c4c4c4;}.cls-3{fill:#b5b5b5;}.cls-4{fill:#999;}</style></defs><g id="Camada_2" data-name="Camada 2"><g id="Camada_1-2" data-name="Camada 1"><rect class="cls-1" x="6.65" width="7.44" height="38.75"/><rect class="cls-2" x="7.41" y="3.13" width="5.91" height="7.22" rx="0.38"/><rect class="cls-3" y="4.52" width="20.74" height="4.44"/><rect class="cls-4" y="7.75" width="20.74" height="1.2"/><rect class="cls-2" y="5.4" width="20.74" height="2.35"/><rect class="cls-2" x="7.41" y="28.4" width="5.91" height="7.22" rx="0.38"/><rect class="cls-3" y="29.79" width="20.74" height="4.44"/><rect class="cls-4" y="33.03" width="20.74" height="1.2"/><rect class="cls-2" y="30.68" width="20.74" height="2.35"/><rect class="cls-1" x="27.4" width="7.44" height="38.75"/><rect class="cls-2" x="28.16" y="3.13" width="5.91" height="7.22" rx="0.38"/><rect class="cls-3" x="20.74" y="4.52" width="20.74" height="4.44"/><rect class="cls-4" x="20.74" y="7.75" width="20.74" height="1.2"/><rect class="cls-2" x="20.74" y="5.4" width="20.74" height="2.35"/><rect class="cls-2" x="28.16" y="28.4" width="5.91" height="7.22" rx="0.38"/><rect class="cls-3" x="20.74" y="29.79" width="20.74" height="4.44"/><rect class="cls-4" x="20.74" y="33.03" width="20.74" height="1.2"/><rect class="cls-2" x="20.74" y="30.68" width="20.74" height="2.35"/><rect class="cls-1" x="48.14" width="7.44" height="38.75"/><rect class="cls-2" x="48.9" y="3.13" width="5.91" height="7.22" rx="0.38"/><rect class="cls-3" x="41.49" y="4.52" width="20.74" height="4.44"/><rect class="cls-4" x="41.49" y="7.75" width="20.74" height="1.2"/><rect class="cls-2" x="41.49" y="5.4" width="20.74" height="2.35"/><rect class="cls-2" x="48.9" y="28.4" width="5.91" height="7.22" rx="0.38"/><rect class="cls-3" x="41.49" y="29.79" width="20.74" height="4.44"/><rect class="cls-4" x="41.49" y="33.03" width="20.74" height="1.2"/><rect class="cls-2" x="41.49" y="30.68" width="20.74" height="2.35"/></g></g></svg>