<svg xmlns="http://www.w3.org/2000/svg" viewBox="0 0 62.23 38.75"><defs><style>.cls-1{isolation:isolate;}.cls-2{fill:#b2711b;}.cls-3,.cls-4{fill:#9e5f13;}.cls-4{opacity:0.3;mix-blend-mode:multiply;}.cls-5{fill:#c4c4c4;}.cls-6{fill:#b5b5b5;}.cls-7{fill:#999;}</style></defs><g class="cls-1"><g id="Camada_2" data-name="Camada 2"><g id="Camada_1-2" data-name="Camada 1"><rect class="cls-2" x="6.65" width="7.44" height="38.75"/><path class="cls-3" d="M13.83,26.2c-.21.05-.32.25-.33.57s0,.55,0,.81a7.48,7.48,0,0,1-.08,1.77c-.06.26-.15.52-.23.76s-.15.47-.21.7a8.51,8.51,0,0,0-.15,1.81V33c0,.69-.06,1.4-.11,2.08s-.12,1.57-.12,2.37c0,.43,0,.86.07,1.29h.19a21.29,21.29,0,0,1,.05-3.66C13,34.41,13,33.7,13,33v-.39a8.33,8.33,0,0,1,.15-1.79,6,6,0,0,1,.21-.69,6.77,6.77,0,0,0,.22-.77,7.18,7.18,0,0,0,.09-1.79c0-.26,0-.54,0-.8s.08-.43.21-.47a.11.11,0,0,1,.1,0,.2.2,0,0,1,.09.05v-.16h0A.46.46,0,0,0,13.83,26.2Z"/><path class="cls-3" d="M13.91,35.52l0,.11a16.18,16.18,0,0,0-.26,2.86v.26h.19A15.89,15.89,0,0,1,14,35.83a.78.78,0,0,1,0,.34L14,38.75h.09V35.63l-.05,0Z"/><path class="cls-3" d="M13.57,30.33a2,2,0,0,0-.1.68l-.1,7.74h.18L13.66,31a1.83,1.83,0,0,1,.09-.65.67.67,0,0,1,.33-.35,14,14,0,0,0,0,3.77V29.87A.83.83,0,0,0,13.57,30.33Z"/><path class="cls-3" d="M13.09,5.28c-.12-.44-.27-.87-.42-1.29s-.22-.59-.31-.88A16.54,16.54,0,0,1,11.78,0h-.26a5.35,5.35,0,0,0-.11,1.13,14.11,14.11,0,0,0,.69,3.71l.3,1.1a36.21,36.21,0,0,1,.91,7.79,134.77,134.77,0,0,1-.22,13.78A11.47,11.47,0,0,1,12.91,29c-.08.34-.2.68-.31,1s-.18.53-.25.81A13.32,13.32,0,0,0,12,33.75l-.2,5H12l.2-5a13.13,13.13,0,0,1,.32-2.86c.08-.27.17-.55.26-.81s.22-.68.3-1a9.84,9.84,0,0,0,.19-1.53,135,135,0,0,0,.22-13.79,36.37,36.37,0,0,0-.92-7.81c-.09-.36-.19-.74-.3-1.1a11.56,11.56,0,0,1-.64-4.4,13.84,13.84,0,0,0,.54,2.71c.09.3.2.6.3.89s.31.85.42,1.28a13.34,13.34,0,0,1,.28,1.51A48.8,48.8,0,0,1,14,15.1c0,.66-.06,1.32-.1,2s-.09,1.47-.1,2.22,0,1.61.07,2.41L14,25.78l.08,0V23.32L14,21.69c0-.79-.07-1.6-.06-2.4s.05-1.49.1-2.22c0-.22,0-.45,0-.67V12.74c-.12-2-.42-4-.72-5.94A13.51,13.51,0,0,0,13.09,5.28Z"/><path class="cls-3" d="M13.53,5.55c0-.24-.07-.48-.1-.71s0-.34-.07-.51c-.09-.6-.22-1.21-.36-1.81A18.18,18.18,0,0,1,12.57,0h-.19a17.09,17.09,0,0,0,.44,2.54c.13.59.27,1.2.36,1.8l.06.51c0,.23.06.47.11.71a15.59,15.59,0,0,0,.4,1.7c.13.44.25.89.34,1.34V7.79l-.15-.55C13.79,6.69,13.63,6.12,13.53,5.55Z"/><path class="cls-3" d="M13.67.36c0-.12,0-.24,0-.36h-.19c0,.12,0,.24,0,.36V.44a13.21,13.21,0,0,0,.47,3,.74.74,0,0,0,.14.27V3.21A13.07,13.07,0,0,1,13.67.43Z"/><path class="cls-3" d="M13.17,0H13a18.9,18.9,0,0,0,.51,3.52l.6,2.79V5.42l-.41-1.91A18.11,18.11,0,0,1,13.17,0Z"/><path class="cls-3" d="M13.94.48a.6.6,0,0,1-.07-.36V0h-.19V.12a.64.64,0,0,0,.09.41.44.44,0,0,0,.3.15h0V.55h0A.17.17,0,0,1,13.94.48Z"/><path class="cls-3" d="M12.25,27A58.72,58.72,0,0,0,13,16.62c-.07-1.69-.3-3.4-.52-5.05L11,0h-.19l1.54,11.58c.22,1.65.45,3.36.52,5A57.45,57.45,0,0,1,12.06,27a51.2,51.2,0,0,0-.67,11.8h.19A50.48,50.48,0,0,1,12.25,27Z"/><path class="cls-3" d="M12.4,15.58a8.1,8.1,0,0,0-.38-.92,6.91,6.91,0,0,1-.33-.79,9.32,9.32,0,0,1-.4-2.12L10.63,5.2A39.36,39.36,0,0,0,9.85,0H9.66a39.51,39.51,0,0,1,.78,5.21l.67,6.54a9,9,0,0,0,.39,2.15c.1.27.22.54.34.8s.27.6.37.91a7.56,7.56,0,0,1,.19,2.82c-.44,6.77-1.25,13.65-2,20.32h.19c.79-6.66,1.6-13.54,2-20.32A7.75,7.75,0,0,0,12.4,15.58Z"/><path class="cls-3" d="M7.92,11.42a7.4,7.4,0,0,1,.59,1.44c.06.21.09.43.13.64a4.15,4.15,0,0,0,.23,1,4.49,4.49,0,0,0,.38.76,5.43,5.43,0,0,1,.41.84,4.25,4.25,0,0,1,0,1.91l0,.19A19.27,19.27,0,0,0,10,25.38v.05h.08c.28,0,.47-.19.51-.51l.69-5.7a12.86,12.86,0,0,0,.12-2.91A12.37,12.37,0,0,0,10.91,14a8.16,8.16,0,0,1-.52-3.47c0-.23.09-.47.14-.7a3.65,3.65,0,0,0,.14-1.54,4.19,4.19,0,0,0-.5-1.18,5.49,5.49,0,0,1-.36-.73,6,6,0,0,1-.33-1.66L9,0H8.85l.44,4.76a6.25,6.25,0,0,0,.33,1.68,6.38,6.38,0,0,0,.37.74,3.84,3.84,0,0,1,.49,1.15,3.53,3.53,0,0,1-.14,1.51c-.05.23-.11.47-.14.71a8.2,8.2,0,0,0,.53,3.51,13.75,13.75,0,0,1,.54,2.26,12.8,12.8,0,0,1-.13,2.9l-.69,5.69a.45.45,0,0,1-.24.39,19.64,19.64,0,0,1-.37-7.12l0-.19a4.24,4.24,0,0,0,0-1.94,4.56,4.56,0,0,0-.42-.86,5.22,5.22,0,0,1-.37-.75,4.51,4.51,0,0,1-.22-.95c0-.21-.07-.43-.13-.65a7.92,7.92,0,0,0-.6-1.45c-.07-.16-.15-.31-.22-.47A14.27,14.27,0,0,1,6.65,5.76V7.45A13.6,13.6,0,0,0,7.7,11Z"/><path class="cls-3" d="M6.72,0c0,.2,0,.41-.07.61V2.88c.06-1,.15-1.94.26-2.88Z"/><path class="cls-3" d="M7.89,14.5a11.22,11.22,0,0,1,.39,3.27c0,1.41-.06,2.83-.2,4.24l0,.2a6.34,6.34,0,0,0,.27,3.34l.2.4a4.09,4.09,0,0,1,.23.47,5.34,5.34,0,0,1,.3,1.14,26.77,26.77,0,0,1-.5,11.19h.2a27,27,0,0,0,.48-11.2A4.93,4.93,0,0,0,9,26.39c-.07-.16-.16-.32-.24-.48s-.14-.26-.2-.4a6.24,6.24,0,0,1-.26-3.29l0-.21c.06-.59.1-1.18.13-1.77a24.38,24.38,0,0,0,.52,4.35,2.11,2.11,0,0,0,.31.9,3.51,3.51,0,0,0,.33.34l.25.26A2.47,2.47,0,0,1,10,28.28c0,.15-.06.31-.08.47a10.53,10.53,0,0,0,.16,3.17,10.76,10.76,0,0,1,.16,3.1,12.05,12.05,0,0,1-.41,1.65,8.78,8.78,0,0,0-.45,2.08h.19a8.17,8.17,0,0,1,.45-2.06A11.83,11.83,0,0,0,10.47,35a10.54,10.54,0,0,0-.17-3.12,10.73,10.73,0,0,1-.15-3.15c0-.15,0-.31.08-.47A2.51,2.51,0,0,0,10,26l-.26-.27a2.93,2.93,0,0,1-.3-.32,1.89,1.89,0,0,1-.3-.86,19.06,19.06,0,0,1-.46-5.53c0-.31.09-.62.14-.91a7.38,7.38,0,0,0,.11-2.48,7.65,7.65,0,0,0-.46-1.4l-1.17-2.9c-.21-.53-.42-1.06-.62-1.59v.51l.44,1.11,1.16,2.9a7.55,7.55,0,0,1,.46,1.39,7.15,7.15,0,0,1-.11,2.44c0,.3-.1.61-.14.92,0,.08,0,.17,0,.25,0-.51,0-1,0-1.52a11,11,0,0,0-.4-3.29,14.4,14.4,0,0,0-1-2.2l-.3-.58-.13-.26v.4l.25.48A14.64,14.64,0,0,1,7.89,14.5Z"/><path class="cls-3" d="M6.9,35.71a14.66,14.66,0,0,0,1-6c.12.87.24,1.73.33,2.59a8.28,8.28,0,0,1,.06.86,2.79,2.79,0,0,1-.15,1,4.56,4.56,0,0,1-.32.67l-.22.44a7.63,7.63,0,0,0-.44,1.51l-.41,2H6.9a12.66,12.66,0,0,0,1.61-5.8c.06-.6.13-1.29.13-2a6.29,6.29,0,0,0-.3-2,.66.66,0,0,0-.54-.5,3.19,3.19,0,0,1,.15-1,.38.38,0,0,1,.15,0,.71.71,0,0,1,.39.47,10.4,10.4,0,0,1,.36,3.27,16.87,16.87,0,0,1-.39,4.58c-.1.35-.22.7-.34,1a9.35,9.35,0,0,0-.52,2h.19a9.51,9.51,0,0,1,.52-1.93c.11-.34.23-.69.33-1a16.64,16.64,0,0,0,.4-4.6,10.59,10.59,0,0,0-.36-3.3.86.86,0,0,0-.49-.54.59.59,0,0,0-.35,0h0v0a5,5,0,0,0-.14,2c0,.11,0,.22,0,.32a14.49,14.49,0,0,1-.94,6l-.07.16v.5l0-.08ZM7,38.22l.3-1.45a7.32,7.32,0,0,1,.43-1.48L8,34.85a3.24,3.24,0,0,0,.17-.32A10.7,10.7,0,0,1,7,38.22ZM8.16,29a6.21,6.21,0,0,1,.29,2c0,.45,0,.92-.07,1.36v0c-.14-1.24-.31-2.49-.51-3.73A.63.63,0,0,1,8.16,29Z"/><path class="cls-3" d="M7.71,20a18,18,0,0,0,0-2.44,12.85,12.85,0,0,0-1.1-4v.47a12.18,12.18,0,0,1,.91,3.53,17.89,17.89,0,0,1,0,2.43l-.4,6.07c-.11,1.75-.23,3.53-.47,5.3v1.24a60.87,60.87,0,0,0,.66-6.54Z"/><path class="cls-3" d="M6.68,19.34a.53.53,0,0,0,0-.12v3.65l.09-1.31A8.7,8.7,0,0,0,6.68,19.34Z"/><path class="cls-3" d="M8.38,0H8.19a12,12,0,0,0,.47,4.26q.39,1.51.93,3v0a2.49,2.49,0,0,1,.18.7,2.57,2.57,0,0,1-.09.61c0,.06,0,.13,0,.19A7,7,0,0,0,9.54,10,6.15,6.15,0,0,0,10,13.23l.14.24a3.23,3.23,0,0,1,.25.49,2.69,2.69,0,0,1,.12.78l.26,4.39c0,.17,0,.35-.19.36s-.26-.15-.29-.3a7.38,7.38,0,0,1-.1-2.2,5.68,5.68,0,0,0-.34-2.85,5.63,5.63,0,0,0-.49-.81c-.13-.21-.27-.42-.39-.63a7.66,7.66,0,0,1-.71-2.78,10.14,10.14,0,0,0-.4-2.09c-.06-.17-.12-.34-.19-.51a6.42,6.42,0,0,1-.29-.84,5.86,5.86,0,0,1-.06-1.77L7.66,0H7.47L7.14,4.7c0,.29,0,.57,0,.86a4.14,4.14,0,0,0,.1.93,6.24,6.24,0,0,0,.3.86l.19.51a10.52,10.52,0,0,1,.4,2.07,7.62,7.62,0,0,0,.71,2.81,6.73,6.73,0,0,0,.4.63,6.63,6.63,0,0,1,.48.81A5.58,5.58,0,0,1,10,17a7.58,7.58,0,0,0,.1,2.23.47.47,0,0,0,.5.4.4.4,0,0,0,.36-.48l-.26-4.39a2.77,2.77,0,0,0-.12-.8,3.67,3.67,0,0,0-.27-.52l-.13-.23A6.08,6.08,0,0,1,9.73,10a6.73,6.73,0,0,1,.11-1.18c0-.07,0-.13,0-.19A2.74,2.74,0,0,0,10,8a2.39,2.39,0,0,0-.19-.73v0c-.36-1-.68-2-.93-3A12,12,0,0,1,8.38,0Z"/><path class="cls-3" d="M7.58,4.07c0,.21,0,.42,0,.62s0,.27,0,.4a2.41,2.41,0,0,0,.17,1A4.76,4.76,0,0,0,8,6.56,3.3,3.3,0,0,1,8.27,7a3.27,3.27,0,0,1,.22,1.11l.14,1.93a5.85,5.85,0,0,0,.26,1.54l.09.23.1-.23a3.23,3.23,0,0,0,.21-1.27c0-.12,0-.23,0-.35l0-1.73A5,5,0,0,0,9,6.66a6.08,6.08,0,0,0-.6-1.16,4.37,4.37,0,0,1-.67-1.44,2.43,2.43,0,0,0,0-.3H7.54C7.55,3.87,7.56,4,7.58,4.07Zm.18.63v0a8.74,8.74,0,0,0,.5.89,6.31,6.31,0,0,1,.6,1.15,5.17,5.17,0,0,1,.19,1.56l0,1.72c0,.12,0,.23,0,.35a3.75,3.75,0,0,1-.11,1A6.71,6.71,0,0,1,8.82,10L8.68,8.12A3.32,3.32,0,0,0,8.45,7a4.25,4.25,0,0,0-.27-.46A4.31,4.31,0,0,1,7.92,6a2.28,2.28,0,0,1-.17-1C7.75,5,7.76,4.83,7.76,4.7Z"/><rect class="cls-4" x="12.51" width="1.58" height="38.75"/><rect class="cls-4" x="6.65" width="0.78" height="38.75"/><rect class="cls-5" x="7.41" y="3.13" width="5.91" height="7.22" rx="0.38"/><rect class="cls-6" y="4.52" width="20.74" height="4.44"/><rect class="cls-7" y="7.75" width="20.74" height="1.2"/><rect class="cls-5" y="5.4" width="20.74" height="2.35"/><path class="cls-7" d="M8.37,4a.34.34,0,0,0,.33.2A.35.35,0,0,0,9,4Z"/><path class="cls-7" d="M9,3.84a.34.34,0,0,0-.34-.2.33.33,0,0,0-.33.2Z"/><path class="cls-7" d="M11.8,4.1a.42.42,0,0,0,.41,0,.23.23,0,0,0,.16-.29Z"/><path class="cls-7" d="M12.28,3.72a.44.44,0,0,0-.42,0A.23.23,0,0,0,11.7,4Z"/><path class="cls-7" d="M8.36,9.56a.28.28,0,0,0,.25.26A.41.41,0,0,0,9,9.7Z"/><path class="cls-7" d="M9.05,9.56A.29.29,0,0,0,8.8,9.3a.41.41,0,0,0-.39.12Z"/><path class="cls-7" d="M11.7,9.61a.31.31,0,0,0,.3.22.38.38,0,0,0,.36-.17Z"/><path class="cls-7" d="M12.38,9.52a.32.32,0,0,0-.31-.22.34.34,0,0,0-.35.17Z"/><rect class="cls-5" x="7.41" y="28.4" width="5.91" height="7.22" rx="0.38"/><path class="cls-7" d="M8.37,29.26a.34.34,0,0,0,.33.19A.34.34,0,0,0,9,29.26Z"/><path class="cls-7" d="M9,29.11a.34.34,0,0,0-.34-.19.34.34,0,0,0-.33.19Z"/><path class="cls-7" d="M11.8,29.37a.4.4,0,0,0,.41.05.24.24,0,0,0,.16-.3Z"/><path class="cls-7" d="M12.28,29a.42.42,0,0,0-.42-.05.24.24,0,0,0-.16.3Z"/><path class="cls-7" d="M8.36,34.84a.29.29,0,0,0,.25.26A.41.41,0,0,0,9,35Z"/><path class="cls-7" d="M9.05,34.84a.28.28,0,0,0-.25-.26.41.41,0,0,0-.39.12Z"/><path class="cls-7" d="M11.7,34.88a.32.32,0,0,0,.3.23.4.4,0,0,0,.36-.17Z"/><path class="cls-7" d="M12.38,34.79a.33.33,0,0,0-.31-.22.35.35,0,0,0-.35.17Z"/><rect class="cls-6" y="29.79" width="20.74" height="4.44"/><rect class="cls-7" y="33.03" width="20.74" height="1.2"/><rect class="cls-5" y="30.68" width="20.74" height="2.35"/><rect class="cls-2" x="27.4" width="7.44" height="38.75"/><path class="cls-3" d="M34.58,26.2c-.22.05-.33.25-.34.57s0,.55,0,.81a8.06,8.06,0,0,1-.09,1.77,6.1,6.1,0,0,1-.23.76c-.07.23-.15.47-.2.7a7.91,7.91,0,0,0-.15,1.81c0,.13,0,.26,0,.39,0,.69-.06,1.4-.11,2.08s-.11,1.57-.11,2.37q0,.65.06,1.29h.19a21.29,21.29,0,0,1,0-3.66c.05-.68.1-1.39.11-2.08,0-.13,0-.26,0-.39a7.72,7.72,0,0,1,.14-1.79q.09-.34.21-.69c.08-.25.17-.51.23-.77a7.68,7.68,0,0,0,.08-1.79c0-.26,0-.54,0-.8s.08-.43.22-.47a.1.1,0,0,1,.09,0,.2.2,0,0,1,.09.05v-.16h0A.43.43,0,0,0,34.58,26.2Z"/><path class="cls-3" d="M34.65,35.52l0,.11a16.18,16.18,0,0,0-.26,2.86v.26h.19a15.9,15.9,0,0,1,.23-2.92,1,1,0,0,1,0,.34l-.09,2.58h.09V35.63s0,0,0,0Z"/><path class="cls-3" d="M34.32,30.33a1.63,1.63,0,0,0-.1.68l-.11,7.74h.19L34.4,31a1.84,1.84,0,0,1,.1-.65.69.69,0,0,1,.32-.35,14,14,0,0,0,0,3.77V29.87A.79.79,0,0,0,34.32,30.33Z"/><path class="cls-3" d="M33.83,5.28c-.11-.44-.27-.87-.42-1.29s-.21-.59-.31-.88A16.54,16.54,0,0,1,32.52,0h-.26a5.35,5.35,0,0,0-.11,1.13,14.11,14.11,0,0,0,.69,3.71c.1.36.21.74.3,1.1a36.21,36.21,0,0,1,.91,7.79,134.77,134.77,0,0,1-.22,13.78A8.92,8.92,0,0,1,33.65,29a9.91,9.91,0,0,1-.31,1c-.08.26-.18.53-.25.81a13.32,13.32,0,0,0-.33,2.88l-.2,5h.19l.2-5a13.14,13.14,0,0,1,.33-2.86c.07-.27.16-.55.25-.81s.23-.68.31-1A9.88,9.88,0,0,0,34,27.52a135,135,0,0,0,.22-13.79,36.4,36.4,0,0,0-.91-7.81L33,4.82a11.38,11.38,0,0,1-.65-4.4,14.62,14.62,0,0,0,.54,2.71c.09.3.2.6.3.89s.31.85.42,1.28.21,1,.29,1.51a48.79,48.79,0,0,1,.77,8.29c0,.66-.06,1.32-.1,2s-.09,1.47-.1,2.22,0,1.61.07,2.41l.19,4.08.07,0V23.32l-.07-1.63c0-.79-.07-1.6-.07-2.4s.06-1.49.1-2.22c0-.22,0-.45,0-.67V12.74c-.12-2-.42-4-.72-5.94A13.51,13.51,0,0,0,33.83,5.28Z"/><path class="cls-3" d="M34.28,5.55c0-.24-.08-.48-.1-.71s0-.34-.07-.51c-.09-.6-.23-1.21-.36-1.81A16.83,16.83,0,0,1,33.31,0h-.19a17.09,17.09,0,0,0,.44,2.54c.13.59.27,1.2.36,1.8,0,.17,0,.34.07.51s.06.47.1.71a15.61,15.61,0,0,0,.41,1.7c.12.44.24.89.33,1.34V7.79l-.15-.55A16,16,0,0,1,34.28,5.55Z"/><path class="cls-3" d="M34.41.36c0-.12,0-.24,0-.36H34.2c0,.12,0,.24,0,.36V.44a12.69,12.69,0,0,0,.48,3,.62.62,0,0,0,.13.27V3.21A13.07,13.07,0,0,1,34.41.43Z"/><path class="cls-3" d="M33.91,0h-.19a18.1,18.1,0,0,0,.52,3.52l.59,2.79V5.42l-.41-1.91A18.91,18.91,0,0,1,33.91,0Z"/><path class="cls-3" d="M34.68.48a.6.6,0,0,1-.07-.36V0h-.19V.12a.64.64,0,0,0,.09.41.44.44,0,0,0,.3.15h0V.55h0A.19.19,0,0,1,34.68.48Z"/><path class="cls-3" d="M33,27a57.78,57.78,0,0,0,.78-10.35c-.07-1.69-.3-3.4-.52-5.05L31.71,0h-.19l1.54,11.58c.22,1.65.45,3.36.53,5A58.39,58.39,0,0,1,32.8,27a51.2,51.2,0,0,0-.67,11.8h.19A51,51,0,0,1,33,27Z"/><path class="cls-3" d="M33.14,15.58a8.1,8.1,0,0,0-.38-.92c-.11-.25-.24-.52-.33-.79A8.78,8.78,0,0,1,32,11.75L31.37,5.2A41.05,41.05,0,0,0,30.6,0h-.19a39.47,39.47,0,0,1,.77,5.21l.67,6.54a9,9,0,0,0,.4,2.15,7.92,7.92,0,0,0,.33.8,6.43,6.43,0,0,1,.37.91,7.36,7.36,0,0,1,.19,2.82c-.44,6.77-1.25,13.65-2,20.32h.19c.79-6.66,1.6-13.54,2-20.32A7.75,7.75,0,0,0,33.14,15.58Z"/><path class="cls-3" d="M28.67,11.42a8.9,8.9,0,0,1,.59,1.44c0,.21.09.43.12.64a4.72,4.72,0,0,0,.23,1,5.39,5.39,0,0,0,.38.76,4.08,4.08,0,0,1,.41.84,4.39,4.39,0,0,1,0,1.91l0,.19a19.48,19.48,0,0,0,.38,7.21v.05h.08c.28,0,.47-.19.51-.51l.69-5.7a12.3,12.3,0,0,0,.13-2.91A13.27,13.27,0,0,0,31.65,14a8.16,8.16,0,0,1-.52-3.47c0-.23.09-.47.14-.7a3.65,3.65,0,0,0,.14-1.54,3.92,3.92,0,0,0-.5-1.18,7.05,7.05,0,0,1-.36-.73,5.67,5.67,0,0,1-.32-1.66L29.78,0h-.19L30,4.76a5.56,5.56,0,0,0,.33,1.68,5.11,5.11,0,0,0,.37.74,4.43,4.43,0,0,1,.49,1.15,3.69,3.69,0,0,1-.15,1.51c0,.23-.1.47-.14.71a8.2,8.2,0,0,0,.53,3.51A13.75,13.75,0,0,1,32,16.32a12.24,12.24,0,0,1-.13,2.9l-.69,5.69a.45.45,0,0,1-.24.39,19.42,19.42,0,0,1-.36-7.12l0-.19a4.38,4.38,0,0,0,0-1.94,5.27,5.27,0,0,0-.42-.86,5.28,5.28,0,0,1-.38-.75,4.51,4.51,0,0,1-.22-.95c0-.21-.07-.43-.13-.65a7.88,7.88,0,0,0-.59-1.45l-.23-.47A14.26,14.26,0,0,1,27.4,5.76V7.45a13.57,13.57,0,0,0,1,3.51C28.52,11.11,28.59,11.27,28.67,11.42Z"/><path class="cls-3" d="M27.46,0,27.4.61V2.88c.05-1,.14-1.94.25-2.88Z"/><path class="cls-3" d="M28.63,14.5A10.89,10.89,0,0,1,29,17.77a40.11,40.11,0,0,1-.2,4.24v.2a6.33,6.33,0,0,0,.26,3.34c.06.13.13.27.2.4s.17.31.24.47a5.3,5.3,0,0,1,.29,1.14,26.77,26.77,0,0,1-.49,11.19h.19A27,27,0,0,0,30,27.55a5.51,5.51,0,0,0-.3-1.16c-.07-.16-.16-.32-.24-.48s-.14-.26-.2-.4A6.35,6.35,0,0,1,29,22.22L29,22c.06-.59.1-1.18.13-1.77a24.38,24.38,0,0,0,.52,4.35,2,2,0,0,0,.32.9,3.4,3.4,0,0,0,.32.34,3.07,3.07,0,0,1,.25.26,2.5,2.5,0,0,1,.24,2.19l-.09.47a10.53,10.53,0,0,0,.16,3.17A10.76,10.76,0,0,1,31,35a9.71,9.71,0,0,1-.41,1.65,9.31,9.31,0,0,0-.45,2.08h.19a8.62,8.62,0,0,1,.45-2.06A11.83,11.83,0,0,0,31.21,35a10.88,10.88,0,0,0-.16-3.12,10.4,10.4,0,0,1-.16-3.15c0-.15.05-.31.08-.47A2.51,2.51,0,0,0,30.71,26c-.07-.09-.17-.18-.25-.27a2.3,2.3,0,0,1-.31-.32,2,2,0,0,1-.3-.86,19.05,19.05,0,0,1-.45-5.53c0-.31.08-.62.13-.91a7.38,7.38,0,0,0,.11-2.48,7.65,7.65,0,0,0-.46-1.4L28,11.36c-.21-.53-.42-1.06-.62-1.59v.51l.43,1.11L29,14.29a7.52,7.52,0,0,1,.45,1.39,7.15,7.15,0,0,1-.11,2.44c-.05.3-.1.61-.13.92l0,.25c0-.51,0-1,0-1.52a11,11,0,0,0-.4-3.29,13.49,13.49,0,0,0-1-2.2l-.3-.58-.12-.26v.4l.24.48A14.64,14.64,0,0,1,28.63,14.5Z"/><path class="cls-3" d="M27.64,35.71a14.66,14.66,0,0,0,1-6c.13.87.24,1.73.33,2.59a8.28,8.28,0,0,1,.06.86,2.79,2.79,0,0,1-.15,1,5.79,5.79,0,0,1-.31.67c-.08.15-.16.29-.23.44a7,7,0,0,0-.43,1.51l-.42,2h.19a12.66,12.66,0,0,0,1.61-5.8c.06-.6.13-1.29.13-2a6.3,6.3,0,0,0-.29-2,.65.65,0,0,0-.55-.5,3.19,3.19,0,0,1,.15-1,.37.37,0,0,1,.15,0,.75.75,0,0,1,.4.47,11,11,0,0,1,.36,3.27,16.49,16.49,0,0,1-.4,4.58c-.1.35-.22.7-.33,1a8.77,8.77,0,0,0-.52,2h.19a8.88,8.88,0,0,1,.51-1.93c.12-.34.24-.69.33-1a16.27,16.27,0,0,0,.41-4.6,10.91,10.91,0,0,0-.37-3.3.84.84,0,0,0-.48-.54.63.63,0,0,0-.36,0h0v0a4.79,4.79,0,0,0-.13,2c0,.11,0,.22,0,.32a14.5,14.5,0,0,1-.95,6l-.06.16v.5l0-.08Zm.11,2.51.3-1.45a8,8,0,0,1,.43-1.48c.07-.15.15-.3.23-.44l.16-.32A10.48,10.48,0,0,1,27.75,38.22ZM28.9,29a6.21,6.21,0,0,1,.29,2c0,.45,0,.92-.07,1.36v0c-.13-1.24-.31-2.49-.51-3.73A.63.63,0,0,1,28.9,29Z"/><path class="cls-3" d="M28.45,20a16.5,16.5,0,0,0,0-2.44,13.11,13.11,0,0,0-1.09-4v.47a12.15,12.15,0,0,1,.9,3.53,16.41,16.41,0,0,1,0,2.43l-.39,6.07c-.12,1.75-.23,3.53-.47,5.3v1.24a63.54,63.54,0,0,0,.66-6.54Z"/><path class="cls-3" d="M27.43,19.34a.53.53,0,0,1,0-.12v3.65l.08-1.31A8.7,8.7,0,0,0,27.43,19.34Z"/><path class="cls-3" d="M29.13,0h-.19a12.28,12.28,0,0,0,.46,4.26q.39,1.51.93,3v0a2.19,2.19,0,0,1,.18.7,2.55,2.55,0,0,1-.08.61c0,.06,0,.13-.05.19a8.24,8.24,0,0,0-.11,1.2,6.05,6.05,0,0,0,.47,3.22c0,.08.08.16.13.24a3.23,3.23,0,0,1,.25.49,2.71,2.71,0,0,1,.13.78l.25,4.39c0,.17,0,.35-.19.36s-.25-.15-.29-.3a7.38,7.38,0,0,1-.1-2.2,5.79,5.79,0,0,0-.33-2.85,8.3,8.3,0,0,0-.49-.81,7.18,7.18,0,0,1-.39-.63A7.47,7.47,0,0,1,29,9.92a10.17,10.17,0,0,0-.41-2.09,5.27,5.27,0,0,0-.19-.51,6.42,6.42,0,0,1-.29-.84,5.85,5.85,0,0,1-.05-1.77L28.4,0h-.19l-.33,4.7c0,.29,0,.57,0,.86a4.13,4.13,0,0,0,.09.93,6.24,6.24,0,0,0,.3.86c.07.17.13.34.19.51a9.84,9.84,0,0,1,.4,2.07,7.44,7.44,0,0,0,.72,2.81c.12.22.26.43.39.63a6.71,6.71,0,0,1,.49.81,5.69,5.69,0,0,1,.32,2.8,7.58,7.58,0,0,0,.1,2.23.47.47,0,0,0,.5.4.4.4,0,0,0,.36-.48l-.25-4.39a3.18,3.18,0,0,0-.13-.8,5,5,0,0,0-.26-.52,1.71,1.71,0,0,1-.13-.23A6,6,0,0,1,30.47,10a6.73,6.73,0,0,1,.11-1.18c0-.07,0-.13,0-.19A2.28,2.28,0,0,0,30.71,8a2.69,2.69,0,0,0-.18-.73v0c-.36-1-.68-2-.93-3A12,12,0,0,1,29.13,0Z"/><path class="cls-3" d="M28.32,4.07c0,.21,0,.42,0,.62s0,.27,0,.4a2.26,2.26,0,0,0,.17,1,3.36,3.36,0,0,0,.27.49A3.3,3.3,0,0,1,29,7a3.27,3.27,0,0,1,.22,1.11l.14,1.93a5.48,5.48,0,0,0,.27,1.54l.08.23.1-.23A3.23,3.23,0,0,0,30,10.32c0-.12,0-.23,0-.35l0-1.73a5.36,5.36,0,0,0-.2-1.58,6.13,6.13,0,0,0-.61-1.16,4.58,4.58,0,0,1-.67-1.44l0-.3h-.19A1.53,1.53,0,0,0,28.32,4.07Zm.18.63v0a7.08,7.08,0,0,0,.49.89,5.74,5.74,0,0,1,.6,1.15,4.88,4.88,0,0,1,.2,1.56l0,1.72c0,.12,0,.23,0,.35a3.75,3.75,0,0,1-.11,1A7.66,7.66,0,0,1,29.56,10l-.14-1.92A3.32,3.32,0,0,0,29.19,7a4.17,4.17,0,0,0-.26-.46A3.17,3.17,0,0,1,28.66,6a2.28,2.28,0,0,1-.17-1C28.49,5,28.5,4.83,28.5,4.7Z"/><rect class="cls-4" x="33.25" width="1.58" height="38.75"/><rect class="cls-4" x="27.4" width="0.78" height="38.75"/><rect class="cls-5" x="28.16" y="3.13" width="5.91" height="7.22" rx="0.38"/><rect class="cls-6" x="20.74" y="4.52" width="20.74" height="4.44"/><rect class="cls-7" x="20.74" y="7.75" width="20.74" height="1.2"/><rect class="cls-5" x="20.74" y="5.4" width="20.74" height="2.35"/><path class="cls-7" d="M29.11,4a.37.37,0,0,0,.34.2.34.34,0,0,0,.33-.2Z"/><path class="cls-7" d="M29.78,3.84a.33.33,0,0,0-.33-.2.35.35,0,0,0-.34.2Z"/><path class="cls-7" d="M32.54,4.1a.44.44,0,0,0,.42,0,.24.24,0,0,0,.16-.29Z"/><path class="cls-7" d="M33,3.72a.43.43,0,0,0-.41,0,.25.25,0,0,0-.17.29Z"/><path class="cls-7" d="M29.1,9.56a.29.29,0,0,0,.25.26.41.41,0,0,0,.39-.12Z"/><path class="cls-7" d="M29.79,9.56a.29.29,0,0,0-.25-.26.41.41,0,0,0-.39.12Z"/><path class="cls-7" d="M32.44,9.61a.33.33,0,0,0,.31.22.35.35,0,0,0,.35-.17Z"/><path class="cls-7" d="M33.12,9.52a.31.31,0,0,0-.3-.22.36.36,0,0,0-.36.17Z"/><rect class="cls-5" x="28.16" y="28.4" width="5.91" height="7.22" rx="0.38"/><path class="cls-7" d="M29.11,29.26a.36.36,0,0,0,.34.19.34.34,0,0,0,.33-.19Z"/><path class="cls-7" d="M29.78,29.11a.34.34,0,0,0-.33-.19.36.36,0,0,0-.34.19Z"/><path class="cls-7" d="M32.54,29.37a.42.42,0,0,0,.42.05.25.25,0,0,0,.16-.3Z"/><path class="cls-7" d="M33,29a.4.4,0,0,0-.41-.05.26.26,0,0,0-.17.3Z"/><path class="cls-7" d="M29.1,34.84a.3.3,0,0,0,.25.26.41.41,0,0,0,.39-.12Z"/><path class="cls-7" d="M29.79,34.84a.28.28,0,0,0-.25-.26.41.41,0,0,0-.39.12Z"/><path class="cls-7" d="M32.44,34.88a.34.34,0,0,0,.31.23.37.37,0,0,0,.35-.17Z"/><path class="cls-7" d="M33.12,34.79a.32.32,0,0,0-.3-.22.38.38,0,0,0-.36.17Z"/><rect class="cls-6" x="20.74" y="29.79" width="20.74" height="4.44"/><rect class="cls-7" x="20.74" y="33.03" width="20.74" height="1.2"/><rect class="cls-5" x="20.74" y="30.68" width="20.74" height="2.35"/><rect class="cls-2" x="48.14" width="7.44" height="38.75"/><path class="cls-3" d="M55.32,26.2c-.22.05-.33.25-.33.57s0,.55,0,.81a7,7,0,0,1-.09,1.77,6.08,6.08,0,0,1-.22.76,6.2,6.2,0,0,0-.21.7,7.91,7.91,0,0,0-.15,1.81V33c0,.69-.07,1.4-.12,2.08s-.11,1.57-.11,2.37q0,.65.06,1.29h.19a22.35,22.35,0,0,1,0-3.66c.05-.68.1-1.39.11-2.08,0-.13,0-.26,0-.39a7.74,7.74,0,0,1,.15-1.79c0-.23.13-.46.2-.69a6.82,6.82,0,0,0,.23-.77,7.18,7.18,0,0,0,.09-1.79c0-.26,0-.54,0-.8s.09-.43.22-.47a.12.12,0,0,1,.1,0,.2.2,0,0,1,.09.05v-.16h0A.43.43,0,0,0,55.32,26.2Z"/><path class="cls-3" d="M55.4,35.52l0,.11a16.18,16.18,0,0,0-.26,2.86c0,.08,0,.17,0,.26h.19a15.06,15.06,0,0,1,.22-2.92,1,1,0,0,1,0,.34l-.09,2.58h.1V35.63l0,0Z"/><path class="cls-3" d="M55.06,30.33A1.63,1.63,0,0,0,55,31l-.11,7.74H55L55.15,31a1.63,1.63,0,0,1,.09-.65.67.67,0,0,1,.33-.35,13.6,13.6,0,0,0,0,3.77V29.87A.81.81,0,0,0,55.06,30.33Z"/><path class="cls-3" d="M54.57,5.28c-.11-.44-.27-.87-.42-1.29s-.21-.59-.3-.88A15.08,15.08,0,0,1,53.27,0H53a6.1,6.1,0,0,0-.11,1.13,14.11,14.11,0,0,0,.69,3.71c.11.36.21.74.3,1.1a35.59,35.59,0,0,1,.91,7.79,134.76,134.76,0,0,1-.21,13.78A10,10,0,0,1,54.39,29c-.08.34-.19.68-.3,1s-.18.53-.26.81a13.32,13.32,0,0,0-.33,2.88l-.2,5h.19l.2-5A13.14,13.14,0,0,1,54,30.89c.07-.27.16-.55.25-.81s.23-.68.31-1a9.84,9.84,0,0,0,.19-1.53A137.89,137.89,0,0,0,55,13.73a36.4,36.4,0,0,0-.91-7.81c-.09-.36-.2-.74-.3-1.1a11.57,11.57,0,0,1-.65-4.4,15.48,15.48,0,0,0,.54,2.71c.1.3.2.6.31.89s.3.85.42,1.28.2,1,.28,1.51a48.79,48.79,0,0,1,.77,8.29c0,.66,0,1.32-.09,2s-.1,1.47-.1,2.22,0,1.61.06,2.41l.19,4.08.08,0V23.32l-.08-1.63c0-.79-.07-1.6-.06-2.4s.05-1.49.1-2.22c0-.22,0-.45,0-.67V12.74c-.13-2-.43-4-.72-5.94C54.78,6.3,54.7,5.78,54.57,5.28Z"/><path class="cls-3" d="M55,5.55c0-.24-.07-.48-.1-.71s-.05-.34-.07-.51c-.09-.6-.23-1.21-.36-1.81A16.83,16.83,0,0,1,54.05,0h-.19a20.14,20.14,0,0,0,.44,2.54c.14.59.27,1.2.36,1.8,0,.17.05.34.07.51s.06.47.1.71c.1.58.26,1.15.41,1.7s.24.89.34,1.34V7.79l-.15-.55A16,16,0,0,1,55,5.55Z"/><path class="cls-3" d="M55.15.36c0-.12,0-.24,0-.36h-.19l0,.36V.44a13.21,13.21,0,0,0,.47,3,.62.62,0,0,0,.14.27V3.21A12.46,12.46,0,0,1,55.16.43Z"/><path class="cls-3" d="M54.65,0h-.18A17.37,17.37,0,0,0,55,3.52l.6,2.79V5.42l-.41-1.91A18.11,18.11,0,0,1,54.65,0Z"/><path class="cls-3" d="M55.42.48a.53.53,0,0,1-.06-.36V0h-.19V.12a.64.64,0,0,0,.08.41.46.46,0,0,0,.31.15h0V.55h0A.19.19,0,0,1,55.42.48Z"/><path class="cls-3" d="M53.74,27a58.72,58.72,0,0,0,.78-10.35c-.08-1.69-.31-3.4-.53-5.05L52.46,0h-.19l1.54,11.58c.22,1.65.44,3.36.52,5A58.38,58.38,0,0,1,53.55,27a50.65,50.65,0,0,0-.68,11.8h.19A50.48,50.48,0,0,1,53.74,27Z"/><path class="cls-3" d="M53.88,15.58c-.1-.31-.24-.62-.37-.92s-.24-.52-.34-.79a9.29,9.29,0,0,1-.39-2.12L52.11,5.2A37.74,37.74,0,0,0,51.34,0h-.19a37.88,37.88,0,0,1,.77,5.21l.67,6.54A9,9,0,0,0,53,13.9c.09.27.22.54.33.8a8,8,0,0,1,.38.91,7.55,7.55,0,0,1,.18,2.82c-.43,6.77-1.24,13.65-2,20.32H52c.79-6.66,1.6-13.54,2-20.32A7.54,7.54,0,0,0,53.88,15.58Z"/><path class="cls-3" d="M49.41,11.42A8.08,8.08,0,0,1,50,12.86c0,.21.09.43.12.64a5.47,5.47,0,0,0,.23,1,5.39,5.39,0,0,0,.38.76,4.08,4.08,0,0,1,.41.84,4.11,4.11,0,0,1,0,1.91l0,.19a19.69,19.69,0,0,0,.38,7.21l0,.05h.08c.27,0,.46-.19.5-.51l.69-5.7a12.3,12.3,0,0,0,.13-2.91A14.23,14.23,0,0,0,52.4,14a8.17,8.17,0,0,1-.53-3.47c0-.23.09-.47.14-.7a3.82,3.82,0,0,0,.15-1.54,4.5,4.5,0,0,0-.5-1.18,7.14,7.14,0,0,1-.37-.73A6,6,0,0,1,51,4.75L50.52,0h-.19l.45,4.76a5.89,5.89,0,0,0,.33,1.68,6.38,6.38,0,0,0,.37.74A4.43,4.43,0,0,1,52,8.33a3.87,3.87,0,0,1-.14,1.51c-.06.23-.11.47-.15.71a8.35,8.35,0,0,0,.53,3.51,13.75,13.75,0,0,1,.54,2.26,12.79,12.79,0,0,1-.12,2.9l-.69,5.69a.47.47,0,0,1-.24.39,19.21,19.21,0,0,1-.37-7.12l0-.19a4.24,4.24,0,0,0,0-1.94,4.56,4.56,0,0,0-.42-.86,5.28,5.28,0,0,1-.38-.75,5.23,5.23,0,0,1-.22-.95c0-.21-.07-.43-.12-.65a7.92,7.92,0,0,0-.6-1.45c-.08-.16-.15-.31-.22-.47a14.27,14.27,0,0,1-1.23-5.16V7.45a13.22,13.22,0,0,0,1,3.51C49.26,11.11,49.33,11.27,49.41,11.42Z"/><path class="cls-3" d="M48.2,0l-.06.61V2.88c0-1,.15-1.94.25-2.88Z"/><path class="cls-3" d="M49.37,14.5a10.89,10.89,0,0,1,.39,3.27c0,1.41-.06,2.83-.19,4.24l0,.2a6.44,6.44,0,0,0,.26,3.34c.06.13.14.27.21.4s.16.31.23.47a4.78,4.78,0,0,1,.29,1.14,26.77,26.77,0,0,1-.49,11.19h.19a26.81,26.81,0,0,0,.49-11.2,5,5,0,0,0-.3-1.16q-.1-.24-.24-.48c-.06-.13-.14-.26-.2-.4a6.34,6.34,0,0,1-.25-3.29l0-.21c.05-.59.09-1.18.13-1.77a25.33,25.33,0,0,0,.51,4.35,2.27,2.27,0,0,0,.32.9,3.4,3.4,0,0,0,.32.34,2,2,0,0,1,.25.26,2.44,2.44,0,0,1,.24,2.19c0,.15-.06.31-.08.47a10.22,10.22,0,0,0,.15,3.17,11.13,11.13,0,0,1,.17,3.1,12.05,12.05,0,0,1-.41,1.65,8.32,8.32,0,0,0-.45,2.08h.18a9.14,9.14,0,0,1,.45-2.06A9.59,9.59,0,0,0,52,35a10.88,10.88,0,0,0-.16-3.12,10.4,10.4,0,0,1-.16-3.15l.09-.47A2.54,2.54,0,0,0,51.46,26l-.26-.27a3.07,3.07,0,0,1-.31-.32,2,2,0,0,1-.3-.86,19.41,19.41,0,0,1-.45-5.53c0-.31.08-.62.13-.91a7.13,7.13,0,0,0,.11-2.48,7.65,7.65,0,0,0-.46-1.4l-1.16-2.9c-.21-.53-.42-1.06-.62-1.59v.51c.14.37.29.74.44,1.11l1.16,2.9a7.55,7.55,0,0,1,.46,1.39,7.15,7.15,0,0,1-.12,2.44c0,.3-.1.61-.13.92a2.11,2.11,0,0,0,0,.25c0-.51,0-1,0-1.52a11,11,0,0,0-.39-3.29,14.4,14.4,0,0,0-1-2.2c-.11-.19-.21-.38-.31-.58l-.12-.26v.4c.08.16.16.32.25.48A14.57,14.57,0,0,1,49.37,14.5Z"/><path class="cls-3" d="M48.39,35.71a14.48,14.48,0,0,0,1-6c.13.87.24,1.73.33,2.59a8.28,8.28,0,0,1,.06.86,3.06,3.06,0,0,1-.14,1,4.56,4.56,0,0,1-.32.67,4.51,4.51,0,0,0-.22.44,6.48,6.48,0,0,0-.44,1.51l-.41,2h.18A12.42,12.42,0,0,0,50,32.94c.06-.6.14-1.29.14-2a6.29,6.29,0,0,0-.3-2,.65.65,0,0,0-.55-.5,3.51,3.51,0,0,1,.16-1,.38.38,0,0,1,.15,0,.74.74,0,0,1,.39.47,10.7,10.7,0,0,1,.36,3.27,16.49,16.49,0,0,1-.4,4.58c-.09.35-.22.7-.33,1a9.35,9.35,0,0,0-.52,2h.19a10.18,10.18,0,0,1,.51-1.93c.12-.34.24-.69.34-1a16.64,16.64,0,0,0,.4-4.6,10.9,10.9,0,0,0-.36-3.3.89.89,0,0,0-.49-.54.63.63,0,0,0-.36,0h0v0a4.79,4.79,0,0,0-.14,2c0,.11,0,.22,0,.32a14.34,14.34,0,0,1-.95,6l-.06.16v.5l0-.08C48.24,36.07,48.32,35.89,48.39,35.71Zm.11,2.51.3-1.45a6.73,6.73,0,0,1,.43-1.48,3.61,3.61,0,0,1,.22-.44l.17-.32A10.7,10.7,0,0,1,48.5,38.22ZM49.65,29a6.5,6.5,0,0,1,.29,2c0,.45,0,.92-.08,1.36v0c-.13-1.24-.3-2.49-.51-3.73A.65.65,0,0,1,49.65,29Z"/><path class="cls-3" d="M49.19,20a16.49,16.49,0,0,0,.05-2.44,13.13,13.13,0,0,0-1.1-4v.47a12.5,12.5,0,0,1,.91,3.53A17.89,17.89,0,0,1,49,20l-.4,6.07c-.11,1.75-.23,3.53-.47,5.3v1.24a63.54,63.54,0,0,0,.66-6.54Z"/><path class="cls-3" d="M48.17,19.34l0-.12v3.65l.08-1.31A8.27,8.27,0,0,0,48.17,19.34Z"/><path class="cls-3" d="M49.87,0h-.19a12,12,0,0,0,.47,4.26c.25,1,.57,2,.93,3v0a2.47,2.47,0,0,1,.17.7,2.55,2.55,0,0,1-.08.61,1.29,1.29,0,0,0,0,.19A8.27,8.27,0,0,0,51,10a6.15,6.15,0,0,0,.47,3.22l.13.24a2.57,2.57,0,0,1,.26.49,3.08,3.08,0,0,1,.12.78l.26,4.39c0,.17,0,.35-.2.36s-.25-.15-.29-.3a7.38,7.38,0,0,1-.1-2.2,5.79,5.79,0,0,0-.33-2.85,8.3,8.3,0,0,0-.49-.81q-.21-.32-.39-.63a7.47,7.47,0,0,1-.71-2.78,10.14,10.14,0,0,0-.4-2.09l-.19-.51a6.47,6.47,0,0,1-.3-.84,6.19,6.19,0,0,1,0-1.77L49.15,0H49l-.34,4.7c0,.29,0,.57,0,.86a3.63,3.63,0,0,0,.1.93,6.21,6.21,0,0,0,.29.86,5.27,5.27,0,0,1,.19.51,9.84,9.84,0,0,1,.4,2.07,7.44,7.44,0,0,0,.72,2.81,6.73,6.73,0,0,0,.4.63,6.63,6.63,0,0,1,.48.81,5.69,5.69,0,0,1,.32,2.8,7.58,7.58,0,0,0,.1,2.23.48.48,0,0,0,.51.4c.24,0,.37-.2.35-.48l-.25-4.39a2.31,2.31,0,0,0-.39-1.32,1.71,1.71,0,0,1-.13-.23A6.09,6.09,0,0,1,51.21,10a7.85,7.85,0,0,1,.11-1.18c0-.07,0-.13,0-.19A2.72,2.72,0,0,0,51.45,8a2.69,2.69,0,0,0-.18-.73v0c-.36-1-.67-2-.93-3A12.19,12.19,0,0,1,49.87,0Z"/><path class="cls-3" d="M49.06,4.07c0,.21,0,.42,0,.62s0,.27,0,.4a2.41,2.41,0,0,0,.17,1,4.67,4.67,0,0,0,.27.49,2.51,2.51,0,0,1,.26.45A3,3,0,0,1,50,8.12l.15,1.93a5.46,5.46,0,0,0,.26,1.54l.09.23.09-.23a3.06,3.06,0,0,0,.21-1.27V10l0-1.73a5,5,0,0,0-.2-1.58,6.13,6.13,0,0,0-.61-1.16,4.81,4.81,0,0,1-.67-1.44,2.53,2.53,0,0,0,0-.3H49A1.53,1.53,0,0,0,49.06,4.07Zm.19.63v0a7.17,7.17,0,0,0,.5.89,6.26,6.26,0,0,1,.59,1.15,4.88,4.88,0,0,1,.2,1.56l0,1.72v.35a3.72,3.72,0,0,1-.1,1A6.71,6.71,0,0,1,50.31,10l-.15-1.92A3.32,3.32,0,0,0,49.93,7a4.17,4.17,0,0,0-.26-.46A3.17,3.17,0,0,1,49.4,6a2.43,2.43,0,0,1-.16-1C49.24,5,49.24,4.83,49.25,4.7Z"/><rect class="cls-4" x="54" width="1.58" height="38.75"/><rect class="cls-4" x="48.14" width="0.78" height="38.75"/><rect class="cls-5" x="48.9" y="3.13" width="5.91" height="7.22" rx="0.38"/><rect class="cls-6" x="41.49" y="4.52" width="20.74" height="4.44"/><rect class="cls-7" x="41.49" y="7.75" width="20.74" height="1.2"/><rect class="cls-5" x="41.49" y="5.4" width="20.74" height="2.35"/><path class="cls-7" d="M49.86,4a.37.37,0,0,0,.66,0Z"/><path class="cls-7" d="M50.52,3.84a.37.37,0,0,0-.66,0Z"/><path class="cls-7" d="M53.28,4.1a.44.44,0,0,0,.42,0,.23.23,0,0,0,.16-.29Z"/><path class="cls-7" d="M53.77,3.72a.44.44,0,0,0-.42,0,.23.23,0,0,0-.16.29Z"/><path class="cls-7" d="M49.84,9.56a.29.29,0,0,0,.25.26.4.4,0,0,0,.39-.12Z"/><path class="cls-7" d="M50.54,9.56a.3.3,0,0,0-.25-.26.4.4,0,0,0-.39.12Z"/><path class="cls-7" d="M53.18,9.61a.33.33,0,0,0,.31.22.38.38,0,0,0,.36-.17Z"/><path class="cls-7" d="M53.86,9.52a.3.3,0,0,0-.3-.22.36.36,0,0,0-.36.17Z"/><rect class="cls-5" x="48.9" y="28.4" width="5.91" height="7.22" rx="0.38"/><path class="cls-7" d="M49.86,29.26a.38.38,0,0,0,.66,0Z"/><path class="cls-7" d="M50.52,29.11a.38.38,0,0,0-.66,0Z"/><path class="cls-7" d="M53.28,29.37a.42.42,0,0,0,.42.05.24.24,0,0,0,.16-.3Z"/><path class="cls-7" d="M53.77,29a.42.42,0,0,0-.42-.05.24.24,0,0,0-.16.3Z"/><path class="cls-7" d="M49.84,34.84a.3.3,0,0,0,.25.26.4.4,0,0,0,.39-.12Z"/><path class="cls-7" d="M50.54,34.84a.29.29,0,0,0-.25-.26.4.4,0,0,0-.39.12Z"/><path class="cls-7" d="M53.18,34.88a.34.34,0,0,0,.31.23.4.4,0,0,0,.36-.17Z"/><path class="cls-7" d="M53.86,34.79a.31.31,0,0,0-.3-.22.38.38,0,0,0-.36.17Z"/><rect class="cls-6" x="41.49" y="29.79" width="20.74" height="4.44"/><rect class="cls-7" x="41.49" y="33.03" width="20.74" height="1.2"/><rect class="cls-5" x="41.49" y="30.68" width="20.74" height="2.35"/></g></g></g></svg>