<svg width="312" height="62" viewBox="0 0 312 62" fill="none" xmlns="http://www.w3.org/2000/svg">
<g clip-path="url(#clip0_33_2)">
<path d="M48.1293 11.62H55.5693V50.37H48.1293V11.62Z" fill="#B1711B"/>
<path d="M49.2796 14.75H54.4296C54.6394 14.75 54.8096 14.9201 54.8096 15.13V21.59C54.8096 21.7999 54.6394 21.97 54.4296 21.97H49.2796C49.0697 21.97 48.8996 21.7999 48.8996 21.59V15.13C48.8996 14.9201 49.0697 14.75 49.2796 14.75Z" fill="#C3C3C3"/>
<path d="M41.4895 16.14H62.2295V20.58H41.4895V16.14Z" fill="#B4B4B4"/>
<path d="M41.4895 19.37H62.2295V20.57H41.4895V19.37Z" fill="#989898"/>
<path d="M41.4895 17.02H62.2295V19.37H41.4895V17.02Z" fill="#C3C3C3"/>
<path d="M49.2796 40.02H54.4296C54.6394 40.02 54.8096 40.1901 54.8096 40.4V46.86C54.8096 47.0699 54.6394 47.24 54.4296 47.24H49.2796C49.0697 47.24 48.8996 47.0699 48.8996 46.86V40.4C48.8996 40.1901 49.0697 40.02 49.2796 40.02Z" fill="#C3C3C3"/>
<path d="M41.4895 41.41H62.2295V45.85H41.4895V41.41Z" fill="#B4B4B4"/>
<path d="M41.4895 44.65H62.2295V45.85H41.4895V44.65Z" fill="#989898"/>
<path d="M41.4895 42.3H62.2295V44.65H41.4895V42.3Z" fill="#C3C3C3"/>
<path d="M297.049 11.62H304.489V50.37H297.049V11.62Z" fill="#B1711B"/>
<path d="M298.199 14.75H303.349C303.559 14.75 303.729 14.9201 303.729 15.13V21.59C303.729 21.7999 303.559 21.97 303.349 21.97H298.199C297.99 21.97 297.819 21.7999 297.819 21.59V15.13C297.819 14.9201 297.99 14.75 298.199 14.75Z" fill="#C3C3C3"/>
<path d="M290.4 16.14H311.14V20.58H290.4V16.14Z" fill="#B4B4B4"/>
<path d="M290.4 19.37H311.14V20.57H290.4V19.37Z" fill="#989898"/>
<path d="M290.4 17.02H311.14V19.37H290.4V17.02Z" fill="#C3C3C3"/>
<path d="M298.199 40.02H303.349C303.559 40.02 303.729 40.1901 303.729 40.4V46.86C303.729 47.0699 303.559 47.24 303.349 47.24H298.199C297.99 47.24 297.819 47.0699 297.819 46.86V40.4C297.819 40.1901 297.99 40.02 298.199 40.02Z" fill="#C3C3C3"/>
<path d="M290.4 41.41H311.14V45.85H290.4V41.41Z" fill="#B4B4B4"/>
<path d="M290.4 44.65H311.14V45.85H290.4V44.65Z" fill="#989898"/>
<path d="M290.4 42.3H311.14V44.65H290.4V42.3Z" fill="#C3C3C3"/>
<path d="M276.299 11.62H283.739V50.37H276.299V11.62Z" fill="#B1711B"/>
<path d="M277.449 14.75H282.599C282.809 14.75 282.979 14.9201 282.979 15.13V21.59C282.979 21.7999 282.809 21.97 282.599 21.97H277.449C277.24 21.97 277.069 21.7999 277.069 21.59V15.13C277.069 14.9201 277.24 14.75 277.449 14.75Z" fill="#C3C3C3"/>
<path d="M269.659 16.14H290.399V20.58H269.659V16.14Z" fill="#B4B4B4"/>
<path d="M269.659 19.37H290.399V20.57H269.659V19.37Z" fill="#989898"/>
<path d="M269.659 17.02H290.399V19.37H269.659V17.02Z" fill="#C3C3C3"/>
<path d="M277.449 40.02H282.599C282.809 40.02 282.979 40.1901 282.979 40.4V46.86C282.979 47.0699 282.809 47.24 282.599 47.24H277.449C277.24 47.24 277.069 47.0699 277.069 46.86V40.4C277.069 40.1901 277.24 40.02 277.449 40.02Z" fill="#C3C3C3"/>
<path d="M269.659 41.41H290.399V45.85H269.659V41.41Z" fill="#B4B4B4"/>
<path d="M269.659 44.65H290.399V45.85H269.659V44.65Z" fill="#989898"/>
<path d="M269.659 42.3H290.399V44.65H269.659V42.3Z" fill="#C3C3C3"/>
<path d="M255.56 11.62H263V50.37H255.56V11.62Z" fill="#B1711B"/>
<path d="M256.709 14.75H261.859C262.069 14.75 262.239 14.9201 262.239 15.13V21.59C262.239 21.7999 262.069 21.97 261.859 21.97H256.709C256.499 21.97 256.329 21.7999 256.329 21.59V15.13C256.329 14.9201 256.499 14.75 256.709 14.75Z" fill="#C3C3C3"/>
<path d="M248.909 16.14H269.649V20.58H248.909V16.14Z" fill="#B4B4B4"/>
<path d="M248.909 19.37H269.649V20.57H248.909V19.37Z" fill="#989898"/>
<path d="M248.909 17.02H269.649V19.37H248.909V17.02Z" fill="#C3C3C3"/>
<path d="M256.709 40.02H261.859C262.069 40.02 262.239 40.1901 262.239 40.4V46.86C262.239 47.0699 262.069 47.24 261.859 47.24H256.709C256.499 47.24 256.329 47.0699 256.329 46.86V40.4C256.329 40.1901 256.499 40.02 256.709 40.02Z" fill="#C3C3C3"/>
<path d="M248.909 41.41H269.649V45.85H248.909V41.41Z" fill="#B4B4B4"/>
<path d="M248.909 44.65H269.649V45.85H248.909V44.65Z" fill="#989898"/>
<path d="M248.909 42.3H269.649V44.65H248.909V42.3Z" fill="#C3C3C3"/>
<path d="M234.82 11.62H242.26V50.37H234.82V11.62Z" fill="#B1711B"/>
<path d="M235.97 14.75H241.12C241.33 14.75 241.5 14.9201 241.5 15.13V21.59C241.5 21.7999 241.33 21.97 241.12 21.97H235.97C235.76 21.97 235.59 21.7999 235.59 21.59V15.13C235.59 14.9201 235.76 14.75 235.97 14.75Z" fill="#C3C3C3"/>
<path d="M228.169 16.14H248.909V20.58H228.169V16.14Z" fill="#B4B4B4"/>
<path d="M228.169 19.37H248.909V20.57H228.169V19.37Z" fill="#989898"/>
<path d="M228.169 17.02H248.909V19.37H228.169V17.02Z" fill="#C3C3C3"/>
<path d="M235.97 40.02H241.12C241.33 40.02 241.5 40.1901 241.5 40.4V46.86C241.5 47.0699 241.33 47.24 241.12 47.24H235.97C235.76 47.24 235.59 47.0699 235.59 46.86V40.4C235.59 40.1901 235.76 40.02 235.97 40.02Z" fill="#C3C3C3"/>
<path d="M228.169 41.41H248.909V45.85H228.169V41.41Z" fill="#B4B4B4"/>
<path d="M228.169 44.65H248.909V45.85H228.169V44.65Z" fill="#989898"/>
<path d="M228.169 42.3H248.909V44.65H228.169V42.3Z" fill="#C3C3C3"/>
<path d="M214.08 11.62H221.52V50.37H214.08V11.62Z" fill="#B1711B"/>
<path d="M215.22 14.75H220.37C220.58 14.75 220.75 14.9201 220.75 15.13V21.59C220.75 21.7999 220.58 21.97 220.37 21.97H215.22C215.01 21.97 214.84 21.7999 214.84 21.59V15.13C214.84 14.9201 215.01 14.75 215.22 14.75Z" fill="#C3C3C3"/>
<path d="M207.43 16.14H228.17V20.58H207.43V16.14Z" fill="#B4B4B4"/>
<path d="M207.43 19.37H228.17V20.57H207.43V19.37Z" fill="#989898"/>
<path d="M207.43 17.02H228.17V19.37H207.43V17.02Z" fill="#C3C3C3"/>
<path d="M215.22 40.02H220.37C220.58 40.02 220.75 40.1901 220.75 40.4V46.86C220.75 47.0699 220.58 47.24 220.37 47.24H215.22C215.01 47.24 214.84 47.0699 214.84 46.86V40.4C214.84 40.1901 215.01 40.02 215.22 40.02Z" fill="#C3C3C3"/>
<path d="M207.43 41.41H228.17V45.85H207.43V41.41Z" fill="#B4B4B4"/>
<path d="M207.43 44.65H228.17V45.85H207.43V44.65Z" fill="#989898"/>
<path d="M207.43 42.3H228.17V44.65H207.43V42.3Z" fill="#C3C3C3"/>
<path d="M193.33 11.62H200.77V50.37H193.33V11.62Z" fill="#B1711B"/>
<path d="M194.48 14.75H199.63C199.84 14.75 200.01 14.9201 200.01 15.13V21.59C200.01 21.7999 199.84 21.97 199.63 21.97H194.48C194.27 21.97 194.1 21.7999 194.1 21.59V15.13C194.1 14.9201 194.27 14.75 194.48 14.75Z" fill="#C3C3C3"/>
<path d="M186.69 16.14H207.43V20.58H186.69V16.14Z" fill="#B4B4B4"/>
<path d="M186.69 19.37H207.43V20.57H186.69V19.37Z" fill="#989898"/>
<path d="M186.69 17.02H207.43V19.37H186.69V17.02Z" fill="#C3C3C3"/>
<path d="M194.48 40.02H199.63C199.84 40.02 200.01 40.1901 200.01 40.4V46.86C200.01 47.0699 199.84 47.24 199.63 47.24H194.48C194.27 47.24 194.1 47.0699 194.1 46.86V40.4C194.1 40.1901 194.27 40.02 194.48 40.02Z" fill="#C3C3C3"/>
<path d="M186.69 41.41H207.43V45.85H186.69V41.41Z" fill="#B4B4B4"/>
<path d="M186.69 44.65H207.43V45.85H186.69V44.65Z" fill="#989898"/>
<path d="M186.69 42.3H207.43V44.65H186.69V42.3Z" fill="#C3C3C3"/>
<path d="M20.7395 16.14H41.4795V20.58H20.7395V16.14Z" fill="#B4B4B4"/>
<path d="M20.7395 19.37H41.4795V20.57H20.7395V19.37Z" fill="#989898"/>
<path d="M20.7395 17.02H41.4795V19.37H20.7395V17.02Z" fill="#C3C3C3"/>
<path d="M20.7395 41.41H41.4795V45.85H20.7395V41.41Z" fill="#B4B4B4"/>
<path d="M20.7395 44.65H41.4795V45.85H20.7395V44.65Z" fill="#989898"/>
<path d="M20.7395 42.3H41.4795V44.65H20.7395V42.3Z" fill="#C3C3C3"/>
<path d="M-0.000762939 16.14H20.7393V20.58H-0.000762939V16.14Z" fill="#B4B4B4"/>
<path d="M-0.000762939 19.37H20.7393V20.57H-0.000762939V19.37Z" fill="#989898"/>
<path d="M-0.000762939 17.02H20.7393V19.37H-0.000762939V17.02Z" fill="#C3C3C3"/>
<path d="M-0.000762939 41.41H20.7393V45.85H-0.000762939V41.41Z" fill="#B4B4B4"/>
<path d="M-0.000762939 44.65H20.7393V45.85H-0.000762939V44.65Z" fill="#989898"/>
<path d="M-0.000762939 42.3H20.7393V44.65H-0.000762939V42.3Z" fill="#C3C3C3"/>
<path d="M152.27 11.62H159.71V50.37H152.27V11.62Z" fill="#B1711B"/>
<path d="M153.419 14.75H158.569C158.779 14.75 158.949 14.9201 158.949 15.13V21.59C158.949 21.7999 158.779 21.97 158.569 21.97H153.419C153.209 21.97 153.039 21.7999 153.039 21.59V15.13C153.039 14.9201 153.209 14.75 153.419 14.75Z" fill="#C3C3C3"/>
<path d="M145.619 16.14H166.359V20.58H145.619V16.14Z" fill="#B4B4B4"/>
<path d="M145.619 19.37H166.359V20.57H145.619V19.37Z" fill="#989898"/>
<path d="M145.619 17.02H166.359V19.37H145.619V17.02Z" fill="#C3C3C3"/>
<path d="M153.419 40.02H158.569C158.779 40.02 158.949 40.1901 158.949 40.4V46.86C158.949 47.0699 158.779 47.24 158.569 47.24H153.419C153.209 47.24 153.039 47.0699 153.039 46.86V40.4C153.039 40.1901 153.209 40.02 153.419 40.02Z" fill="#C3C3C3"/>
<path d="M145.619 41.41H166.359V45.85H145.619V41.41Z" fill="#B4B4B4"/>
<path d="M145.619 44.65H166.359V45.85H145.619V44.65Z" fill="#989898"/>
<path d="M145.619 42.3H166.359V44.65H145.619V42.3Z" fill="#C3C3C3"/>
<path d="M131.53 11.62H138.97V50.37H131.53V11.62Z" fill="#B1711B"/>
<path d="M132.68 14.75H137.83C138.04 14.75 138.21 14.9201 138.21 15.13V21.59C138.21 21.7999 138.04 21.97 137.83 21.97H132.68C132.47 21.97 132.3 21.7999 132.3 21.59V15.13C132.3 14.9201 132.47 14.75 132.68 14.75Z" fill="#C3C3C3"/>
<path d="M124.88 16.14H145.62V20.58H124.88V16.14Z" fill="#B4B4B4"/>
<path d="M124.88 19.37H145.62V20.57H124.88V19.37Z" fill="#989898"/>
<path d="M124.88 17.02H145.62V19.37H124.88V17.02Z" fill="#C3C3C3"/>
<path d="M132.68 40.02H137.83C138.04 40.02 138.21 40.1901 138.21 40.4V46.86C138.21 47.0699 138.04 47.24 137.83 47.24H132.68C132.47 47.24 132.3 47.0699 132.3 46.86V40.4C132.3 40.1901 132.47 40.02 132.68 40.02Z" fill="#C3C3C3"/>
<path d="M124.88 41.41H145.62V45.85H124.88V41.41Z" fill="#B4B4B4"/>
<path d="M124.88 44.65H145.62V45.85H124.88V44.65Z" fill="#989898"/>
<path d="M124.88 42.3H145.62V44.65H124.88V42.3Z" fill="#C3C3C3"/>
<path d="M110.789 11.62H118.229V50.37H110.789V11.62Z" fill="#B1711B"/>
<path d="M111.93 14.75H117.08C117.29 14.75 117.46 14.9201 117.46 15.13V21.59C117.46 21.7999 117.29 21.97 117.08 21.97H111.93C111.72 21.97 111.55 21.7999 111.55 21.59V15.13C111.55 14.9201 111.72 14.75 111.93 14.75Z" fill="#C3C3C3"/>
<path d="M104.14 16.14H124.88V20.58H104.14V16.14Z" fill="#B4B4B4"/>
<path d="M104.14 19.37H124.88V20.57H104.14V19.37Z" fill="#989898"/>
<path d="M104.14 17.02H124.88V19.37H104.14V17.02Z" fill="#C3C3C3"/>
<path d="M111.93 40.02H117.08C117.29 40.02 117.46 40.1901 117.46 40.4V46.86C117.46 47.0699 117.29 47.24 117.08 47.24H111.93C111.72 47.24 111.55 47.0699 111.55 46.86V40.4C111.55 40.1901 111.72 40.02 111.93 40.02Z" fill="#C3C3C3"/>
<path d="M104.14 41.41H124.88V45.85H104.14V41.41Z" fill="#B4B4B4"/>
<path d="M104.14 44.65H124.88V45.85H104.14V44.65Z" fill="#989898"/>
<path d="M104.14 42.3H124.88V44.65H104.14V42.3Z" fill="#C3C3C3"/>
<path d="M110.41 11.62H117.85V50.37H110.41V11.62Z" fill="#B1711B"/>
<path d="M111.56 14.75H116.71C116.92 14.75 117.09 14.9201 117.09 15.13V21.59C117.09 21.7999 116.92 21.97 116.71 21.97H111.56C111.35 21.97 111.18 21.7999 111.18 21.59V15.13C111.18 14.9201 111.35 14.75 111.56 14.75Z" fill="#C3C3C3"/>
<path d="M103.76 16.14H124.5V20.58H103.76V16.14Z" fill="#B4B4B4"/>
<path d="M103.76 19.37H124.5V20.57H103.76V19.37Z" fill="#989898"/>
<path d="M103.76 17.02H124.5V19.37H103.76V17.02Z" fill="#C3C3C3"/>
<path d="M111.56 40.02H116.71C116.92 40.02 117.09 40.1901 117.09 40.4V46.86C117.09 47.0699 116.92 47.24 116.71 47.24H111.56C111.35 47.24 111.18 47.0699 111.18 46.86V40.4C111.18 40.1901 111.35 40.02 111.56 40.02Z" fill="#C3C3C3"/>
<path d="M103.76 41.41H124.5V45.85H103.76V41.41Z" fill="#B4B4B4"/>
<path d="M103.76 44.65H124.5V45.85H103.76V44.65Z" fill="#989898"/>
<path d="M103.76 42.3H124.5V44.65H103.76V42.3Z" fill="#C3C3C3"/>
<path d="M89.6694 11.62H97.1094V50.37H89.6694V11.62Z" fill="#B1711B"/>
<path d="M90.8196 14.75H95.9696C96.1795 14.75 96.3496 14.9201 96.3496 15.13V21.59C96.3496 21.7999 96.1795 21.97 95.9696 21.97H90.8196C90.6097 21.97 90.4396 21.7999 90.4396 21.59V15.13C90.4396 14.9201 90.6097 14.75 90.8196 14.75Z" fill="#C3C3C3"/>
<path d="M83.0198 16.14H103.76V20.58H83.0198V16.14Z" fill="#B4B4B4"/>
<path d="M83.0198 19.37H103.76V20.57H83.0198V19.37Z" fill="#989898"/>
<path d="M83.0198 17.02H103.76V19.37H83.0198V17.02Z" fill="#C3C3C3"/>
<path d="M90.8196 40.02H95.9696C96.1795 40.02 96.3496 40.1901 96.3496 40.4V46.86C96.3496 47.0699 96.1795 47.24 95.9696 47.24H90.8196C90.6097 47.24 90.4396 47.0699 90.4396 46.86V40.4C90.4396 40.1901 90.6097 40.02 90.8196 40.02Z" fill="#C3C3C3"/>
<path d="M83.0198 41.41H103.76V45.85H83.0198V41.41Z" fill="#B4B4B4"/>
<path d="M83.0198 44.65H103.76V45.85H83.0198V44.65Z" fill="#989898"/>
<path d="M83.0198 42.3H103.76V44.65H83.0198V42.3Z" fill="#C3C3C3"/>
<path d="M68.9301 11.62H76.3701V50.37H68.9301V11.62Z" fill="#B1711B"/>
<path d="M70.0696 14.75H75.2196C75.4295 14.75 75.5996 14.9201 75.5996 15.13V21.59C75.5996 21.7999 75.4295 21.97 75.2196 21.97H70.0696C69.8597 21.97 69.6896 21.7999 69.6896 21.59V15.13C69.6896 14.9201 69.8597 14.75 70.0696 14.75Z" fill="#C3C3C3"/>
<path d="M62.2795 16.14H83.0195V20.58H62.2795V16.14Z" fill="#B4B4B4"/>
<path d="M62.2795 19.37H83.0195V20.57H62.2795V19.37Z" fill="#989898"/>
<path d="M62.2795 17.02H83.0195V19.37H62.2795V17.02Z" fill="#C3C3C3"/>
<path d="M70.0696 40.02H75.2196C75.4295 40.02 75.5996 40.1901 75.5996 40.4V46.86C75.5996 47.0699 75.4295 47.24 75.2196 47.24H70.0696C69.8597 47.24 69.6896 47.0699 69.6896 46.86V40.4C69.6896 40.1901 69.8597 40.02 70.0696 40.02Z" fill="#C3C3C3"/>
<path d="M62.2795 41.41H83.0195V45.85H62.2795V41.41Z" fill="#B4B4B4"/>
<path d="M62.2795 44.65H83.0195V45.85H62.2795V44.65Z" fill="#989898"/>
<path d="M62.2795 42.3H83.0195V44.65H62.2795V42.3Z" fill="#C3C3C3"/>
<path d="M172.589 11.62H180.029V50.37H172.589V11.62Z" fill="#B1711B"/>
<path d="M173.74 14.75H178.89C179.099 14.75 179.27 14.9201 179.27 15.13V21.59C179.27 21.7999 179.099 21.97 178.89 21.97H173.74C173.53 21.97 173.36 21.7999 173.36 21.59V15.13C173.36 14.9201 173.53 14.75 173.74 14.75Z" fill="#C3C3C3"/>
<path d="M165.94 16.14H186.68V20.58H165.94V16.14Z" fill="#B4B4B4"/>
<path d="M165.94 19.37H186.68V20.57H165.94V19.37Z" fill="#989898"/>
<path d="M165.94 17.02H186.68V19.37H165.94V17.02Z" fill="#C3C3C3"/>
<path d="M173.74 40.02H178.89C179.099 40.02 179.27 40.1901 179.27 40.4V46.86C179.27 47.0699 179.099 47.24 178.89 47.24H173.74C173.53 47.24 173.36 47.0699 173.36 46.86V40.4C173.36 40.1901 173.53 40.02 173.74 40.02Z" fill="#C3C3C3"/>
<path d="M165.94 41.41H186.68V45.85H165.94V41.41Z" fill="#B4B4B4"/>
<path d="M165.94 44.65H186.68V45.85H165.94V44.65Z" fill="#989898"/>
<path d="M165.94 42.3H186.68V44.65H165.94V42.3Z" fill="#C3C3C3"/>
<path d="M145.199 16.14H165.939V20.58H145.199V16.14Z" fill="#B4B4B4"/>
<path d="M145.199 19.37H165.939V20.57H145.199V19.37Z" fill="#989898"/>
<path d="M145.199 17.02H165.939V19.37H145.199V17.02Z" fill="#C3C3C3"/>
<path d="M145.199 41.41H165.939V45.85H145.199V41.41Z" fill="#B4B4B4"/>
<path d="M145.199 44.65H165.939V45.85H145.199V44.65Z" fill="#989898"/>
<path d="M145.199 42.3H165.939V44.65H145.199V42.3Z" fill="#C3C3C3"/>
<path d="M124.459 16.14H145.199V20.58H124.459V16.14Z" fill="#B4B4B4"/>
<path d="M124.459 19.37H145.199V20.57H124.459V19.37Z" fill="#989898"/>
<path d="M124.459 17.02H145.199V19.37H124.459V17.02Z" fill="#C3C3C3"/>
<path d="M124.459 41.41H145.199V45.85H124.459V41.41Z" fill="#B4B4B4"/>
<path d="M124.459 44.65H145.199V45.85H124.459V44.65Z" fill="#989898"/>
<path d="M124.459 42.3H145.199V44.65H124.459V42.3Z" fill="#C3C3C3"/>
<path d="M230.339 9.92999H248.909V22.45H230.339V9.92999Z" fill="#FC7400"/>
<path d="M71.7999 11.62H230.34V20.77H71.7999V11.62Z" fill="#FC7400"/>
<path d="M71.7999 41.63H230.34V50.78H71.7999V41.63Z" fill="#FFE01A"/>
<path d="M230.339 39.94H248.909V52.46H230.339V39.94Z" fill="#FFE01A"/>
<path d="M53.22 9.92999H71.79V22.45H53.22V9.92999Z" fill="#FC7400"/>
<path d="M53.22 39.94H71.79V52.46H53.22V39.94Z" fill="#FFE01A"/>
<path d="M233.589 0H245.659V29.43H233.589V0Z" fill="#FC7400"/>
<path d="M235.64 6.03C235.64 3.83191 237.422 2.05 239.62 2.05C241.818 2.05 243.6 3.83191 243.6 6.03V23.39C243.6 25.5881 241.818 27.37 239.62 27.37C237.422 27.37 235.64 25.5881 235.64 23.39V6.03Z" fill="#E26800"/>
<path d="M233.589 29.43H245.659V61.99H233.589V29.43Z" fill="#FFE01A"/>
<path d="M235.64 35.46C235.64 33.2619 237.422 31.48 239.62 31.48C241.818 31.48 243.6 33.2619 243.6 35.46V55.95C243.6 58.1481 241.818 59.93 239.62 59.93C237.422 59.93 235.64 58.1481 235.64 55.95V35.46Z" fill="#FFBF00"/>
<g style="mix-blend-mode:multiply" opacity="0.3">
<path d="M241.29 2.88H240.64V14.52H241.29V29.43H238.75V14.52H239.4V2.88H238.75V0H241.29V2.88Z" fill="#583200"/>
<path d="M235.63 4.16V0H238.17V4.16H237.52V14.52H238.17V29.43H235.63V14.52H236.28V4.16H235.63Z" fill="#583200"/>
</g>
<path d="M239.9 1.10001H242.43V3.77001H239.9V1.10001Z" fill="#004358"/>
<path d="M240.55 3.77H241.79V17.55H240.55V3.77Z" fill="#F1F1F1"/>
<g style="mix-blend-mode:multiply" opacity="0.3">
<path d="M235.749 45.37V29.43H238.899V45.37H238.089V57.8H238.899V61.99H235.749V57.8H236.559V45.37H235.749Z" fill="#583200"/>
</g>
<path d="M239.9 14.56H242.43V28.39H239.9V14.56Z" fill="#004358"/>
<path d="M236.789 1.10001H239.319V3.77001H236.789V1.10001Z" fill="#004358"/>
<path d="M237.43 3.77H238.67V17.55H237.43V3.77Z" fill="#F1F1F1"/>
<path d="M236.789 14.56H239.319V28.39H236.789V14.56Z" fill="#004358"/>
<path d="M238.85 42.19H240.39V57.85H238.85V42.19Z" fill="#F1F1F1"/>
<path d="M238.049 29.86H241.199V45.58H238.049V29.86Z" fill="#004358"/>
<path d="M235.64 28.33H243.6V30.52H235.64V28.33Z" fill="#004358"/>
<path d="M56.47 0H68.54V29.43H56.47V0Z" fill="#FC7400"/>
<path d="M58.5195 6.03C58.5195 3.83191 60.3014 2.05 62.4995 2.05C64.6976 2.05 66.4795 3.83191 66.4795 6.03V23.39C66.4795 25.5881 64.6976 27.37 62.4995 27.37C60.3014 27.37 58.5195 25.5881 58.5195 23.39V6.03Z" fill="#E26800"/>
<g style="mix-blend-mode:multiply" opacity="0.3">
<path d="M64.1699 2.88H63.5199V14.52H64.1699V29.43H61.6299V14.52H62.2799V2.88H61.6299V0H64.1699V2.88Z" fill="#583200"/>
<path d="M58.5098 4.16V0H61.0498V4.16H60.3998V14.52H61.0498V29.43H58.5098V14.52H59.1598V4.16H58.5098Z" fill="#583200"/>
</g>
<path d="M62.7893 1.10001H65.3193V3.77001H62.7893V1.10001Z" fill="#004358"/>
<path d="M63.4299 3.77H64.6699V17.55H63.4299V3.77Z" fill="#F1F1F1"/>
<path d="M59.6692 1.10001H62.1992V3.77001H59.6692V1.10001Z" fill="#004358"/>
<path d="M60.3098 3.77H61.5498V17.55H60.3098V3.77Z" fill="#F1F1F1"/>
<path d="M56.47 29.43H68.54V61.99H56.47V29.43Z" fill="#FFE01A"/>
<path d="M58.5195 35.46C58.5195 33.2619 60.3014 31.48 62.4995 31.48C64.6976 31.48 66.4795 33.2619 66.4795 35.46V55.95C66.4795 58.1481 64.6976 59.93 62.4995 59.93C60.3014 59.93 58.5195 58.1481 58.5195 55.95V35.46Z" fill="#FFBF00"/>
<g style="mix-blend-mode:multiply" opacity="0.3">
<path d="M58.6293 45.37V29.43H61.7793V45.37H60.9793V57.8H61.7793V61.99H58.6293V57.8H59.4393V45.37H58.6293Z" fill="#583200"/>
</g>
<path d="M61.7295 42.19H63.2695V57.85H61.7295V42.19Z" fill="#F1F1F1"/>
<path d="M62.7893 14.56H65.3193V28.39H62.7893V14.56Z" fill="#004358"/>
<path d="M59.6692 14.56H62.1992V28.39H59.6692V14.56Z" fill="#004358"/>
<path d="M60.9301 29.86H64.0801V45.58H60.9301V29.86Z" fill="#004358"/>
<path d="M58.5195 28.33H66.4795V30.52H58.5195V28.33Z" fill="#004358"/>
<path d="M71.66 13.12H79.29V15.28H71.66V13.12Z" fill="#004358"/>
<path d="M79.2996 13.67H118.6V14.72H79.2996V13.67Z" fill="#F1F1F1"/>
<path d="M110.069 13.12H149.529V15.28H110.069V13.12Z" fill="#004358"/>
<path d="M71.66 15.77H79.29V17.93H71.66V15.77Z" fill="#004358"/>
<path d="M79.2996 16.32H118.6V17.37H79.2996V16.32Z" fill="#F1F1F1"/>
<path d="M110.069 15.77H149.529V17.93H110.069V15.77Z" fill="#004358"/>
<path d="M188.91 14.86H233.59V16.17H188.91V14.86Z" fill="#F1F1F1"/>
<path d="M153.74 14.17H198.6V16.85H153.74V14.17Z" fill="#004358"/>
<path d="M149.38 12.12H155.64V18.9H149.38V12.12Z" fill="#004358"/>
<path d="M68.5399 12.11H71.6699V18.91H68.5399V12.11Z" fill="#004358"/>
<path d="M230.46 12.11H233.59V18.91H230.46V12.11Z" fill="#004358"/>
<path d="M222.83 14.43H230.46V16.59H222.83V14.43Z" fill="#004358"/>
<path d="M71.66 44.08H79.29V46.24H71.66V44.08Z" fill="#004358"/>
<path d="M79.2996 44.64H118.6V45.69H79.2996V44.64Z" fill="#F1F1F1"/>
<path d="M110.069 44.08H149.529V46.24H110.069V44.08Z" fill="#004358"/>
<path d="M71.66 46.74H79.29V48.9H71.66V46.74Z" fill="#004358"/>
<path d="M79.2996 47.29H118.6V48.34H79.2996V47.29Z" fill="#F1F1F1"/>
<path d="M110.069 46.74H149.529V48.9H110.069V46.74Z" fill="#004358"/>
<path d="M188.91 45.82H233.59V47.13H188.91V45.82Z" fill="#F1F1F1"/>
<path d="M153.74 45.14H198.6V47.82H153.74V45.14Z" fill="#004358"/>
<path d="M149.38 43.09H155.64V49.87H149.38V43.09Z" fill="#004358"/>
<path d="M68.5399 43.08H71.6699V49.88H68.5399V43.08Z" fill="#004358"/>
<path d="M230.46 43.08H233.59V49.88H230.46V43.08Z" fill="#004358"/>
<path d="M222.83 45.4H230.46V47.56H222.83V45.4Z" fill="#004358"/>
<path d="M149.569 55.44C149.766 55.6383 149.999 55.7958 150.257 55.9033C150.514 56.0107 150.79 56.066 151.069 56.066C151.348 56.066 151.625 56.0107 151.882 55.9033C152.14 55.7958 152.373 55.6383 152.569 55.44L175.979 32C176.178 31.8038 176.335 31.5702 176.443 31.3127C176.55 31.0552 176.605 30.779 176.605 30.5C176.605 30.221 176.55 29.9448 176.443 29.6873C176.335 29.4298 176.178 29.1962 175.979 29L152.559 5.61C152.363 5.41286 152.129 5.25646 151.871 5.14976C151.614 5.04305 151.338 4.98813 151.059 4.98813C150.781 4.98813 150.505 5.04305 150.248 5.14976C149.99 5.25646 149.756 5.41286 149.559 5.61L126.139 29C125.941 29.1962 125.784 29.4298 125.676 29.6873C125.569 29.9448 125.513 30.221 125.513 30.5C125.513 30.779 125.569 31.0552 125.676 31.3127C125.784 31.5702 125.941 31.8038 126.139 32L149.569 55.44Z" fill="#FBC000"/>
<path d="M149.76 52.36C150.107 52.705 150.576 52.8987 151.065 52.8987C151.554 52.8987 152.023 52.705 152.37 52.36L172.9 31.84C173.246 31.4916 173.439 31.0208 173.439 30.53C173.439 30.0393 173.246 29.5684 172.9 29.22L152.37 8.69C152.023 8.34498 151.554 8.15129 151.065 8.15129C150.576 8.15129 150.107 8.34498 149.76 8.69L129.23 29.22C128.884 29.5684 128.69 30.0393 128.69 30.53C128.69 31.0208 128.884 31.4916 129.23 31.84L149.76 52.36Z" stroke="#352E35" stroke-width="1.27" stroke-miterlimit="10"/>
<path d="M145.264 19.33C145.264 19.39 145.204 19.43 145.184 19.48C144.919 20.0741 144.901 20.7492 145.133 21.3568C145.366 21.9644 145.83 22.4548 146.424 22.72C147.019 22.9852 147.694 23.0036 148.301 22.771C148.909 22.5385 149.399 22.0741 149.664 21.48C149.664 21.43 149.664 21.37 149.714 21.32L150.194 21.53C150.344 21.59 150.594 21.37 150.594 21.37L149.944 20.85C150.022 20.6608 150.076 20.4626 150.104 20.26C150.109 20.2068 150.109 20.1532 150.104 20.1C150.124 19.944 150.124 19.786 150.104 19.63C150.109 19.5868 150.109 19.5432 150.104 19.5C150.076 19.3083 150.026 19.1204 149.954 18.94L149.904 18.84C149.837 18.6912 149.753 18.5504 149.654 18.42C149.651 18.3968 149.651 18.3732 149.654 18.35C149.654 18.35 149.604 18.35 149.584 18.28C149.516 18.2017 149.443 18.1282 149.365 18.06C149.337 18.0275 149.307 17.9974 149.274 17.97L149.204 17.92L149.054 17.82L148.934 17.74L148.714 17.62L148.484 17.54H148.334H148.164H148.084H147.954C147.848 17.53 147.741 17.53 147.634 17.54H147.404C147.242 17.5589 147.081 17.5923 146.924 17.64H146.824C146.641 17.7099 146.467 17.8005 146.304 17.91C146.267 17.931 146.233 17.958 146.204 17.99C146.076 18.0832 145.959 18.1905 145.854 18.31L145.744 18.43C145.62 18.592 145.513 18.7662 145.424 18.95L144.604 18.82C144.604 18.82 144.604 19.16 144.764 19.23L145.264 19.33Z" fill="#352E35"/>
<path d="M155.824 35.32L154.174 34.2C153.869 34.4576 153.588 34.7421 153.334 35.05L152.804 34.68V34.74L149.214 32.28C149.401 32.2468 149.57 32.148 149.691 32.0014C149.812 31.8549 149.877 31.67 149.874 31.48C149.874 31.42 149.874 29.85 149.684 28.18C149.394 25.18 148.934 24.31 148.464 23.94C148.401 23.8672 148.322 23.8092 148.234 23.77L147.664 23.52C147.764 23.26 147.204 23.08 147.124 23.28L145.624 22.62C145.624 22.47 144.934 22.14 144.854 22.29L144.514 22.14C144.429 22.1012 144.337 22.0807 144.244 22.08C143.699 21.9485 143.144 21.8682 142.584 21.84C141.324 21.78 140.584 21.98 140.164 22.49C139.571 23.6254 139.137 24.8367 138.874 26.09C138.837 26.2801 138.871 26.4772 138.968 26.6445C139.066 26.8119 139.22 26.9382 139.404 27H139.344L139.154 27.28C139.154 27.28 140.514 28.11 140.984 27.41L141.404 26.8C141.754 26.28 141.084 25.54 140.774 25.25C140.937 24.6418 141.155 24.0494 141.424 23.48C142.019 23.3675 142.629 23.3675 143.224 23.48C142.874 24.4 142.334 25.81 141.864 27.11L141.404 26.8L140.984 27.41L141.594 27.83L141.024 29.43C140.965 29.7075 140.989 29.9963 141.094 30.26C141.094 30.26 141.094 30.26 141.094 30.32L141.894 34.15L140.104 38.58C139.994 38.8548 139.997 39.1616 140.111 39.4346C140.225 39.7076 140.441 39.9249 140.714 40.04C140.848 40.0906 140.99 40.1177 141.134 40.12C141.35 40.1101 141.558 40.0391 141.736 39.9151C141.913 39.7912 142.051 39.6195 142.134 39.42L144.054 34.67C144.134 34.463 144.154 34.2381 144.114 34.02L143.624 31.7L144.004 31.84L145.724 34.19L145.044 38.84C145.001 39.133 145.076 39.431 145.252 39.669C145.428 39.907 145.691 40.0656 145.984 40.11H146.144C146.42 40.1091 146.685 40.0066 146.89 39.8221C147.095 39.6376 147.224 39.3841 147.254 39.11L147.994 34.02C148.017 33.8769 148.012 33.7305 147.977 33.5897C147.943 33.4488 147.881 33.3163 147.794 33.2L146.004 30.75L152.444 35.15V35.21L152.964 35.57C152.768 35.9162 152.607 36.2814 152.484 36.66L154.134 37.79C154.502 37.9732 154.915 38.0434 155.323 37.9918C155.73 37.9402 156.114 37.7691 156.424 37.5C156.533 37.1165 156.534 36.7105 156.429 36.3261C156.323 35.9418 156.114 35.5938 155.824 35.32ZM140.954 26.67C140.864 26.81 140.764 26.96 140.634 27.14C140.504 27.32 139.944 27.34 139.634 27.19L139.714 27.08C139.884 27.0683 140.047 27.003 140.178 26.8935C140.309 26.7839 140.402 26.6357 140.444 26.47C140.504 26.23 140.574 25.98 140.644 25.72C140.884 26 141.154 26.38 140.954 26.67ZM146.474 29L146.524 28.9C146.614 28.71 146.704 28.52 146.804 28.33L146.864 28.2L147.764 26.34C147.903 27.0642 148.003 27.7952 148.064 28.53C148.194 30.07 148.224 31.53 148.224 31.53C148.219 31.5766 148.219 31.6235 148.224 31.67L145.914 30.09L146.474 29Z" fill="#352E35"/>
<path d="M147.975 39.86H163.685C163.547 39.3967 163.274 38.9856 162.899 38.6805C162.524 38.3754 162.066 38.1905 161.585 38.15C161.077 37.8185 160.718 37.3019 160.585 36.71C160.585 36.71 159.495 34.03 158.305 34.3C158.305 34.3 156.845 31.2 154.305 33.93C153.743 34.5082 153.296 35.1866 152.985 35.93C152.985 35.93 150.695 36.3 150.105 37.1C149.515 37.9 148.295 38.85 147.975 39.86Z" fill="#352E35"/>
</g>
<defs>
<clipPath id="clip0_33_2">
<rect width="311.14" height="61.99" fill="white" transform="matrix(-1 0 0 1 311.14 0)"/>
</clipPath>
</defs>
</svg>
