<svg xmlns="http://www.w3.org/2000/svg" viewBox="0 0 186.79 47.33"><defs><style>.cls-1{fill:#b1711b;}.cls-2{fill:#c3c3c3;}.cls-3{fill:#b4b4b4;}.cls-4{fill:#989898;}.cls-5{fill:#9e6518;}</style></defs><g id="Camada_2" data-name="Camada 2"><g id="Trilhos"><rect class="cls-1" x="6.65" y="8.23" width="7.44" height="38.75"/><rect class="cls-2" x="7.41" y="11.36" width="5.91" height="7.22" rx="0.38"/><rect class="cls-3" y="12.75" width="20.74" height="4.44"/><rect class="cls-4" y="15.98" width="20.74" height="1.2"/><rect class="cls-2" y="13.64" width="20.74" height="2.35"/><rect class="cls-2" x="7.41" y="36.63" width="5.91" height="7.22" rx="0.38"/><rect class="cls-3" y="38.02" width="20.74" height="4.44"/><rect class="cls-4" y="41.26" width="20.74" height="1.2"/><rect class="cls-2" y="38.91" width="20.74" height="2.35"/><rect class="cls-1" x="27.4" y="8.23" width="7.44" height="38.75"/><rect class="cls-2" x="28.16" y="11.36" width="5.91" height="7.22" rx="0.38"/><rect class="cls-3" x="20.74" y="12.75" width="20.74" height="4.44"/><rect class="cls-4" x="20.74" y="15.98" width="20.74" height="1.2"/><rect class="cls-2" x="20.74" y="13.64" width="20.74" height="2.35"/><rect class="cls-2" x="28.16" y="36.63" width="5.91" height="7.22" rx="0.38"/><rect class="cls-3" x="20.74" y="38.02" width="20.74" height="4.44"/><rect class="cls-4" x="20.74" y="41.26" width="20.74" height="1.2"/><rect class="cls-2" x="20.74" y="38.91" width="20.74" height="2.35"/><rect class="cls-1" x="48.14" y="8.23" width="7.44" height="38.75"/><rect class="cls-2" x="48.9" y="11.36" width="5.91" height="7.22" rx="0.38"/><rect class="cls-3" x="41.49" y="12.75" width="20.74" height="4.44"/><rect class="cls-4" x="41.49" y="15.98" width="20.74" height="1.2"/><rect class="cls-2" x="41.49" y="13.64" width="20.74" height="2.35"/><rect class="cls-2" x="48.9" y="36.63" width="5.91" height="7.22" rx="0.38"/><rect class="cls-3" x="41.49" y="38.02" width="20.74" height="4.44"/><rect class="cls-4" x="41.49" y="41.26" width="20.74" height="1.2"/><rect class="cls-2" x="41.49" y="38.91" width="20.74" height="2.35"/><rect class="cls-1" x="68.88" y="8.23" width="7.44" height="38.75"/><rect class="cls-2" x="69.64" y="11.36" width="5.91" height="7.22" rx="0.38"/><path class="cls-3" d="M84.09,13.72a59.16,59.16,0,0,1-21.86,3.47V12.75A55.41,55.41,0,0,0,82.72,9.5Z"/><path class="cls-4" d="M84.09,13.72a59.16,59.16,0,0,1-21.86,3.47V16a58,58,0,0,0,21.49-3.41Z"/><path class="cls-2" d="M83,10.34a56,56,0,0,1-20.76,3.3V16a58,58,0,0,0,21.49-3.41Z"/><rect class="cls-2" x="69.64" y="36.63" width="5.91" height="7.22" rx="0.38"/><rect class="cls-3" x="62.23" y="38.02" width="20.74" height="4.44"/><rect class="cls-4" x="62.23" y="41.26" width="20.74" height="1.2"/><rect class="cls-2" x="62.23" y="38.91" width="20.74" height="2.35"/><rect class="cls-1" x="110.45" y="8.23" width="7.44" height="38.75"/><rect class="cls-2" x="111.21" y="12.06" width="5.91" height="7.22" rx="0.38" transform="translate(-1.06 16.88) rotate(-8.42)"/><rect class="cls-2" x="111.21" y="36.63" width="5.91" height="7.22" rx="0.38"/><rect class="cls-3" x="103.8" y="38.02" width="20.74" height="4.44"/><rect class="cls-4" x="103.8" y="41.26" width="20.74" height="1.2"/><rect class="cls-2" x="103.8" y="38.91" width="20.74" height="2.35"/><rect class="cls-1" x="131.22" y="8.23" width="7.44" height="38.75"/><rect class="cls-2" x="131.98" y="11.36" width="5.91" height="7.22" rx="0.38"/><rect class="cls-3" x="124.57" y="12.75" width="20.74" height="4.44"/><rect class="cls-4" x="124.57" y="15.98" width="20.74" height="1.2"/><rect class="cls-2" x="124.57" y="13.64" width="20.74" height="2.35"/><rect class="cls-2" x="131.98" y="36.63" width="5.91" height="7.22" rx="0.38"/><rect class="cls-3" x="124.57" y="38.02" width="20.74" height="4.44"/><rect class="cls-4" x="124.57" y="41.26" width="20.74" height="1.2"/><rect class="cls-2" x="124.57" y="38.91" width="20.74" height="2.35"/><rect class="cls-1" x="151.96" y="8.23" width="7.44" height="38.75"/><rect class="cls-2" x="152.72" y="11.36" width="5.91" height="7.22" rx="0.38"/><rect class="cls-3" x="145.31" y="12.75" width="20.74" height="4.44"/><rect class="cls-4" x="145.31" y="15.98" width="20.74" height="1.2"/><rect class="cls-2" x="145.31" y="13.64" width="20.74" height="2.35"/><rect class="cls-2" x="152.72" y="36.63" width="5.91" height="7.22" rx="0.38"/><rect class="cls-3" x="145.31" y="38.02" width="20.74" height="4.44"/><rect class="cls-4" x="145.31" y="41.26" width="20.74" height="1.2"/><rect class="cls-2" x="145.31" y="38.91" width="20.74" height="2.35"/><rect class="cls-1" x="172.7" y="8.23" width="7.44" height="38.75"/><rect class="cls-2" x="173.47" y="11.36" width="5.91" height="7.22" rx="0.38"/><rect class="cls-3" x="166.05" y="12.75" width="20.74" height="4.44"/><rect class="cls-4" x="166.05" y="15.98" width="20.74" height="1.2"/><rect class="cls-2" x="166.05" y="13.64" width="20.74" height="2.35"/><rect class="cls-2" x="173.47" y="36.63" width="5.91" height="7.22" rx="0.38"/><rect class="cls-3" x="166.05" y="38.02" width="20.74" height="4.44"/><rect class="cls-4" x="166.05" y="41.26" width="20.74" height="1.2"/><rect class="cls-2" x="166.05" y="38.91" width="20.74" height="2.35"/><path class="cls-3" d="M124.62,17.19a55.47,55.47,0,0,0-20.45,3.48l-1.42-4.21a59,59,0,0,1,21.82-3.71Z"/><path class="cls-4" d="M124.62,17.19a55.47,55.47,0,0,0-20.45,3.48c-.16-.46-.23-.69-.39-1.14A56.64,56.64,0,0,1,124.6,16C124.61,16.46,124.61,16.7,124.62,17.19Z"/><path class="cls-2" d="M124.58,13.64A58.42,58.42,0,0,0,103,17.3l.75,2.23A56.64,56.64,0,0,1,124.6,16C124.59,15,124.59,14.58,124.58,13.64Z"/><rect class="cls-1" x="88.54" y="8.23" width="7.44" height="38.75" transform="translate(-3.32 15.87) rotate(-9.66)"/><rect class="cls-5" x="87.18" y="11.54" width="5.91" height="7.22" rx="0.38" transform="translate(-1.26 15.33) rotate(-9.66)"/><rect class="cls-2" x="91.42" y="36.46" width="5.91" height="7.22" rx="0.38" transform="translate(-5.38 16.4) rotate(-9.66)"/><rect class="cls-3" x="82.97" y="38.02" width="20.74" height="4.44"/><rect class="cls-4" x="82.97" y="41.26" width="20.74" height="1.2"/><rect class="cls-2" x="82.97" y="38.91" width="20.74" height="2.35"/><path class="cls-3" d="M103.7,3.57A59,59,0,0,1,84,13.74l-1.4-4.22A55.31,55.31,0,0,0,101.07,0C102.12,1.43,102.64,2.15,103.7,3.57Z"/><path class="cls-4" d="M103.7,3.57A59,59,0,0,1,84,13.74c-.16-.46-.23-.69-.38-1.15A58.1,58.1,0,0,0,103,2.61Z"/><path class="cls-2" d="M101.59.72a56.29,56.29,0,0,1-18.67,9.65c.29.89.44,1.33.74,2.22A58.1,58.1,0,0,0,103,2.61C102.43,1.85,102.15,1.47,101.59.72Z"/></g></g></svg>