<svg xmlns="http://www.w3.org/2000/svg" viewBox="0 0 311.14 61.99"><defs><style>.cls-1{isolation:isolate;}.cls-2{fill:#b1711b;}.cls-3{fill:#c3c3c3;}.cls-4{fill:#b4b4b4;}.cls-5{fill:#989898;}.cls-6{fill:#fc7400;}.cls-7{fill:#ffe01a;}.cls-8{fill:#e26800;}.cls-9{fill:#ffbf00;}.cls-10{opacity:0.3;mix-blend-mode:multiply;}.cls-11{fill:#583200;}.cls-12{fill:#004358;}.cls-13{fill:#f1f1f1;}.cls-14{fill:#fbc000;}.cls-15{fill:none;stroke:#352e35;stroke-miterlimit:10;stroke-width:1.27px;}.cls-16{fill:#352e35;}</style></defs><g class="cls-1"><g id="Camada_2" data-name="Camada 2"><g id="Trilhos"><rect class="cls-2" x="255.57" y="11.62" width="7.44" height="38.75"/><rect class="cls-3" x="256.33" y="14.75" width="5.91" height="7.22" rx="0.38"/><rect class="cls-4" x="248.91" y="16.14" width="20.74" height="4.44"/><rect class="cls-5" x="248.91" y="19.37" width="20.74" height="1.2"/><rect class="cls-3" x="248.91" y="17.02" width="20.74" height="2.35"/><rect class="cls-3" x="256.33" y="40.02" width="5.91" height="7.22" rx="0.38"/><rect class="cls-4" x="248.91" y="41.41" width="20.74" height="4.44"/><rect class="cls-5" x="248.91" y="44.65" width="20.74" height="1.2"/><rect class="cls-3" x="248.91" y="42.3" width="20.74" height="2.35"/><rect class="cls-2" x="6.65" y="11.62" width="7.44" height="38.75"/><rect class="cls-3" x="7.41" y="14.75" width="5.91" height="7.22" rx="0.38"/><rect class="cls-4" y="16.14" width="20.74" height="4.44"/><rect class="cls-5" y="19.37" width="20.74" height="1.2"/><rect class="cls-3" y="17.02" width="20.74" height="2.35"/><rect class="cls-3" x="7.41" y="40.02" width="5.91" height="7.22" rx="0.38"/><rect class="cls-4" y="41.41" width="20.74" height="4.44"/><rect class="cls-5" y="44.65" width="20.74" height="1.2"/><rect class="cls-3" y="42.3" width="20.74" height="2.35"/><rect class="cls-2" x="27.4" y="11.62" width="7.44" height="38.75"/><rect class="cls-3" x="28.16" y="14.75" width="5.91" height="7.22" rx="0.38"/><rect class="cls-4" x="20.74" y="16.14" width="20.74" height="4.44"/><rect class="cls-5" x="20.74" y="19.37" width="20.74" height="1.2"/><rect class="cls-3" x="20.74" y="17.02" width="20.74" height="2.35"/><rect class="cls-3" x="28.16" y="40.02" width="5.91" height="7.22" rx="0.38"/><rect class="cls-4" x="20.74" y="41.41" width="20.74" height="4.44"/><rect class="cls-5" x="20.74" y="44.65" width="20.74" height="1.2"/><rect class="cls-3" x="20.74" y="42.3" width="20.74" height="2.35"/><rect class="cls-2" x="48.14" y="11.62" width="7.44" height="38.75"/><rect class="cls-3" x="48.9" y="14.75" width="5.91" height="7.22" rx="0.38"/><rect class="cls-4" x="41.49" y="16.14" width="20.74" height="4.44"/><rect class="cls-5" x="41.49" y="19.37" width="20.74" height="1.2"/><rect class="cls-3" x="41.49" y="17.02" width="20.74" height="2.35"/><rect class="cls-3" x="48.9" y="40.02" width="5.91" height="7.22" rx="0.38"/><rect class="cls-4" x="41.49" y="41.41" width="20.74" height="4.44"/><rect class="cls-5" x="41.49" y="44.65" width="20.74" height="1.2"/><rect class="cls-3" x="41.49" y="42.3" width="20.74" height="2.35"/><rect class="cls-2" x="68.88" y="11.62" width="7.44" height="38.75"/><rect class="cls-3" x="69.64" y="14.75" width="5.91" height="7.22" rx="0.38"/><rect class="cls-4" x="62.23" y="16.14" width="20.74" height="4.44"/><rect class="cls-5" x="62.23" y="19.37" width="20.74" height="1.2"/><rect class="cls-3" x="62.23" y="17.02" width="20.74" height="2.35"/><rect class="cls-3" x="69.64" y="40.02" width="5.91" height="7.22" rx="0.38"/><rect class="cls-4" x="62.23" y="41.41" width="20.74" height="4.44"/><rect class="cls-5" x="62.23" y="44.65" width="20.74" height="1.2"/><rect class="cls-3" x="62.23" y="42.3" width="20.74" height="2.35"/><rect class="cls-2" x="89.62" y="11.62" width="7.44" height="38.75"/><rect class="cls-3" x="90.39" y="14.75" width="5.91" height="7.22" rx="0.38"/><rect class="cls-4" x="82.97" y="16.14" width="20.74" height="4.44"/><rect class="cls-5" x="82.97" y="19.37" width="20.74" height="1.2"/><rect class="cls-3" x="82.97" y="17.02" width="20.74" height="2.35"/><rect class="cls-3" x="90.39" y="40.02" width="5.91" height="7.22" rx="0.38"/><rect class="cls-4" x="82.97" y="41.41" width="20.74" height="4.44"/><rect class="cls-5" x="82.97" y="44.65" width="20.74" height="1.2"/><rect class="cls-3" x="82.97" y="42.3" width="20.74" height="2.35"/><rect class="cls-2" x="110.37" y="11.62" width="7.44" height="38.75"/><rect class="cls-3" x="111.13" y="14.75" width="5.91" height="7.22" rx="0.38"/><rect class="cls-4" x="103.71" y="16.14" width="20.74" height="4.44"/><rect class="cls-5" x="103.71" y="19.37" width="20.74" height="1.2"/><rect class="cls-3" x="103.71" y="17.02" width="20.74" height="2.35"/><rect class="cls-3" x="111.13" y="40.02" width="5.91" height="7.22" rx="0.38"/><rect class="cls-4" x="103.71" y="41.41" width="20.74" height="4.44"/><rect class="cls-5" x="103.71" y="44.65" width="20.74" height="1.2"/><rect class="cls-3" x="103.71" y="42.3" width="20.74" height="2.35"/><rect class="cls-4" x="269.66" y="16.14" width="20.74" height="4.44"/><rect class="cls-5" x="269.66" y="19.37" width="20.74" height="1.2"/><rect class="cls-3" x="269.66" y="17.02" width="20.74" height="2.35"/><rect class="cls-4" x="269.66" y="41.41" width="20.74" height="4.44"/><rect class="cls-5" x="269.66" y="44.65" width="20.74" height="1.2"/><rect class="cls-3" x="269.66" y="42.3" width="20.74" height="2.35"/><rect class="cls-4" x="290.4" y="16.14" width="20.74" height="4.44"/><rect class="cls-5" x="290.4" y="19.37" width="20.74" height="1.2"/><rect class="cls-3" x="290.4" y="17.02" width="20.74" height="2.35"/><rect class="cls-4" x="290.4" y="41.41" width="20.74" height="4.44"/><rect class="cls-5" x="290.4" y="44.65" width="20.74" height="1.2"/><rect class="cls-3" x="290.4" y="42.3" width="20.74" height="2.35"/><rect class="cls-2" x="151.43" y="11.62" width="7.44" height="38.75"/><rect class="cls-3" x="152.19" y="14.75" width="5.91" height="7.22" rx="0.38"/><rect class="cls-4" x="144.78" y="16.14" width="20.74" height="4.44"/><rect class="cls-5" x="144.78" y="19.37" width="20.74" height="1.2"/><rect class="cls-3" x="144.78" y="17.02" width="20.74" height="2.35"/><rect class="cls-3" x="152.19" y="40.02" width="5.91" height="7.22" rx="0.38"/><rect class="cls-4" x="144.78" y="41.41" width="20.74" height="4.44"/><rect class="cls-5" x="144.78" y="44.65" width="20.74" height="1.2"/><rect class="cls-3" x="144.78" y="42.3" width="20.74" height="2.35"/><rect class="cls-2" x="172.17" y="11.62" width="7.44" height="38.75"/><rect class="cls-3" x="172.93" y="14.75" width="5.91" height="7.22" rx="0.38"/><rect class="cls-4" x="165.52" y="16.14" width="20.74" height="4.44"/><rect class="cls-5" x="165.52" y="19.37" width="20.74" height="1.2"/><rect class="cls-3" x="165.52" y="17.02" width="20.74" height="2.35"/><rect class="cls-3" x="172.93" y="40.02" width="5.91" height="7.22" rx="0.38"/><rect class="cls-4" x="165.52" y="41.41" width="20.74" height="4.44"/><rect class="cls-5" x="165.52" y="44.65" width="20.74" height="1.2"/><rect class="cls-3" x="165.52" y="42.3" width="20.74" height="2.35"/><rect class="cls-2" x="192.91" y="11.62" width="7.44" height="38.75"/><rect class="cls-3" x="193.68" y="14.75" width="5.91" height="7.22" rx="0.38"/><rect class="cls-4" x="186.26" y="16.14" width="20.74" height="4.44"/><rect class="cls-5" x="186.26" y="19.37" width="20.74" height="1.2"/><rect class="cls-3" x="186.26" y="17.02" width="20.74" height="2.35"/><rect class="cls-3" x="193.68" y="40.02" width="5.91" height="7.22" rx="0.38"/><rect class="cls-4" x="186.26" y="41.41" width="20.74" height="4.44"/><rect class="cls-5" x="186.26" y="44.65" width="20.74" height="1.2"/><rect class="cls-3" x="186.26" y="42.3" width="20.74" height="2.35"/><rect class="cls-2" x="193.29" y="11.62" width="7.44" height="38.75"/><rect class="cls-3" x="194.05" y="14.75" width="5.91" height="7.22" rx="0.38"/><rect class="cls-4" x="186.64" y="16.14" width="20.74" height="4.44"/><rect class="cls-5" x="186.64" y="19.37" width="20.74" height="1.2"/><rect class="cls-3" x="186.64" y="17.02" width="20.74" height="2.35"/><rect class="cls-3" x="194.05" y="40.02" width="5.91" height="7.22" rx="0.38"/><rect class="cls-4" x="186.64" y="41.41" width="20.74" height="4.44"/><rect class="cls-5" x="186.64" y="44.65" width="20.74" height="1.2"/><rect class="cls-3" x="186.64" y="42.3" width="20.74" height="2.35"/><rect class="cls-2" x="214.03" y="11.62" width="7.44" height="38.75"/><rect class="cls-3" x="214.79" y="14.75" width="5.91" height="7.22" rx="0.38"/><rect class="cls-4" x="207.38" y="16.14" width="20.74" height="4.44"/><rect class="cls-5" x="207.38" y="19.37" width="20.74" height="1.2"/><rect class="cls-3" x="207.38" y="17.02" width="20.74" height="2.35"/><rect class="cls-3" x="214.79" y="40.02" width="5.91" height="7.22" rx="0.38"/><rect class="cls-4" x="207.38" y="41.41" width="20.74" height="4.44"/><rect class="cls-5" x="207.38" y="44.65" width="20.74" height="1.2"/><rect class="cls-3" x="207.38" y="42.3" width="20.74" height="2.35"/><rect class="cls-2" x="234.77" y="11.62" width="7.44" height="38.75"/><rect class="cls-3" x="235.54" y="14.75" width="5.91" height="7.22" rx="0.38"/><rect class="cls-4" x="228.12" y="16.14" width="20.74" height="4.44"/><rect class="cls-5" x="228.12" y="19.37" width="20.74" height="1.2"/><rect class="cls-3" x="228.12" y="17.02" width="20.74" height="2.35"/><rect class="cls-3" x="235.54" y="40.02" width="5.91" height="7.22" rx="0.38"/><rect class="cls-4" x="228.12" y="41.41" width="20.74" height="4.44"/><rect class="cls-5" x="228.12" y="44.65" width="20.74" height="1.2"/><rect class="cls-3" x="228.12" y="42.3" width="20.74" height="2.35"/><rect class="cls-2" x="131.11" y="11.62" width="7.44" height="38.75"/><rect class="cls-3" x="131.87" y="14.75" width="5.91" height="7.22" rx="0.38"/><rect class="cls-4" x="124.46" y="16.14" width="20.74" height="4.44"/><rect class="cls-5" x="124.46" y="19.37" width="20.74" height="1.2"/><rect class="cls-3" x="124.46" y="17.02" width="20.74" height="2.35"/><rect class="cls-3" x="131.87" y="40.02" width="5.91" height="7.22" rx="0.38"/><rect class="cls-4" x="124.46" y="41.41" width="20.74" height="4.44"/><rect class="cls-5" x="124.46" y="44.65" width="20.74" height="1.2"/><rect class="cls-3" x="124.46" y="42.3" width="20.74" height="2.35"/><rect class="cls-4" x="145.2" y="16.14" width="20.74" height="4.44"/><rect class="cls-5" x="145.2" y="19.37" width="20.74" height="1.2"/><rect class="cls-3" x="145.2" y="17.02" width="20.74" height="2.35"/><rect class="cls-4" x="145.2" y="41.41" width="20.74" height="4.44"/><rect class="cls-5" x="145.2" y="44.65" width="20.74" height="1.2"/><rect class="cls-3" x="145.2" y="42.3" width="20.74" height="2.35"/><rect class="cls-4" x="165.94" y="16.14" width="20.74" height="4.44"/><rect class="cls-5" x="165.94" y="19.37" width="20.74" height="1.2"/><rect class="cls-3" x="165.94" y="17.02" width="20.74" height="2.35"/><rect class="cls-4" x="165.94" y="41.41" width="20.74" height="4.44"/><rect class="cls-5" x="165.94" y="44.65" width="20.74" height="1.2"/><rect class="cls-3" x="165.94" y="42.3" width="20.74" height="2.35"/><rect class="cls-6" x="62.23" y="9.93" width="18.57" height="12.52"/><rect class="cls-6" x="80.8" y="11.62" width="158.54" height="9.15"/><rect class="cls-7" x="80.8" y="41.63" width="158.54" height="9.15"/><rect class="cls-7" x="62.23" y="39.94" width="18.57" height="12.52"/><rect class="cls-6" x="239.35" y="9.93" width="18.57" height="12.52"/><rect class="cls-7" x="239.35" y="39.94" width="18.57" height="12.52"/><rect class="cls-6" x="65.48" width="12.07" height="29.43"/><rect class="cls-8" x="67.54" y="2.05" width="7.96" height="25.32" rx="3.98"/><rect class="cls-7" x="65.48" y="29.43" width="12.07" height="32.56"/><rect class="cls-9" x="67.54" y="31.48" width="7.96" height="28.45" rx="3.98"/><g class="cls-10"><polygon class="cls-11" points="69.85 2.88 70.5 2.88 70.5 14.52 69.85 14.52 69.85 29.43 72.39 29.43 72.39 14.52 71.74 14.52 71.74 2.88 72.39 2.88 72.39 0 69.85 0 69.85 2.88"/><polygon class="cls-11" points="75.51 4.16 75.51 0 72.97 0 72.97 4.16 73.62 4.16 73.62 14.52 72.97 14.52 72.97 29.43 75.51 29.43 75.51 14.52 74.86 14.52 74.86 4.16 75.51 4.16"/></g><rect class="cls-12" x="68.71" y="1.1" width="2.53" height="2.67"/><rect class="cls-13" x="69.35" y="3.77" width="1.24" height="13.78"/><g class="cls-10"><polygon class="cls-11" points="75.39 45.37 75.39 29.43 72.24 29.43 72.24 45.37 73.05 45.37 73.05 57.8 72.24 57.8 72.24 61.99 75.39 61.99 75.39 57.8 74.58 57.8 74.58 45.37 75.39 45.37"/></g><rect class="cls-12" x="68.71" y="14.56" width="2.53" height="13.83"/><rect class="cls-12" x="71.82" y="1.1" width="2.53" height="2.67"/><rect class="cls-13" x="72.47" y="3.77" width="1.24" height="13.78"/><rect class="cls-12" x="71.82" y="14.56" width="2.53" height="13.83"/><rect class="cls-13" x="70.75" y="42.19" width="1.54" height="15.66"/><rect class="cls-12" x="69.94" y="29.86" width="3.15" height="15.72"/><rect class="cls-12" x="67.54" y="28.33" width="7.96" height="2.19"/><rect class="cls-6" x="242.6" width="12.07" height="29.43"/><rect class="cls-8" x="244.66" y="2.05" width="7.96" height="25.32" rx="3.98"/><g class="cls-10"><polygon class="cls-11" points="246.97 2.88 247.62 2.88 247.62 14.52 246.97 14.52 246.97 29.43 249.51 29.43 249.51 14.52 248.86 14.52 248.86 2.88 249.51 2.88 249.51 0 246.97 0 246.97 2.88"/><polygon class="cls-11" points="252.63 4.16 252.63 0 250.09 0 250.09 4.16 250.74 4.16 250.74 14.52 250.09 14.52 250.09 29.43 252.63 29.43 252.63 14.52 251.98 14.52 251.98 4.16 252.63 4.16"/></g><rect class="cls-12" x="245.82" y="1.1" width="2.53" height="2.67"/><rect class="cls-13" x="246.47" y="3.77" width="1.24" height="13.78"/><rect class="cls-12" x="248.94" y="1.1" width="2.53" height="2.67"/><rect class="cls-13" x="249.59" y="3.77" width="1.24" height="13.78"/><rect class="cls-7" x="242.6" y="29.43" width="12.07" height="32.56"/><rect class="cls-9" x="244.66" y="31.48" width="7.96" height="28.45" rx="3.98"/><g class="cls-10"><polygon class="cls-11" points="252.51 45.37 252.51 29.43 249.36 29.43 249.36 45.37 250.16 45.37 250.16 57.8 249.36 57.8 249.36 61.99 252.51 61.99 252.51 57.8 251.7 57.8 251.7 45.37 252.51 45.37"/></g><rect class="cls-13" x="247.87" y="42.19" width="1.54" height="15.66"/><rect class="cls-12" x="245.82" y="14.56" width="2.53" height="13.83"/><rect class="cls-12" x="248.94" y="14.56" width="2.53" height="13.83"/><rect class="cls-12" x="247.06" y="29.86" width="3.15" height="15.72"/><rect class="cls-12" x="244.66" y="28.33" width="7.96" height="2.19"/><rect class="cls-12" x="231.85" y="13.12" width="7.63" height="2.16"/><rect class="cls-13" x="192.54" y="13.67" width="39.3" height="1.05"/><rect class="cls-12" x="161.61" y="13.12" width="39.46" height="2.16"/><rect class="cls-12" x="231.85" y="15.77" width="7.63" height="2.16"/><rect class="cls-13" x="192.54" y="16.32" width="39.3" height="1.05"/><rect class="cls-12" x="161.61" y="15.77" width="39.46" height="2.16"/><rect class="cls-13" x="77.55" y="14.86" width="44.68" height="1.31"/><rect class="cls-12" x="112.54" y="14.17" width="44.86" height="2.68"/><rect class="cls-12" x="155.5" y="12.12" width="6.26" height="6.78"/><rect class="cls-12" x="239.47" y="12.11" width="3.13" height="6.8"/><rect class="cls-12" x="77.55" y="12.11" width="3.13" height="6.8"/><rect class="cls-12" x="80.68" y="14.43" width="7.63" height="2.16"/><rect class="cls-12" x="231.85" y="44.08" width="7.63" height="2.16"/><rect class="cls-13" x="192.54" y="44.64" width="39.3" height="1.05"/><rect class="cls-12" x="161.61" y="44.08" width="39.46" height="2.16"/><rect class="cls-12" x="231.85" y="46.74" width="7.63" height="2.16"/><rect class="cls-13" x="192.54" y="47.29" width="39.3" height="1.05"/><rect class="cls-12" x="161.61" y="46.74" width="39.46" height="2.16"/><rect class="cls-13" x="77.55" y="45.82" width="44.68" height="1.31"/><rect class="cls-12" x="112.54" y="45.14" width="44.86" height="2.68"/><rect class="cls-12" x="155.5" y="43.09" width="6.26" height="6.78"/><rect class="cls-12" x="239.47" y="43.08" width="3.13" height="6.8"/><rect class="cls-12" x="77.55" y="43.08" width="3.13" height="6.8"/><rect class="cls-12" x="80.68" y="45.4" width="7.63" height="2.16"/><path class="cls-14" d="M161.57,55.44a2.11,2.11,0,0,1-3,0L135.16,32a2.11,2.11,0,0,1,0-3L158.58,5.61a2.12,2.12,0,0,1,3,0L185,29a2.11,2.11,0,0,1,0,3Z"/><path class="cls-15" d="M161.38,52.36a1.85,1.85,0,0,1-2.61,0L138.24,31.84a1.86,1.86,0,0,1,0-2.62L158.77,8.69a1.85,1.85,0,0,1,2.61,0l20.53,20.53a1.86,1.86,0,0,1,0,2.62Z"/><path class="cls-16" d="M153.86,19.33c0,.06-.06.1-.08.15a2.45,2.45,0,1,0,4.48,2c0-.05,0-.11.05-.16l.48.21c.15.06.4-.16.4-.16l-.65-.52a2.46,2.46,0,0,0,.16-.59.88.88,0,0,0,0-.16,1.85,1.85,0,0,0,0-.47.57.57,0,0,0,0-.13,2.56,2.56,0,0,0-.15-.56l-.05-.1a2.22,2.22,0,0,0-.25-.42.25.25,0,0,1,0-.07s-.05,0-.07-.07a2.28,2.28,0,0,0-.22-.22.76.76,0,0,0-.09-.09l-.07-.05-.15-.1-.12-.08-.22-.12-.23-.08-.15,0-.17,0-.08,0h-.13a1.71,1.71,0,0,0-.32,0H156a2.73,2.73,0,0,0-.48.1l-.1,0a2.57,2.57,0,0,0-.52.27.39.39,0,0,0-.1.08,2.11,2.11,0,0,0-.35.32l-.11.12a3,3,0,0,0-.32.52l-.82-.13s0,.34.16.41Z"/><path class="cls-16" d="M164.42,35.32l-1.65-1.12a6.67,6.67,0,0,0-.84.85l-.53-.37,0,.06-3.59-2.46a.8.8,0,0,0,.66-.8c0-.06,0-1.63-.19-3.3-.29-3-.75-3.87-1.22-4.24a.66.66,0,0,0-.23-.17l-.57-.25h0c.1-.26-.46-.44-.54-.24h0l-1.5-.66c0-.15-.69-.48-.77-.33l-.34-.15a.66.66,0,0,0-.27-.06,9,9,0,0,0-1.66-.24c-1.26-.06-2,.14-2.42.65a14,14,0,0,0-1.29,3.6A.8.8,0,0,0,148,27l0,0-.06,0-.19.28s1.36.83,1.83.13l.42-.61c.35-.52-.32-1.26-.63-1.55a10.56,10.56,0,0,1,.65-1.77,4.84,4.84,0,0,1,1.8,0c-.35.92-.89,2.33-1.36,3.63l-.46-.31-.42.61.61.42-.57,1.6a1.44,1.44,0,0,0,.07.83s0,0,0,.06l.8,3.83-1.79,4.43a1.13,1.13,0,0,0,.61,1.46,1.25,1.25,0,0,0,.42.08,1.14,1.14,0,0,0,1-.7l1.92-4.75a1.2,1.2,0,0,0,.06-.65l-.49-2.32.38.14,1.72,2.35-.68,4.65a1.12,1.12,0,0,0,.94,1.27h.16a1.12,1.12,0,0,0,1.11-1l.74-5.09a1.08,1.08,0,0,0-.2-.82l-1.79-2.45,6.44,4.4,0,.06.52.36a5.91,5.91,0,0,0-.48,1.09l1.65,1.13a2.08,2.08,0,0,0,2.29-.29A2.18,2.18,0,0,0,164.42,35.32Zm-14.87-8.65c-.09.14-.19.29-.32.47s-.69.2-1,.05l.08-.11a.81.81,0,0,0,.73-.61c.06-.24.13-.49.2-.75l0,0C149.48,26,149.75,26.38,149.55,26.67ZM155.07,29l.05-.1c.09-.19.18-.38.28-.57l.06-.13.9-1.86a20.76,20.76,0,0,1,.3,2.19c.13,1.54.16,3,.16,3a.7.7,0,0,0,0,.14l-2.31-1.58Z"/><path class="cls-16" d="M156.57,39.86h15.71a2.4,2.4,0,0,0-2.1-1.71,2.33,2.33,0,0,1-1-1.44s-1.09-2.68-2.28-2.41c0,0-1.46-3.1-4-.37a6.44,6.44,0,0,0-1.32,2s-2.29.37-2.88,1.17S156.89,38.85,156.57,39.86Z"/></g></g></g></svg>